<svg width="48" height="48" viewBox="0 0 48 48" fill="none" xmlns="http://www.w3.org/2000/svg">
<g clip-path="url(#clip0_306_107)">
<path d="M31.7948 4.23938L24 8.15961L16.2051 4.23938L24 19.0542L31.7948 4.23938Z" fill="#FFB71B"/>
<path d="M34.5762 15.639L40.1374 13.3142V5.47375L30.4736 9.62192L25.0946 19.7416C27.1639 19.9801 29.0637 21.0011 30.4045 22.5952C31.7453 24.1893 32.4258 26.2358 32.3063 28.3154C32.1868 30.395 31.2765 32.3502 29.762 33.7803C28.2474 35.2104 26.2432 36.0071 24.1602 36.0071C22.0772 36.0071 20.073 35.2104 18.5585 33.7803C17.0439 32.3502 16.1336 30.395 16.0141 28.3154C15.8946 26.2358 16.5749 24.1893 17.9158 22.5952C19.2566 21.0011 21.1563 19.9801 23.2257 19.7416L17.8468 9.62192L8.22861 5.47375V13.3142L13.881 15.639C11.4295 17.7819 9.69022 20.6216 8.89523 23.779C8.10023 26.9364 8.28735 30.2612 9.43178 33.3094C10.5762 36.3576 12.6234 38.9842 15.2999 40.8383C17.9764 42.6923 21.1549 43.6857 24.4109 43.6857C27.6669 43.6857 30.8453 42.6923 33.5219 40.8383C36.1984 38.9842 38.2456 36.3576 39.39 33.3094C40.5344 30.2612 40.7217 26.9364 39.9267 23.779C39.1317 20.6216 37.3923 17.7819 34.9408 15.639H34.5762Z" fill="#FFB71B"/>
</g>
<defs>
<clipPath id="clip0_306_107">
<rect width="32" height="39.5214" fill="white" transform="translate(8 4.23938)"/>
</clipPath>
</defs>
</svg>
