<svg width="40" height="40" viewBox="0 0 40 40" fill="none" xmlns="http://www.w3.org/2000/svg">
<path fill-rule="evenodd" clip-rule="evenodd" d="M24.8071 13.1696C24.9396 13.1317 25.0755 13.0939 25.2135 13.0554C25.846 12.8792 26.5244 12.6901 27.132 12.4298C25.0184 11.4791 22.2713 10.528 19.8406 9.99988C19.4184 10.1053 18.2559 10.4225 17.5161 10.6338C17.7435 10.719 18.1084 10.8271 18.5923 10.9705C19.908 11.3603 22.1034 12.0108 24.8071 13.1696ZM15.1914 11.4792C17.7276 12.1132 21.3199 13.4869 22.3765 14.015C22.0037 14.1749 21.5503 14.3616 21.0976 14.5481C20.6523 14.7314 20.2077 14.9145 19.8411 15.0716C16.9882 13.5924 13.6067 12.6412 12.6556 12.4299C13.395 12.2186 14.452 11.796 15.1914 11.4792ZM38.2263 18.347C33.6828 20.1434 25.6524 24.8982 19.8406 29.8647C19.2329 29.3243 18.5819 28.8271 17.9151 28.3178C17.5389 28.0305 17.1577 27.7393 16.7764 27.4344C22.7995 22.6791 29.562 18.4528 35.2679 16.551C36.4303 17.2904 37.4869 17.9244 38.2263 18.347ZM12.3303 24.2261C11.9686 23.9766 11.617 23.7339 11.282 23.5246C19.101 17.3961 25.7577 14.649 29.7731 13.5924C30.1433 13.7774 30.4746 13.9495 30.7897 14.1132C31.3739 14.4166 31.9025 14.6912 32.5202 14.9658C25.9694 17.0793 20.0522 20.6717 14.0291 25.321C13.4552 25.0022 12.8811 24.6061 12.3303 24.2261Z" fill="#E31837"/>
<path fill-rule="evenodd" clip-rule="evenodd" d="M1.6665 18.4532C3.56834 17.1849 6.94938 15.1772 10.1195 13.698C10.4158 13.8166 10.8122 13.9352 11.271 14.0724C11.6299 14.1798 12.027 14.2986 12.4444 14.4378C11.1761 14.9659 8.00637 16.6564 3.8851 19.4039C3.46755 19.2183 3.1111 19.0734 2.78892 18.9425C2.37753 18.7753 2.02202 18.6308 1.6665 18.4532ZM14.6634 15.283C15.4028 15.6002 16.3539 16.0228 17.1992 16.4455C14.1349 18.0305 11.3878 19.9324 8.53487 21.9401C7.9378 21.6412 7.34073 21.29 6.78068 20.9605C6.54788 20.8236 6.32148 20.6904 6.10413 20.5663C9.69731 18.0305 12.4444 16.34 14.6634 15.283Z" fill="#012169"/>
</svg>
