<svg width="40" height="40" viewBox="0 0 40 40" fill="none" xmlns="http://www.w3.org/2000/svg">
<path fill-rule="evenodd" clip-rule="evenodd" d="M1.6665 38.082H38.0811V1.66663H1.6665V38.082Z" fill="url(#paint0_linear_2_52)"/>
<path fill-rule="evenodd" clip-rule="evenodd" d="M4.47491 2.31555C3.78915 2.33632 3.34299 2.92555 3.23491 3.74671C3.23491 3.74671 2.32568 8.52747 2.32568 18.6748C2.32568 28.8286 3.23491 35.4694 3.23491 35.4694C3.31838 36.2721 3.80607 36.9017 4.51184 36.9017H36.0291C36.733 36.9017 37.293 36.3448 37.3076 35.4694C37.3076 35.4694 36.9565 27.6921 36.9565 20.094C36.9565 12.4909 37.3076 3.74671 37.3076 3.74671C37.308 3.73478 37.308 3.72324 37.308 3.71171V3.71055C37.3061 2.96209 36.7422 2.33671 36.0649 2.31555H4.47491Z" fill="url(#paint1_linear_2_52)"/>
<path fill-rule="evenodd" clip-rule="evenodd" d="M29.9435 11.5065C27.6912 12.8254 27.0047 12.9296 24.5597 14.4004L24.68 14.1258C25.9635 12.7269 26.5185 12.1396 27.3635 10.9011C25.1077 11.0246 21.8323 11.2946 19.4916 11.8088L19.6139 11.5596C21.7385 10.5261 25.6808 9.49921 27.6912 9.23421C27.2004 8.54268 23.2077 6.38498 22.2123 5.96806L22.3289 5.7146C25.3562 6.05537 29.3677 7.47152 31.117 8.54268C31.855 8.31152 32.612 8.28806 33.9816 8.17114C33.9816 8.17114 33.7777 8.99614 32.285 10.0211C32.6547 11.0123 31.7662 16.5061 31.0308 17.9627C30.997 15.6623 30.7954 12.7642 29.9435 11.5065Z" fill="#009A7B"/>
<path fill-rule="evenodd" clip-rule="evenodd" d="M13.4919 31.1932L13.6065 30.9316C12.41 30.4728 11.213 30.1035 10.2469 29.1978C10.55 28.347 10.8992 27.6835 11.4677 26.8451L11.5869 26.5858C10.5596 26.7416 9.62881 27.1197 8.73688 27.2935C8.03765 26.062 7.76612 24.3785 7.41419 22.7739L7.29765 23.0247C7.09842 24.8608 7.01958 26.1689 7.27919 27.6278C6.53842 27.8358 5.89112 27.8643 5.29535 28.1216L5.18188 28.3685C6.12919 28.9508 6.90381 29.3982 7.97804 29.9047C8.55112 31.1324 9.14496 31.9685 10.1077 32.9174L10.2242 32.6582C10.0527 31.9651 9.82881 31.3843 9.91342 30.6178C11.105 30.9628 12.1296 31.1462 13.4919 31.1932Z" fill="#009A7B"/>
<path fill-rule="evenodd" clip-rule="evenodd" d="M16.8116 12.9053C16.8116 12.9053 16.3301 13.7553 15.9447 14.8876H15.852C18.6578 15.2668 21.3062 16.4022 21.9693 16.7945L21.8516 17.0472C18.9428 16.533 17.4093 16.5922 16.3258 16.6876C15.2432 16.7945 15.022 16.9276 15.022 16.9276C14.3997 18.2933 14.0332 20.5218 13.8847 21.3441L13.7674 21.5991C13.2347 20.3176 12.4682 17.7653 12.4682 17.7653C11.002 18.5507 7.62085 21.7241 7.62085 21.7241C9.48354 18.0068 11.3693 16.3126 11.3693 16.3126C10.7178 15.6572 9.0197 15.3253 7.77585 15.2734L7.89354 15.0195C8.67085 14.7922 10.2766 14.6957 11.3508 14.6457C12.6247 14.6064 13.3928 14.6803 13.3928 14.6803C14.5266 13.7776 16.2174 12.9868 16.8116 12.9053Z" fill="#009A7B"/>
<path fill-rule="evenodd" clip-rule="evenodd" d="M20.3794 28.8817C19.7902 29.674 19.2898 30.3082 18.6421 31.0371C17.6825 31.3017 16.5332 31.1836 15.6479 31.2117L15.5325 31.4628C16.1986 31.8086 16.8509 32.0148 17.549 32.159C16.9829 32.6736 16.2267 33.0655 15.6982 33.4263L15.5805 33.6763C16.7186 33.4028 18.2155 32.9244 19.3298 32.2678C19.9105 32.2909 20.4552 32.2498 20.8502 32.1721C20.8502 32.1721 20.9686 31.9144 20.9686 31.9205C20.8982 31.6667 20.6709 31.5075 20.6036 31.1463C21.6479 30.3355 22.4052 29.5971 23.2817 28.7151L23.4013 28.464C22.5375 29.0613 21.4898 29.8771 20.4798 30.3528C20.4371 29.8625 20.4059 29.4367 20.3794 28.8817Z" fill="#009A7B"/>
<path fill-rule="evenodd" clip-rule="evenodd" d="M30.0596 11.2507C27.812 12.5738 27.1223 12.6827 24.6812 14.1454C26.1043 12.603 26.5973 11.9423 27.4796 10.653C25.2266 10.7707 21.9516 11.0423 19.6143 11.5596C21.6493 10.473 25.6846 9.26343 27.8119 8.97727C27.3185 8.29612 23.3223 6.13074 22.3285 5.71497C25.4939 5.96304 29.3604 7.14227 31.2343 8.28881C31.9731 8.0592 32.7396 8.04727 34.1135 7.92573C33.7616 8.5265 33.7466 8.87381 32.4012 9.76535C32.7727 10.763 31.8831 16.253 31.1469 17.7053C31.1196 15.41 30.9189 12.5096 30.0596 11.2507Z" fill="white"/>
<path fill-rule="evenodd" clip-rule="evenodd" d="M13.6064 30.9313C12.3125 30.4574 11.384 29.8997 10.3602 28.9409C10.6675 28.0978 11.0137 27.437 11.586 26.5863C10.5375 26.7424 9.7629 26.8643 8.85982 27.037C8.12213 25.7455 7.78866 24.5051 7.41366 22.7736C7.2129 24.6089 7.13597 25.9193 7.3952 27.3763C6.56405 27.6066 5.97713 27.807 5.29443 28.1209C6.25136 28.7016 7.02482 29.1543 8.09251 29.652C8.66674 30.882 9.26251 31.7109 10.2237 32.6574C9.99943 31.8528 9.94059 31.212 10.0314 30.3589C11.226 30.7124 12.2483 30.8982 13.6064 30.9313Z" fill="white"/>
<path fill-rule="evenodd" clip-rule="evenodd" d="M16.9687 12.6842C16.5672 13.2073 16.0995 14.1815 15.9733 14.6338C19.2987 15.0834 21.9695 16.7942 21.9695 16.7942C19.0602 16.2788 17.5268 16.3446 16.4402 16.44C15.3614 16.5404 15.1418 16.6692 15.1418 16.6692C14.356 18.3892 13.8856 21.3438 13.8856 21.3438C13.3541 20.0654 12.5906 17.5107 12.5906 17.5107C11.1225 18.2965 7.74292 21.4688 7.74292 21.4688C9.59946 17.7511 11.4845 16.0604 11.4845 16.0604C10.8372 15.4038 9.13523 15.0761 7.8933 15.0192C8.53638 14.7569 10.1941 14.45 11.4672 14.3915C12.7422 14.3527 13.5106 14.4246 13.5106 14.4246C14.6472 13.5277 16.3729 12.7715 16.9687 12.6842Z" fill="white"/>
<path fill-rule="evenodd" clip-rule="evenodd" d="M20.497 28.6341C19.9113 29.4272 19.4059 30.0533 18.7532 30.7791C17.6324 31.0956 16.7382 31.2118 15.6482 31.2118C16.3178 31.5545 16.9686 31.761 17.6655 31.9079C16.9686 32.5452 16.3774 32.9906 15.6982 33.4264C16.8363 33.1552 18.3297 32.6733 19.4443 32.0133C20.0263 32.0349 20.5728 32.0006 20.9693 31.921C20.8655 31.5822 20.8017 31.3345 20.7178 30.8983C21.7655 30.0799 22.529 29.3506 23.4013 28.4645C22.4728 29.111 21.6705 29.5949 20.599 30.1018C20.5482 29.6076 20.5236 29.1933 20.497 28.6341Z" fill="white"/>
<defs>
<linearGradient id="paint0_linear_2_52" x1="1.6665" y1="1.66663" x2="1.6665" y2="38.082" gradientUnits="userSpaceOnUse">
<stop stop-color="#049C7D"/>
<stop offset="0.351536" stop-color="#61BAA8"/>
<stop offset="0.668127" stop-color="#61BAA8"/>
<stop offset="1" stop-color="#00A184"/>
</linearGradient>
<linearGradient id="paint1_linear_2_52" x1="2.35475" y1="2.37303" x2="2.35475" y2="36.9017" gradientUnits="userSpaceOnUse">
<stop offset="0.000554265" stop-color="#6ADBC4"/>
<stop offset="0.821791" stop-color="#026D58"/>
<stop offset="1" stop-color="#00A184"/>
</linearGradient>
</defs>
</svg>
