<svg width="40" height="40" viewBox="0 0 40 40" fill="none" xmlns="http://www.w3.org/2000/svg">
<path fill-rule="evenodd" clip-rule="evenodd" d="M19.9998 3.33337C29.2045 3.33337 36.6665 10.7953 36.6665 20C36.6665 29.2048 29.2045 36.6667 19.9998 36.6667C10.7951 36.6667 3.33313 29.2048 3.33313 20C3.33313 10.7953 10.7951 3.33337 19.9998 3.33337ZM20.0001 5.0001C11.7158 5.0001 5.00012 11.7158 5.00012 20.0001C5.00012 28.2844 11.7158 35.0001 20.0001 35.0001C28.2844 35.0001 35.0001 28.2844 35.0001 20.0001C35.0001 11.7158 28.2844 5.0001 20.0001 5.0001ZM20.8335 11.6667V13.3334H25.8335V16.6667H20.8335V23.3334H25.8335V26.6667H20.8335V28.3334H27.5001V21.6667H22.5001V18.3334H27.5001V11.6667H20.8335ZM19.1668 11.6668V13.3335H14.1668V16.6668H19.1668V23.3335H14.1668V26.6668H19.1668V28.3335H12.5001V21.6668H17.5001V18.3335H12.5001V11.6668H19.1668Z" fill="#B2292E"/>
</svg>
