<svg width="40" height="40" viewBox="0 0 40 40" fill="none" xmlns="http://www.w3.org/2000/svg">
<path fill-rule="evenodd" clip-rule="evenodd" d="M30.6272 5.14431L36.2555 10.7528C36.2555 10.7528 36.6366 11.2441 36.5659 11.5938C36.4872 11.9712 36.157 12.3838 36.157 12.3838L33.4137 15.1036L24.1108 5.75758C20.1611 1.59924 17.0757 3.25778 17.0757 3.25778C17.0757 3.25778 24.3388 -0.916136 30.6272 5.14431ZM21.9348 5.65608L32.4247 16.1262L28.447 20.1312C28.447 20.1312 27.9402 20.4848 27.5904 20.3906C27.2287 20.2924 26.824 19.9386 26.824 19.9386L19.2701 12.3807C19.1326 12.2432 18.9164 12.2432 18.7868 12.3807L10.5372 20.6225C10.4072 20.7561 10.4072 20.9683 10.5372 21.1059L18.7868 29.3515C18.9164 29.4812 19.1326 29.4812 19.2701 29.3515L27.4608 21.1492C27.4608 21.1492 27.6415 21.0076 27.7671 20.9565C27.9717 20.8661 28.6123 20.8661 28.6123 20.8661H35.337C35.337 20.8661 35.8911 20.7954 36.17 20.9683C36.398 21.1136 36.4335 21.4321 36.4295 21.5421C36.0718 30.8372 28.4313 38.3204 19.0579 38.3204C9.45637 38.3204 1.6665 30.5305 1.6665 20.929C1.6665 12.2943 7.96272 5.12945 16.2123 3.76557C17.1358 3.61624 19.7574 3.48268 21.9348 5.65608Z" fill="#005BAC"/>
</svg>
