<svg width="40" height="41" viewBox="0 0 40 41" fill="none" xmlns="http://www.w3.org/2000/svg">
<path fill-rule="evenodd" clip-rule="evenodd" d="M22.727 3.95239C22.4712 3.95239 22.2679 4.1588 22.2679 4.41817L22.2752 5.19995C22.2679 7.74438 22.8014 10.5171 23.9172 13.4159L24.7318 15.3795C24.7972 15.5348 24.9441 15.6498 25.1219 15.6626H25.1582L35.3041 15.5932C35.5635 15.5932 35.7704 15.385 35.7704 15.1293C35.7704 15.0745 35.7649 15.0251 35.745 14.9795L35.7395 14.974C33.771 9.27871 28.8377 4.98624 22.8068 3.95605C22.8068 3.95605 22.7941 3.95605 22.7905 3.95239H22.727ZM27.0684 20.9214C27.0684 20.6583 27.277 20.4446 27.5328 20.4446L36.1964 20.3825C36.4522 20.3825 36.6572 20.5908 36.6572 20.8428C36.6627 20.8446 36.6645 20.8465 36.6663 20.8501V20.9232C36.5592 25.1225 34.9227 28.9474 32.2901 31.8389C32.2864 31.8389 32.2864 31.8462 32.2864 31.8462C32.1975 31.9284 32.0796 31.9923 31.9472 31.9923C31.7585 31.9923 31.5897 31.8717 31.519 31.7037L27.1083 21.104V21.0858C27.0832 21.0335 27.0758 20.9776 27.0686 20.9235L27.0684 20.9214ZM19.9999 20.5049C18.9348 20.5085 18.0186 21.1826 17.663 22.1232C17.6591 22.1261 17.6573 22.1301 17.6557 22.1337C17.6542 22.1369 17.6528 22.1398 17.6503 22.1415L12.512 35.0043C12.512 35.008 12.5048 35.0135 12.5048 35.0135C12.4794 35.0774 12.4721 35.1285 12.4721 35.1925C12.4721 35.3678 12.5792 35.5286 12.7261 35.6053H12.7297C14.9578 36.703 17.4634 37.304 20.1124 37.2857C22.7577 37.262 25.2669 36.6227 27.4768 35.503C27.4802 35.4996 27.4836 35.4977 27.4868 35.496C27.4905 35.4941 27.4939 35.4922 27.4968 35.4884C27.6365 35.4062 27.7218 35.2527 27.7218 35.0847C27.7218 35.0208 27.7091 34.9568 27.6891 34.9075V34.9039L22.286 21.9242C21.8705 21.0821 21.0177 20.5049 20.0253 20.5049H19.9999ZM12.4592 20.5506L3.7993 20.609C3.54347 20.609 3.33301 20.8227 3.34208 21.0839V21.0857C3.34208 21.0857 3.33301 21.0931 3.33301 21.104C3.4836 25.3216 5.18184 29.1392 7.86345 32.0032C7.86345 32.0072 7.86762 32.0111 7.87149 32.0147C7.87484 32.0179 7.87797 32.0208 7.87797 32.0233C7.96324 32.1 8.07755 32.1567 8.20637 32.1567C8.39869 32.1567 8.56379 32.0325 8.63092 31.8681L12.8928 21.1972C12.9182 21.1387 12.9309 21.0748 12.9255 21.02C12.9255 20.7606 12.7205 20.5506 12.4647 20.5506H12.4592ZM16.959 3.99441H16.9753C16.9971 3.98711 17.0225 3.98711 17.0352 3.98711C17.291 3.98711 17.5069 4.18986 17.5069 4.45106L17.5124 5.23832H17.5069C17.5487 7.78275 17.0552 10.5592 15.9829 13.4744L15.1973 15.4471C15.1356 15.5896 15.0122 15.6992 14.8598 15.7302H14.829H14.8163C14.7981 15.7393 14.7782 15.7393 14.7782 15.7393L4.62683 15.8124C4.36375 15.8124 4.15692 15.6078 4.14966 15.3503C4.14966 15.2973 4.16236 15.2462 4.17506 15.2023V15.1969C6.06562 9.48147 10.9444 5.1068 16.959 3.99441Z" fill="url(#paint0_linear_2_454)"/>
<defs>
<linearGradient id="paint0_linear_2_454" x1="-27.7166" y1="-43.0317" x2="-26.932" y2="51.5879" gradientUnits="userSpaceOnUse">
<stop stop-color="#024DA1"/>
<stop offset="1" stop-color="#00ACED"/>
</linearGradient>
</defs>
</svg>
