<svg width="40" height="40" viewBox="0 0 40 40" fill="none" xmlns="http://www.w3.org/2000/svg">
<path fill-rule="evenodd" clip-rule="evenodd" d="M39.4386 15C38.7929 17.6674 36.4807 19.1217 35.1216 19.8981L35.0626 19.8192C35.6196 19.3655 37.5332 17.9537 38.1449 15.6136L39.4386 15Z" fill="#EF8200"/>
<path fill-rule="evenodd" clip-rule="evenodd" d="M24.667 21.9036C24.57 21.8292 24.4567 21.7599 24.3257 21.7013C24.3214 21.6985 24.0341 21.5562 24.0341 21.5562L24.0318 21.5547L24.0265 21.5519C23.9326 21.4982 23.713 21.3702 23.713 21.1558C23.713 21.0507 23.7542 20.9608 23.8285 20.8977C23.9192 20.8227 24.06 20.7946 24.2103 20.8214C24.3999 20.8509 24.6176 20.9742 24.8567 21.1791L24.9473 21.0045C25.0616 20.7843 25.2048 20.5084 25.2657 20.3928C24.9915 20.1672 24.7252 20.0465 24.3287 19.9765C23.8385 19.9033 23.3659 20.0078 23.0339 20.2592C22.7548 20.4735 22.5809 20.7868 22.5339 21.1655C22.5265 21.231 22.5244 21.2921 22.5244 21.3525C22.5244 21.5309 22.5556 21.6863 22.6176 21.8222C22.6414 21.824 22.6648 21.8262 22.6884 21.8292C23.1888 21.8659 23.8765 21.8969 24.667 21.9036ZM5.59092 21.8725C5.7127 21.023 5.82549 20.2361 5.84172 20.1246H6.94628C6.91553 20.3367 6.68901 21.9166 6.5291 23.0319L6.52829 23.0376L6.37111 24.1335H5.26642C5.29167 23.9601 5.44716 22.8754 5.59041 21.8761L5.59092 21.8725ZM14.6586 21.6802L14.8817 20.1246H17.4284C17.4054 20.2939 17.361 20.6011 17.3298 20.817L17.3297 20.8181L17.305 20.9887H15.7775L15.6729 21.7196H17.0963C17.08 21.8325 17.0563 21.9983 17.0338 22.1559L16.9806 22.5272H15.5574L15.451 23.2685H17.0197C17.0036 23.379 16.9796 23.5478 16.9563 23.7117L16.9561 23.7127C16.9321 23.8811 16.9089 24.0443 16.8959 24.1335H14.3066C14.3334 23.9486 14.5083 22.7287 14.6586 21.6802ZM2.57906 22.421C2.57906 22.421 3.50358 20.3086 3.57496 20.1246H4.96598C4.9664 20.2649 4.92052 21.1929 4.87456 22.1227L4.87456 22.1228L4.87455 22.1229L4.87454 22.1231L4.87454 22.1231L4.87454 22.1232C4.82841 23.0564 4.78219 23.9914 4.78261 24.1333H3.78254L3.94838 21.3264C3.94838 21.3264 2.8217 23.9553 2.74699 24.1333H1.95673L1.60223 21.3264C1.59789 21.3466 1.58479 21.411 1.565 21.5082L1.565 21.5082C1.4603 22.0227 1.16839 23.4572 0.99673 24.1333H0C0.0582907 23.9321 0.324105 22.7576 0.556682 21.7299C0.738227 20.9277 0.89952 20.215 0.926052 20.1246H2.26463L2.57906 22.421ZM12.627 21.0067L11.9938 22.4951H12.8329L12.627 21.0067ZM13.0359 24.1333C13.0102 23.9762 12.9392 23.3223 12.9392 23.3223L11.6913 23.3238C11.6913 23.3238 11.4196 23.9993 11.3628 24.1333H10.2863C10.3883 23.9118 10.9167 22.7244 11.3734 21.6979L11.3741 21.6964C11.7293 20.8982 12.041 20.1976 12.0751 20.1248H13.415C13.4357 20.2396 13.5861 21.1306 13.7406 22.0461L13.7408 22.0473C13.9005 22.9935 14.0646 23.9654 14.0944 24.1333H13.0359ZM8.48632 20.8774H8.73272C8.90121 20.8774 9.08876 20.8947 9.2059 21.0294C9.2891 21.1253 9.31888 21.2598 9.29342 21.4322C9.29342 21.4322 9.26072 21.7377 9.05857 21.8346C9.05857 21.8346 8.91971 21.9253 8.68959 21.9313H8.33644L8.48632 20.8774ZM8.30009 22.1865L8.19095 21.9313H8.33644L8.30009 22.1865ZM8.30009 22.1865C8.17892 23.0372 8.03993 24.0105 8.02079 24.1334H7.01599C7.06163 23.8123 7.55596 20.3674 7.59088 20.1248H9.10531C9.44368 20.1248 9.89989 20.1884 10.1656 20.495C10.313 20.6649 10.3863 20.8915 10.3863 21.1737C10.3863 21.2598 10.3791 21.3504 10.366 21.4458C10.2687 22.2076 9.885 22.3532 9.39415 22.4445L10.2049 24.1334H9.13258L8.30009 22.1865ZM31.8182 20.9023L31.8183 20.902L31.8187 20.8991C31.859 20.6258 31.9131 20.2584 31.9337 20.1246H34.3872C33.5143 20.548 32.5731 20.8604 31.7923 21.0783L31.8182 20.9023ZM31.4163 20.9891H29.8893L29.8106 21.5292C29.4708 21.5904 29.1209 21.6413 28.7689 21.6858L28.8846 20.88C28.9419 20.4809 28.9838 20.1895 28.9926 20.1249H31.5404L31.4905 20.472L31.4903 20.4733C31.4617 20.6725 31.4314 20.8826 31.4163 20.9891ZM32.0677 21.2094L32.0676 21.2094L31.9932 21.2324C31.9782 21.238 31.9632 21.2428 31.9469 21.248L31.9468 21.248L31.9356 21.2516C31.8862 21.2661 31.8362 21.281 31.7845 21.2971C31.7725 21.2998 31.7607 21.3034 31.7492 21.3068C31.7402 21.3095 31.7313 21.3122 31.7226 21.3144L31.7169 21.316L31.7168 21.316C31.553 21.364 31.3869 21.4127 31.212 21.4603C31.1855 21.4668 31.1602 21.4739 31.1344 21.4812L31.1343 21.4812L31.1275 21.4831C31.1004 21.4898 31.073 21.4969 31.0453 21.5041C31.0218 21.5102 30.9982 21.5163 30.9745 21.5222C30.9628 21.5252 30.9512 21.5284 30.9396 21.5316C30.9192 21.5373 30.8986 21.5429 30.8769 21.5478L30.8107 21.5654C30.7829 21.5727 30.7548 21.5801 30.7264 21.5877C30.6897 21.5957 30.6517 21.6047 30.6152 21.6147L30.5096 21.64L30.5096 21.64C30.4604 21.6518 30.4107 21.6637 30.3601 21.6755C30.334 21.6818 30.3078 21.6878 30.2811 21.6939L30.2294 21.7057C30.2206 21.7076 30.2123 21.7097 30.2041 21.7117C30.1928 21.7144 30.1817 21.7171 30.1699 21.7194H30.1682C29.7152 21.8213 29.2332 21.9192 28.7224 22.0063C28.713 22.0081 28.703 22.0095 28.6922 22.0103C28.6135 22.0247 28.5332 22.0381 28.4526 22.0514L28.4036 22.0595L28.3871 22.0615C28.3719 22.0632 28.3573 22.0649 28.3416 22.0677C28.2414 22.0853 28.14 22.1002 28.0376 22.1151C28.0305 22.1162 28.0242 22.1171 28.0185 22.1171C27.4694 22.1974 26.8913 22.2664 26.2854 22.3185H26.2764C26.1868 22.3271 26.0966 22.3347 26.0051 22.3424L26.005 22.3424L25.9971 22.3431C25.9909 22.3431 25.9835 22.3439 25.9759 22.3447L25.9695 22.3453L25.9394 22.3475L25.9394 22.3475C25.854 22.3536 25.7679 22.3598 25.6812 22.3645C25.6755 22.3656 25.6675 22.367 25.6615 22.367L25.5899 22.3716L25.5898 22.3716C25.5139 22.3766 25.4383 22.3815 25.3619 22.3855C25.3562 22.3866 25.3516 22.3866 25.3473 22.3866C25.2828 22.3899 25.2183 22.3934 25.1532 22.397L25.0389 22.4032H25.0315C24.5226 22.428 23.9954 22.4416 23.4511 22.4416H23.413C23.29 22.4402 23.166 22.4394 23.0389 22.4394C23.0183 22.4394 22.9952 22.4394 22.9725 22.4378C22.5316 22.431 22.0815 22.4159 21.6191 22.3909H21.612C20.9146 22.3548 20.1955 22.2965 19.4531 22.2115L20.3084 21.408C20.3084 21.408 20.8049 21.5573 21.493 21.6805C21.4327 21.3268 21.3761 20.9926 21.3307 20.7244L21.3306 20.7235L21.3305 20.7231C21.2766 20.4043 21.2384 20.1789 21.2285 20.1249H19.8879C19.8542 20.198 19.5394 20.9054 19.1819 21.7088C18.7263 22.7328 18.2012 23.9127 18.1006 24.1334H19.1761C19.2327 23.9992 19.5943 23.1377 19.5943 23.1377L20.7161 23.1365C20.7161 23.1365 20.8245 23.9749 20.849 24.1334H21.9076C21.8973 24.0733 21.8698 23.9108 21.8313 23.6835L21.8309 23.6813L21.8305 23.6784C21.7862 23.4169 21.7277 23.0707 21.6641 22.6968C22.4202 22.7393 23.1761 22.7466 23.8822 22.7375C23.9185 22.7967 23.937 22.8605 23.937 22.9291C23.937 22.9541 23.9353 22.9782 23.9304 23.0037C23.9142 23.0934 23.868 23.1672 23.7962 23.2182C23.6487 23.3215 23.44 23.2988 23.2946 23.2732C22.953 23.2142 22.6816 22.9548 22.462 22.7393C22.3236 22.9637 22.0353 23.4341 21.9432 23.5865C22.347 23.9544 22.7829 24.1792 23.2451 24.2436C23.7123 24.3137 24.1756 24.2083 24.5188 23.9552C24.8191 23.7331 25.0072 23.4101 25.0648 23.0211C25.0837 22.9087 25.0913 22.8031 25.0859 22.7022C25.8429 22.6702 26.471 22.623 26.8744 22.5884C27.0055 22.6844 27.0737 22.7982 27.0737 22.9291C27.0737 22.9541 27.0714 22.9782 27.068 23.0037C27.0517 23.0934 27.0041 23.1672 26.9308 23.2182C26.7854 23.3215 26.5764 23.2988 26.4327 23.2732C26.0897 23.2142 25.8166 22.9548 25.5976 22.7393L25.4524 22.9768L25.4513 22.9786C25.312 23.2065 25.1463 23.4777 25.0791 23.5865C25.4837 23.9544 25.9201 24.1792 26.382 24.2436C26.8492 24.3137 27.3117 24.2083 27.6538 23.9552C27.9544 23.7331 28.144 23.4101 28.203 23.0211C28.2403 22.804 28.2305 22.609 28.1785 22.4337C28.3506 22.411 28.5139 22.3855 28.6705 22.3592C28.5508 23.2008 28.4384 23.9877 28.4174 24.1334H31.0079C31.0323 23.957 31.0984 23.4931 31.1307 23.2677H29.562L29.6682 22.5269H31.0911C31.1033 22.4457 31.123 22.3092 31.1439 22.1648L31.1441 22.1635C31.1626 22.0352 31.182 21.9008 31.1979 21.7934C31.391 21.7324 31.4891 21.6953 31.4891 21.6953C31.4891 21.6953 31.9694 21.5502 32.5938 21.3216C32.5035 21.9491 32.2283 23.8689 32.1907 24.1334H33.3109C33.3451 23.8981 33.7451 21.1214 33.7451 21.1214H34.5562C34.5788 20.9487 34.6571 20.3985 34.6936 20.1493C34.272 20.383 33.478 20.7499 32.3435 21.1214C32.254 21.152 32.1619 21.1804 32.0677 21.2094ZM27.1714 21.5554C27.1714 21.5554 27.4571 21.699 27.4633 21.7015C27.5312 21.7314 27.5921 21.7659 27.6509 21.7997C27.0177 21.8515 26.3883 21.8813 25.7915 21.8946C25.7043 21.7426 25.6595 21.5624 25.6595 21.3528C25.6595 21.2929 25.6635 21.2306 25.6709 21.1659C25.7171 20.7873 25.891 20.4727 26.1712 20.2594C26.5025 20.0079 26.9744 19.9051 27.4653 19.9763C27.8611 20.047 28.127 20.1666 28.4022 20.393C28.3495 20.4924 28.2367 20.7096 28.1334 20.9085C28.081 21.0093 28.0311 21.1053 27.9927 21.1789C27.7533 20.9747 27.5358 20.85 27.3448 20.8205C27.1962 20.7942 27.0562 20.8221 26.9647 20.8973C26.8902 20.9601 26.8495 21.0511 26.8484 21.1557C26.8484 21.3705 27.0687 21.4982 27.1642 21.5517L27.1674 21.5542L27.1714 21.5554Z" fill="#003F7E"/>
</svg>
