<svg width="40" height="40" viewBox="0 0 40 40" fill="none" xmlns="http://www.w3.org/2000/svg">
<path fill-rule="evenodd" clip-rule="evenodd" d="M38.3332 20.8334L19.9999 8.33337L1.66656 20.8334L19.9999 33.3334L38.3332 20.8334ZM4.69672 20.8334L19.9997 10.3993L35.3025 20.8334L19.9997 31.2672L4.69672 20.8334ZM19.914 12.6106L22.7277 14.5292L17.6734 17.9752L19.7291 19.3769L21.728 18.0139L20.6762 17.2968L23.9228 15.0832L29.0264 18.563L29.0519 18.5457L32.2591 20.7323L19.8615 29.1853L16.6544 26.999L25.7802 20.7768L24.5417 19.9323L15.5021 26.0953L7.81927 20.8571L19.914 12.6106ZM15.2925 19.5985L13.4411 20.8605L15.4968 22.2622L17.3483 21.0002L15.2925 19.5985ZM21.5417 17.2966L23.9226 15.6733L29.0272 19.1539L29.0523 19.1363L31.393 20.7324L19.8613 28.5949L17.52 26.9988L26.646 20.7769L21.5417 17.2966Z" fill="#22419B"/>
</svg>
