<svg width="40" height="40" viewBox="0 0 40 40" fill="none" xmlns="http://www.w3.org/2000/svg">
<path fill-rule="evenodd" clip-rule="evenodd" d="M28.9823 22.6013H27.7121L26.8595 19.6471H26.8456L26.8918 22.6013H26.006V18.9091H27.3299L28.1187 21.7481H28.1359L28.0913 18.9091H28.9823V22.6013ZM25.0464 21.5792C25.0477 21.6483 25.0414 21.7875 25.038 21.8252C24.9829 22.4377 24.5654 22.7511 23.7998 22.7511C23.0329 22.7511 22.615 22.4377 22.5612 21.8252C22.5595 21.7875 22.5532 21.6483 22.5532 21.5792V18.9078H23.4652V21.6638C23.4652 21.7241 23.4673 21.7707 23.4757 21.8021C23.4866 21.862 23.5442 22.0619 23.7998 22.0619C24.0588 22.0619 24.1156 21.862 24.1294 21.8021C24.1349 21.7707 24.1366 21.7228 24.1366 21.6638V18.9078H25.0464V21.5792ZM21.7404 21.9165C21.642 22.6399 20.971 22.7653 20.4967 22.7653C19.7084 22.7653 19.2207 22.4107 19.2207 21.6869L19.2228 21.3917H20.1764V21.7609C20.1764 21.9599 20.3113 22.0805 20.5161 22.0805C20.6994 22.0805 20.807 22.0025 20.8457 21.8438C20.8612 21.7707 20.8701 21.6621 20.8394 21.5792C20.662 21.1156 19.4221 20.8886 19.2712 20.136C19.2363 19.9636 19.2358 19.8218 19.2632 19.636C19.3674 18.9548 19.9905 18.8121 20.4896 18.8121C20.9361 18.8121 21.2628 18.9144 21.4578 19.1206C21.6021 19.2748 21.6761 19.4853 21.6761 19.7482V20.0181H20.7851V19.7797C20.7851 19.5766 20.6641 19.4587 20.4719 19.4587C20.3012 19.4587 20.1965 19.5385 20.1633 19.6972C20.1587 19.7282 20.1494 19.8058 20.1688 19.8825C20.2646 20.2974 21.5903 20.5509 21.7379 21.3097C21.7538 21.4072 21.7799 21.6155 21.7404 21.9165ZM17.4838 22.6399L17.4616 19.3998H17.4464L16.875 22.6399H15.9619L15.393 19.3998H15.3766L15.356 22.6399H14.4508L14.5294 18.9091H15.9846L16.4075 21.6811H16.429L16.8523 18.9091H18.3071L18.3823 22.6399H17.4838ZM12.8065 22.6399L12.3474 19.3364H12.3302L11.858 22.6399H10.8851L11.5385 18.9091H13.1252L13.774 22.6399H12.8065ZM36.6459 17.7771C36.1914 15.0352 28.3734 14.1776 19.1784 15.865C15.3171 16.5742 11.833 17.6202 9.11569 18.7966C9.53361 18.8063 9.84389 18.9065 10.0327 19.1028C10.1786 19.258 10.2517 19.4721 10.2517 19.7371V20.0066H9.3503V19.769C9.3503 19.5696 9.23846 19.4441 9.03581 19.4441C8.86553 19.4441 8.76084 19.5239 8.72721 19.6844C8.7188 19.7282 8.71544 19.8045 8.73225 19.8736C8.82769 20.2903 10.1668 20.5469 10.3135 21.3164C10.3329 21.4126 10.356 21.6253 10.3169 21.9272C10.2328 22.5464 9.71776 22.7857 9.06019 22.7857C8.14406 22.7857 7.7724 22.3283 7.7724 21.6953V21.3984H8.7394L8.74024 21.7707C8.74024 21.9795 8.88487 22.0951 9.07953 22.0951C9.26621 22.0951 9.3751 22.0158 9.41378 21.8527C9.42892 21.7796 9.43901 21.6692 9.40621 21.5863C9.22753 21.1134 7.97589 20.8931 7.82285 20.1263C7.78753 19.9552 7.78627 19.8085 7.81444 19.625C7.83 19.5239 7.85943 19.4388 7.89474 19.3604C4.88316 20.8439 3.12111 22.4777 3.35361 23.8876C3.80894 26.6335 11.6282 27.488 20.8207 25.8028C24.8606 25.0586 28.4936 23.9483 31.2588 22.7059C31.2197 22.7077 31.1802 22.7108 31.1407 22.7108C30.51 22.7108 29.9475 22.463 29.8912 21.7853C29.879 21.6621 29.879 21.6107 29.8781 21.5407L29.879 19.98C29.879 19.9144 29.8857 19.7956 29.8924 19.734C29.9681 19.0785 30.4592 18.809 31.1407 18.809C31.6667 18.809 32.3124 18.969 32.3848 19.7349C32.3928 19.8302 32.3919 19.9344 32.3919 19.9672V19.9694V20.1148H31.4821V19.8962C31.4821 19.8905 31.4796 19.8085 31.4712 19.7575C31.4552 19.6795 31.3925 19.4978 31.1314 19.4978C30.8754 19.4978 30.8098 19.6795 30.7926 19.7575C30.7858 19.8005 30.7795 19.8639 30.7795 19.9308V21.6253C30.7795 21.6834 30.7825 21.7299 30.7888 21.7658C30.7909 21.7898 30.838 22.0233 31.1365 22.0233C31.4329 22.0233 31.4783 21.7898 31.4821 21.7658C31.4905 21.7188 31.4926 21.6639 31.4905 21.6253V21.1001H31.1306V20.5341H32.3986V21.5407C32.3986 21.6085 32.3986 21.6581 32.3869 21.7853C32.37 21.9613 32.3175 22.1146 32.2342 22.2419C35.1697 20.7743 36.8755 19.1662 36.6459 17.7771Z" fill="#044DA1"/>
</svg>
