<svg width="40" height="41" viewBox="0 0 40 41" fill="none" xmlns="http://www.w3.org/2000/svg">
<path fill-rule="evenodd" clip-rule="evenodd" d="M18.5276 24.0128C18.6266 24.0128 18.8006 24.0956 19.0385 24.3539C20.2708 25.6935 21.656 26.7525 22.8209 27.3918C22.988 27.4844 23.0813 27.5525 23.0813 27.6409C23.0813 27.7069 23.0722 27.7742 22.9262 27.7742C22.6645 27.7742 21.1957 27.4844 20.8076 27.3019C20.4174 27.1195 19.5781 26.4374 18.5767 24.7125C18.4638 24.5181 18.3438 24.3497 18.3438 24.1932C18.3438 24.0374 18.4862 24.0128 18.5276 24.0128Z" fill="#6C9BD2"/>
<path fill-rule="evenodd" clip-rule="evenodd" d="M19.7251 19.8974C22.097 19.564 21.8535 19.0826 21.8535 19.0826C21.8535 19.0826 22.8233 19.0742 22.8233 19.8321C22.8233 20.1879 22.3412 20.5324 21.7412 20.6602C21.3054 20.7514 20.5651 20.863 19.3237 21.0349C19.2626 21.2081 19.1995 21.3863 19.1352 21.5682C19.0486 21.8128 18.9597 22.064 18.8703 22.3184C19.1103 22.2875 20.2359 22.1458 20.8738 22.1458C21.5321 22.1458 21.6773 22.4461 21.6773 22.7746C21.6773 23.6054 20.6268 24.7886 20.0247 25.2426C19.4766 25.6567 18.3707 26.4146 18.123 26.4146C18.0324 26.4146 17.8865 26.3086 18.0633 26.1746C19.6675 24.9535 20.4956 23.9633 20.4956 23.6181C20.4956 23.4693 20.3517 23.3437 20.0724 23.3437C19.7777 23.3437 18.718 23.5065 18.431 23.564L17.8414 25.2338C17.53 26.116 17.3006 26.7657 17.2549 26.8938C17.0858 27.371 16.0724 27.7816 15.6219 27.7816C15.1721 27.7816 15.2528 27.4223 15.3524 27.1984L17.9749 21.204C17.8309 21.2185 17.7112 21.229 17.5757 21.241C17.4807 21.2493 17.3779 21.2584 17.2535 21.27C16.7763 21.317 16.0296 20.8868 16.0296 20.463C16.0296 20.2202 16.1398 19.9816 16.57 20.0244C16.8794 20.0553 17.5651 20.0875 18.49 20.0258L19.1952 18.4117C19.297 18.1753 19.4752 17.9872 19.7208 17.9872C19.9658 17.9872 20.3054 18.2447 20.1545 18.6826C20.1545 18.6826 19.9833 19.1647 19.7251 19.8974ZM0 22.8353H0.753684V24.8304C0.753684 25.6065 1.19509 26.1034 1.99509 26.1034C2.30105 26.1034 2.53684 26.0739 2.75018 26.0107L2.72 25.2044C2.61263 25.2725 2.4386 25.3104 2.25474 25.3104C1.86596 25.3104 1.77544 24.9995 1.77544 24.6627V22.8353H2.74175V22.0879H1.77544V21.0943H0.753684V22.0879H0V22.8353ZM3.51929 22.0877H4.42595V22.9796H4.44209C4.48771 22.6133 4.90595 21.9957 5.51508 21.9957C5.61473 21.9957 5.72139 21.9957 5.82876 22.0273V23.0561C5.73753 23.0028 5.55437 22.9719 5.37052 22.9719C4.54104 22.9719 4.54104 24.0077 4.54104 24.5712V26.0112H3.51929V22.0877ZM9.09636 26.011H10.0634V22.0875H9.04303V24.0082C9.04303 24.51 8.88233 25.3107 8.14338 25.3107C7.48794 25.3107 7.48022 24.663 7.48022 24.1823V22.0875H6.46057V24.564C6.46057 25.4475 6.86408 26.1037 7.7932 26.1037C8.32654 26.1037 8.76934 25.8595 9.08092 25.4791H9.09636V26.011ZM13.4264 23.6652C13.3969 23.1705 13.1674 22.7431 12.5976 22.7431C12.025 22.7431 11.7358 23.1396 11.6895 23.6652H13.4264ZM14.1123 25.7901C13.7383 25.9957 13.3123 26.1038 12.7635 26.1038C11.4681 26.1038 10.7144 25.3571 10.7144 24.0694C10.7144 22.9333 11.3158 21.9957 12.5348 21.9957C13.9909 21.9957 14.4021 22.9943 14.4021 24.3656H11.6892C11.7355 24.9993 12.1776 25.3571 12.8092 25.3571C13.3053 25.3571 13.7313 25.1733 14.1123 24.9607V25.7901ZM23.2986 22.146H22.392V26.0688H23.413V24.6281C23.413 24.0639 23.413 23.0295 24.2432 23.0295C24.4257 23.0295 24.6088 23.0589 24.7007 23.113V22.0842C24.5934 22.054 24.4874 22.054 24.3878 22.054C23.7786 22.054 23.3597 22.6702 23.3134 23.0365H23.2986V22.146ZM25.2924 26.069H26.3148V22.1462H25.2924V26.069ZM25.2925 21.4893H26.3149V20.5132H25.2925V21.4893ZM28.8392 22.8007C29.4104 22.8007 29.6392 23.2267 29.67 23.7235H27.9325C27.9781 23.1972 28.2672 22.8007 28.8392 22.8007ZM29.0062 26.1614C29.555 26.1614 29.9817 26.054 30.3543 25.8477V25.0182C29.9739 25.2309 29.548 25.4133 29.0525 25.4133C28.4202 25.4133 27.9781 25.0554 27.9325 24.4232H30.6434C30.6434 23.0512 30.2329 22.054 28.7781 22.054C27.5585 22.054 26.9571 22.9902 26.9571 24.127C26.9571 25.4133 27.7108 26.1614 29.0062 26.1614ZM31.2491 22.146H32.2168V22.6793H32.2322C32.5529 22.2288 32.988 22.054 33.52 22.054C34.4505 22.054 34.854 22.7095 34.854 23.5944V26.0688H33.8329V23.974C33.8329 23.4933 33.8252 22.8456 33.1698 22.8456C32.4315 22.8456 32.2715 23.6449 32.2715 24.1495V26.0688H31.2491V22.146ZM38.3004 24.096C38.3004 24.6525 38.0801 25.3683 37.4008 25.3683C36.7299 25.3683 36.5411 24.6363 36.5411 24.096C36.5411 23.5697 36.7236 22.8454 37.3861 22.8454C38.0415 22.8454 38.3004 23.5465 38.3004 24.096ZM38.324 25.6265H38.3394V26.0686H39.3296V20.3542H38.3085V22.6033H38.2931C37.9878 22.2286 37.6306 22.0539 37.1198 22.0539C35.9163 22.0539 35.4749 23.0139 35.4749 24.096C35.4749 25.1696 35.9163 26.1612 37.1198 26.1612C37.6005 26.1612 38.0194 26.0075 38.324 25.6265Z" fill="#6A2D00"/>
</svg>
