<svg width="40" height="40" viewBox="0 0 40 40" fill="none" xmlns="http://www.w3.org/2000/svg">
<path fill-rule="evenodd" clip-rule="evenodd" d="M10.4362 16.4818C9.00153 16.5698 7.77753 15.4898 7.68553 14.0658C7.6002 12.6404 8.67487 11.4084 10.1122 11.3178C11.5322 11.2271 12.7535 12.3151 12.8442 13.7391C12.9362 15.1644 11.8575 16.3938 10.4362 16.4818ZM34.2611 12.6431C32.5865 10.9484 29.8185 11.2418 28.1865 12.9711C26.0625 15.2004 24.4105 16.0338 22.4411 15.9511C19.6945 15.8311 18.3385 13.7058 16.9291 11.0258C15.4638 8.22711 13.2091 6.66711 10.3998 6.66711C5.98113 6.66711 3.33313 10.2444 3.33313 14.2338C3.33313 20.3724 7.64913 24.0418 10.6371 25.5884C13.1198 26.8831 15.8811 27.4218 18.3385 27.4844C18.1931 28.9511 17.7611 30.8884 17.2851 32.2604H17.5371H19.8305H22.1211H22.3385C21.8411 30.8884 21.3998 28.7911 21.2638 27.3204C28.6678 26.3591 32.1851 22.9978 34.1105 19.7964C34.9745 18.3911 35.4358 16.9324 35.4305 15.6218C35.4238 14.4738 35.0585 13.4298 34.2611 12.6431Z" fill="#6EB329"/>
</svg>
