<svg xmlns="http://www.w3.org/2000/svg" xmlns:xlink="http://www.w3.org/1999/xlink" version="1.0" id="Layer_1" x="0px" y="0px" width="94.7px" height="42.619px" viewBox="0 0 94.7 42.619" enable-background="new 0 0 94.7 42.619" xml:space="preserve"><script xmlns=""/>
<g>
	<g>
		<g>
			<path fill="#003875" d="M55.556,27.301c2.486,0,3.867,0.352,3.904,2.016c0.016,0.914-0.605,1.977-1.279,2.498     c-1.52,1.174-2.855,1.299-9.988,1.299H13.001L19.8,4.725H8.042c-0.785,0-1.08,0.225-1.314,1.158L0.282,32.492     c-1.213,5.289,1.516,10.127,7.609,10.127c6.092,0,10.969,0,16.143,0c4.088,0,9.561-4.463,11.781-8.586     c0.121-0.227,0.199-0.373,0.291-0.563l0,0c0,0,0.047-0.057,0.061,0.025c0,0.004,0.002,0.004,0.002,0.004     c-0.354,1.482-1.59,6.721-1.793,7.574c-0.26,1.113,0.32,1.535,0.855,1.535c0,0,13.162,0,17.367,0     c14.729,0,20.477-7.006,20.982-15.418c0.281-4.727-2.709-7.785-11.17-7.785c0,0-4.184,0-6.498,0c-2.311,0-4.678-0.76-4.678-2.635     c0-1.879,2.57-3.51,6.061-3.51H73.11c0,0,1.383-5.537,1.656-6.695c0.342-1.457-0.096-1.879-1.16-1.879H54.058     c-11.354,0-16.449,7.594-16.449,13.01c0,5.422,4.369,9.596,15.639,9.596L55.556,27.301z"/>
			<path fill="#ED164B" d="M63.237,0H94.7L78.517,8.313c0,0,0.652-2.723,0.848-3.533c0.203-0.863-0.07-1.512-1.289-1.758     C76.864,2.777,63.237,0,63.237,0z"/>
		</g>
	</g>
</g>
<script xmlns=""/></svg>