<svg width="40" height="41" viewBox="0 0 40 41" fill="none" xmlns="http://www.w3.org/2000/svg">
<path fill-rule="evenodd" clip-rule="evenodd" d="M7.04916 27.1769C6.03335 26.6996 5.19613 26.3139 5.19613 25.5364C5.19613 24.9416 5.6728 24.5091 6.61052 24.5091C6.95477 24.5091 7.23996 24.5464 7.53193 24.6021C7.68403 24.6272 7.84835 24.6503 7.9828 24.6503C8.80237 24.6503 9.26545 24.1621 9.57305 23.2326L9.7007 22.8509C9.56965 22.7987 8.22928 22.21 6.48082 22.21C3.70163 22.21 2.23224 23.9944 2.23428 25.8481C2.23428 26.7811 2.52693 27.4601 2.98459 27.9924C3.57601 28.6789 4.41527 29.1291 5.20021 29.5114C6.34502 30.075 7.37916 30.4905 7.37916 31.3243C7.37916 32.0645 6.61527 32.4868 5.592 32.4868C4.19527 32.4868 2.97237 31.6856 2.81755 31.5885L1.66663 33.7457C1.87033 33.8611 3.34922 34.8022 5.78823 34.8022C8.38138 34.8016 10.3451 33.3098 10.3451 31.0168C10.3451 28.738 8.52397 27.8913 7.04916 27.1769Z" fill="#E21837"/>
<path fill-rule="evenodd" clip-rule="evenodd" d="M17.1978 28.24L21.9054 22.4609H18.5517L14.7982 27.4496H14.7418V22.4609H11.9775V34.7035H12.1419C13.3362 34.7035 14.7595 34.1495 14.7595 32.1525V29.34H14.8178L18.6441 34.5528H22.1607L17.1978 28.24Z" fill="#E21837"/>
<path fill-rule="evenodd" clip-rule="evenodd" d="M22.0628 9.34619C21.0878 9.52952 19.6449 10.4129 19.6503 11.9808C19.653 13.3999 20.8148 14.2602 20.8182 16.1221C20.8229 17.5235 20.0529 18.4667 19.2191 18.9895C19.5559 18.9583 19.926 18.9393 20.3307 18.9393C21.1835 18.9366 21.6955 19.0174 21.7274 19.0242L26.0941 13.6566C24.88 11.8388 23.4636 10.4285 22.0628 9.34619Z" fill="#E21837"/>
<path fill-rule="evenodd" clip-rule="evenodd" d="M25.7308 23.8349C26.2794 22.9807 26.3507 21.6138 26.3962 20.2225C26.4478 18.9263 26.718 17.9492 28.4509 17.9424C28.8345 17.9404 29.2019 17.9947 29.8646 17.9927C32.4034 17.9818 34.0595 17.1052 35.0916 16.5314C32.9846 15.187 29.908 13.812 26.094 13.6565C25.8462 14.362 23.9124 19.7438 23.765 20.1777C23.7888 20.2042 24.1269 20.5845 24.55 21.3259C25.174 22.3438 25.5074 23.2061 25.7308 23.8349Z" fill="#E21837"/>
<mask id="mask0_2_324" style="mask-type:luminance" maskUnits="userSpaceOnUse" x="14" y="6" width="8" height="14">
<path fill-rule="evenodd" clip-rule="evenodd" d="M14.7864 6.13916H21.4448V19.438H14.7864V6.13916Z" fill="white"/>
</mask>
<g mask="url(#mask0_2_324)">
<path fill-rule="evenodd" clip-rule="evenodd" d="M16.5063 19.4381C16.2877 19.4381 16.1777 19.2921 16.1485 19.0388C16.1207 18.7842 15.0274 8.78299 14.8645 7.26676C14.8414 7.04472 14.7864 6.63935 14.7864 6.49404C14.7844 6.26046 14.9371 6.13892 15.1171 6.13892C15.6338 6.13756 18.4517 6.7996 21.4448 8.8991C20.5831 9.14151 19.0221 10.0405 19.0289 11.901C19.0363 13.5442 20.2117 14.4507 20.2185 16.1041C20.2266 18.7876 17.1473 19.4367 16.5063 19.4381Z" fill="#F37725"/>
</g>
<path fill-rule="evenodd" clip-rule="evenodd" d="M25.9806 24.5464C26.0274 24.6734 26.0716 24.78 26.1171 24.852C26.185 24.9708 26.2739 25.0238 26.3866 25.0238C26.4552 25.0238 26.5401 24.9973 26.6345 24.9545C26.8653 24.8486 35.9824 20.5993 37.3574 19.9638C37.5591 19.8687 37.9346 19.6997 38.0623 19.6263C38.1892 19.553 38.2476 19.4437 38.2476 19.3343C38.2476 19.2739 38.2293 19.2121 38.1967 19.1551C38.0256 18.8774 37.1408 17.9403 35.6653 16.9164C34.4947 17.5601 32.6661 18.5603 29.9453 18.5705C29.2772 18.5718 29.1285 18.5243 28.6736 18.529C27.3454 18.5331 27.0147 19.1001 26.9645 20.2666C26.9563 20.4866 26.9557 20.7827 26.94 21.1086C26.8986 22.1522 26.7764 23.5877 25.9806 24.5464Z" fill="#F37725"/>
</svg>
