<svg width="40" height="41" viewBox="0 0 40 41" fill="none" xmlns="http://www.w3.org/2000/svg">
<path fill-rule="evenodd" clip-rule="evenodd" d="M37.2916 22.9162C36.761 17.702 30.8221 13.4303 24.0333 13.3753C17.2435 13.3192 12.1717 17.4992 12.7044 22.7156C13.2382 27.9277 19.1729 32.1993 25.9637 32.2554C32.7546 32.3126 37.8254 28.1293 37.2916 22.9162ZM14.8334 21.6102C14.3686 17.4075 18.7794 14.0331 24.6784 14.0806C30.5742 14.1269 35.7345 17.5704 36.1961 21.7709C36.6576 25.9746 32.2522 29.349 26.3511 29.3048C20.4553 29.2584 15.2961 25.8161 14.8334 21.6102Z" fill="#F8A883"/>
<path fill-rule="evenodd" clip-rule="evenodd" d="M14.6519 20.891C10.7663 24.9545 10.7027 31.1997 14.5096 34.847C18.3164 38.4932 24.5584 38.1545 28.4461 34.0942C32.3339 30.035 32.3943 23.7877 28.5874 20.1383C24.7827 16.4921 18.5418 16.8296 14.6519 20.891ZM27.0418 32.3645C23.6976 35.8532 18.3335 36.1454 15.0572 33.0115C11.7777 29.8722 11.8337 24.4952 15.179 21.0021C18.5233 17.508 23.8917 17.2222 27.1658 20.3551C30.4442 23.4922 30.3892 28.8671 27.0418 32.3645Z" fill="#F37C4B"/>
<mask id="mask0_2_311" style="mask-type:luminance" maskUnits="userSpaceOnUse" x="1" y="5" width="33" height="27">
<path fill-rule="evenodd" clip-rule="evenodd" d="M1.6665 5.03113H33.3566V31.366H1.6665V5.03113Z" fill="white"/>
</mask>
<g mask="url(#mask0_2_311)">
<path fill-rule="evenodd" clip-rule="evenodd" d="M8.54874 10.054C1.33511 15.7664 -0.502533 24.0477 4.44315 28.5447C9.39531 33.0407 19.2576 32.0583 26.4755 26.3447C33.6902 20.6312 35.5257 12.351 30.5768 7.85504C25.6268 3.35367 15.7645 4.34043 8.54874 10.054ZM15.0084 7.81626C21.9622 5.20862 28.8404 7.84754 30.3675 13.7056C31.8967 19.5625 27.4999 26.4289 20.5462 29.0344C13.5903 31.6431 6.7153 29.002 5.18285 23.1451C3.65364 17.2849 8.05256 10.4218 15.0084 7.81626Z" fill="#F05A28"/>
</g>
</svg>
