<svg width="40" height="40" viewBox="0 0 40 40" fill="none" xmlns="http://www.w3.org/2000/svg">
<path fill-rule="evenodd" clip-rule="evenodd" d="M8.47059 29.9059C8.55209 30.9849 9.00609 31.6144 10.2691 31.5894C19.0746 31.4469 21.3861 20.7709 15.9456 15.7484C15.0726 14.9459 14.0136 14.2839 12.7356 13.8364C12.0931 13.6089 11.0346 13.2809 10.1321 13.2809C9.35659 13.2809 8.69659 13.5264 8.52509 14.2994C8.20659 15.7754 8.35509 28.4419 8.47059 29.9059Z" fill="url(#paint0_linear_2_441)"/>
<path fill-rule="evenodd" clip-rule="evenodd" d="M20.7559 3.33337C20.0474 3.33337 19.4514 3.56137 19.2929 4.26237C19.0024 5.59737 19.1424 17.0999 19.2424 18.4334C19.3189 19.4074 19.7279 19.9779 20.8744 19.9619C28.8714 19.8274 30.9754 10.1349 26.0349 5.57587C25.2434 4.84687 24.2724 4.24637 23.1224 3.84137C22.5354 3.63187 21.5769 3.33337 20.7559 3.33337Z" fill="url(#paint1_linear_2_441)"/>
<path fill-rule="evenodd" clip-rule="evenodd" d="M21.0954 14.6149C20.7234 16.2964 20.9029 30.7439 21.0309 32.4204C21.1294 33.6529 21.6384 34.3614 23.0769 34.3404C33.1309 34.1794 35.7734 21.9969 29.5659 16.2659C28.5739 15.3514 27.3504 14.5954 25.9049 14.0869C25.1679 13.8244 23.9589 13.4504 22.9339 13.4504C22.0449 13.4504 21.2879 13.7319 21.0954 14.6149Z" fill="url(#paint2_linear_2_441)"/>
<defs>
<linearGradient id="paint0_linear_2_441" x1="8.33325" y1="31.5901" x2="18.8661" y2="31.5901" gradientUnits="userSpaceOnUse">
<stop stop-color="#CB292B"/>
<stop offset="1" stop-color="#F47920"/>
</linearGradient>
<linearGradient id="paint1_linear_2_441" x1="19.117" y1="20.1089" x2="28.8699" y2="20.1396" gradientUnits="userSpaceOnUse">
<stop stop-color="#1CB0E6"/>
<stop offset="1" stop-color="#0462B0"/>
</linearGradient>
<linearGradient id="paint2_linear_2_441" x1="19.8131" y1="36.3787" x2="34.2163" y2="36.4242" gradientUnits="userSpaceOnUse">
<stop stop-color="#8BC53F"/>
<stop offset="1" stop-color="#009B56"/>
</linearGradient>
</defs>
</svg>
