<svg width="40" height="40" viewBox="0 0 40 40" fill="none" xmlns="http://www.w3.org/2000/svg">
<path d="M10.7255 11.2431C10.1503 12.6451 7.7562 13.6228 6.49084 14.8882C3.55751 17.8215 4.34117 23.2424 7.36078 24.2849C10.1431 25.2339 7.51176 20.1869 10.1431 17.9941C12.9327 15.8588 20.115 19.5902 14.3562 24.4575C13.0046 25.4496 12.8033 25.7803 11.9261 26.6575C7.2098 31.3738 14.8595 36.7156 20.4601 36.0326C25.4209 35.4287 26.7797 32.1719 27.4699 27.5346C28.0954 23.3071 27.2542 21.8333 27.9085 18.7634C30.015 12.947 36.8235 17.9006 37.7797 20.7189C37.8013 20.3954 37.8301 20.079 37.8301 19.7483C37.8301 9.76924 29.7346 1.66663 19.7412 1.66663C14.0183 1.66663 8.9281 4.33395 5.62091 8.48231C9.43856 6.10257 11.9118 8.37447 10.7255 11.2431Z" fill="url(#paint0_radial_2_416)"/>
<path fill-rule="evenodd" clip-rule="evenodd" d="M27.6751 22.7053C27.6241 21.4288 27.5787 20.2934 27.9084 18.7633C30.0149 12.947 36.8162 17.9006 37.7868 20.726C37.2836 30.2594 29.4182 37.8443 19.7483 37.8443C9.76199 37.8443 1.66656 29.7417 1.66656 19.7555C1.66656 15.4921 3.14761 11.5809 5.62081 8.48944C9.43846 6.10251 11.9117 8.37441 10.7254 11.243C10.3794 12.0927 9.35305 12.7876 8.31761 13.4887C7.65332 13.9385 6.98528 14.3908 6.49075 14.8881C3.55741 17.8215 4.34107 23.2424 7.36068 24.2849C8.77659 24.7678 8.79052 23.698 8.80947 22.2417C8.82776 20.8363 8.85074 19.0709 10.143 17.994C12.9254 15.8587 20.1149 19.5901 14.3561 24.4574C13.3106 25.2249 12.9533 25.5966 12.4392 26.1315C12.2887 26.2882 12.1247 26.4588 11.926 26.6574C7.2097 31.3738 14.8594 36.7156 20.46 36.0326C25.4208 35.4287 26.7868 32.179 27.4698 27.5345C27.7836 25.4177 27.7265 23.99 27.6751 22.7053ZM31.8337 13.4287C30.9997 14.5934 28.9291 14.5071 27.1964 13.2633C25.4709 12.0123 24.7448 10.0568 25.5716 8.89925C26.4056 7.74173 28.4905 7.82081 30.216 9.07898C31.9415 10.3156 32.6748 12.2711 31.8337 13.4287Z" fill="url(#paint1_radial_2_416)"/>
<defs>
<radialGradient id="paint0_radial_2_416" cx="0" cy="0" r="1" gradientUnits="userSpaceOnUse" gradientTransform="translate(24.0022 11.9396) scale(24.0225 24.9248)">
<stop stop-color="#EF402F"/>
<stop offset="0.2057" stop-color="#E0382B"/>
<stop offset="0.5402" stop-color="#C42225"/>
<stop offset="0.6" stop-color="#BE1E24"/>
<stop offset="1" stop-color="#7A1113"/>
</radialGradient>
<radialGradient id="paint1_radial_2_416" cx="0" cy="0" r="1" gradientUnits="userSpaceOnUse" gradientTransform="translate(25.8457 10.9312) scale(23.4375 19.6968)">
<stop offset="0.005618" stop-color="#E6E7E8"/>
<stop offset="1" stop-color="#8A9297"/>
</radialGradient>
</defs>
</svg>
