<svg width="40" height="40" viewBox="0 0 40 40" fill="none" xmlns="http://www.w3.org/2000/svg">
<path fill-rule="evenodd" clip-rule="evenodd" d="M24.7009 16.2353C24.7009 15.5553 25.2903 15 25.9965 15C26.7324 15 27.3209 15.5553 27.3209 16.2353C27.3209 16.915 26.7324 17.47 25.9965 17.47C25.2903 17.47 24.7009 16.915 24.7009 16.2353ZM30.7022 16.6856H28.8844V17.4917C28.8844 18.0708 28.5503 18.5121 27.8552 18.5121H27.5214V20.1876H28.6977V22.8714C28.6977 24.1182 29.5395 24.8867 30.9156 24.8867C31.557 24.8867 31.8914 24.748 31.9719 24.7108V23.1233C31.8515 23.1482 31.6506 23.1863 31.4375 23.1863C30.9959 23.1863 30.7022 23.0473 30.7022 22.5312V20.1876H31.9989V18.5121H30.7022V16.6856ZM9.53838 18.3231C8.64316 18.3231 8.00147 18.6005 7.48015 19.306C7.14636 18.6887 6.46484 18.3231 5.51583 18.3231C4.79418 18.3231 3.93879 18.6756 3.60443 19.2301V18.5117H1.66656V24.7734H3.69805V21.1703C3.69805 20.6035 4.08562 20.0871 4.79418 20.0871C5.5292 20.0871 5.86271 20.5531 5.86271 21.1451V24.7734H7.86773V21.1577C7.86773 20.6035 8.25558 20.0871 8.97695 20.0871C9.69859 20.0871 10.033 20.5531 10.033 21.1451V24.7734H11.9973V20.7164C11.9973 19.016 10.795 18.3231 9.53838 18.3231ZM22.0402 19.3564V18.5117H20.0748V24.7734H22.1065V22.0397C22.1065 20.7926 22.8421 20.339 23.6582 20.339C23.8589 20.339 24.0726 20.3516 24.2999 20.4021V18.5117C24.1662 18.4742 23.9656 18.4492 23.7652 18.4492C23.23 18.4492 22.388 18.6509 22.0402 19.3564ZM27.0263 24.7734H24.9954V18.5117H27.0263V24.7734ZM14.7003 20.8851C14.741 20.4135 15.1735 19.8148 16.0389 19.8148C17.0118 19.8148 17.3632 20.4006 17.39 20.8851H14.7003ZM16.0118 18.2858C14.268 18.2858 12.6599 19.5854 12.6599 21.6239C12.6599 23.7516 14.3087 25 16.1603 25C17.6833 25 18.6963 24.2661 19.1257 23.3278L17.4454 22.7263C17.226 23.1113 16.827 23.3562 16.1873 23.3562C15.39 23.3562 14.7005 22.8468 14.6598 22.1335H19.3366C19.3502 22.0954 19.3776 21.8022 19.3776 21.5345C19.3776 19.4961 18.093 18.2858 16.0118 18.2858ZM38.28 20.0869L35.2451 23.0977H38.3332V23.1232V24.7735H32.7606V23.0854L35.6498 20.1875H32.8406V20.15V18.5118H38.28V20.0869Z" fill="#EE3B24"/>
</svg>
