<svg width="40" height="40" viewBox="0 0 40 40" fill="none" xmlns="http://www.w3.org/2000/svg">
<path fill-rule="evenodd" clip-rule="evenodd" d="M31.8295 22.1581L30.1641 21.069C29.0768 21.8364 27.586 21.9103 26.405 21.137C26.405 21.137 21.334 17.8243 20.866 17.5138C20.3078 17.1404 19.6118 17.1172 19.0166 17.5043C18.423 17.8906 13.457 21.137 13.457 21.137C12.2751 21.9103 10.7869 21.8364 9.697 21.069L8.03421 22.1581C6.63894 23.0708 6.24668 24.94 7.15851 26.3344C8.07034 27.7306 9.94044 28.1228 11.3357 27.2093L19.0785 22.1486C19.6884 21.7727 20.1847 21.7727 20.7869 22.1469L28.5263 27.2093C29.9224 28.1228 31.7916 27.7306 32.7043 26.3344C33.6144 24.94 33.2239 23.0708 31.8295 22.1581Z" fill="#7CB142"/>
<path fill-rule="evenodd" clip-rule="evenodd" d="M19.3674 12.7856C19.5377 12.6807 19.739 12.6213 19.954 12.6213C20.1648 12.6213 20.3618 12.679 20.5321 12.7805C20.8495 12.9706 24.2216 15.2046 24.2216 15.2046C25.3399 15.9349 26.7773 15.7869 27.727 14.9336L29.6409 16.1878C30.8272 16.9611 31.1601 18.5517 30.385 19.7379C29.6091 20.9233 28.0203 21.257 26.834 20.4811C26.834 20.4811 21.3356 16.8957 20.8014 16.5895C20.2672 16.2816 19.6358 16.2686 19.087 16.5955C18.6414 16.8596 13.0285 20.4811 13.0285 20.4811C11.8534 21.1908 10.2525 20.9233 9.47749 19.7379C8.70244 18.5517 9.03534 16.9611 10.2207 16.1878L12.1364 14.9336C13.0852 15.7869 14.5218 15.9349 15.6418 15.2046C15.6418 15.2046 19.0345 12.9878 19.3674 12.7856Z" fill="#528A3D"/>
<path fill-rule="evenodd" clip-rule="evenodd" d="M20.5955 11.8759L24.6514 14.546C25.6226 15.18 26.9241 14.9064 27.559 13.9361C28.1929 12.9666 27.9202 11.6643 26.9499 11.0286L20.5663 6.85222C20.1611 6.60534 19.7026 6.60534 19.3086 6.84878L12.9138 11.0286C11.9417 11.6643 11.6691 12.9666 12.303 13.9361C12.9396 14.9064 14.2394 15.18 15.2106 14.546L19.325 11.8742C19.5177 11.7468 19.7189 11.6574 19.9589 11.6574C20.1989 11.6574 20.4045 11.7468 20.5955 11.8759Z" fill="#004711"/>
<path fill-rule="evenodd" clip-rule="evenodd" d="M24.2865 30.588L20.9686 25.161C20.7054 24.7128 20.3217 24.4848 19.9312 24.4728C19.5407 24.4848 19.1561 24.7128 18.8929 25.161L15.5751 30.588C15.145 31.2539 15.2465 32.3162 16.4336 32.3162H23.428C24.6142 32.3162 24.7166 31.2539 24.2865 30.588Z" fill="#004711"/>
</svg>
