<svg width="40" height="41" viewBox="0 0 40 41" fill="none" xmlns="http://www.w3.org/2000/svg">
<path fill-rule="evenodd" clip-rule="evenodd" d="M19.9784 3.95227C20.9842 3.95227 21.9653 4.04608 22.9206 4.21822L19.9984 5.84775L17.0644 4.21203C18.0127 4.04465 18.9851 3.95227 19.9784 3.95227ZM17.7078 6.52266L14.6661 4.82694C13.9569 5.06623 13.2676 5.35004 12.6054 5.67837L11.6521 9.03408C13.4142 7.76194 15.4742 6.88218 17.7078 6.52266ZM27.3751 5.69174L28.3299 9.05198C26.5711 7.77603 24.5115 6.89127 22.2789 6.52865L25.3156 4.83484C26.0242 5.07531 26.7125 5.3615 27.3751 5.69174ZM8.43072 12.2469L5.07215 13.2031C4.73953 13.8646 4.45476 14.5524 4.21405 15.2617L5.90715 18.2981C6.27048 16.0653 7.15596 14.0065 8.43072 12.2469ZM3.59777 17.656C3.42586 18.6117 3.33301 19.5941 3.33301 20.5986C3.33301 21.5914 3.42348 22.5652 3.59206 23.5124L5.2261 20.5788L3.59777 17.656ZM35.7507 15.2855L34.0534 18.3277C33.6948 16.0948 32.815 14.0351 31.5441 12.2732L34.8984 13.226C35.2262 13.8889 35.5105 14.5779 35.7507 15.2855ZM5.90289 22.8692L4.20551 25.9111C4.44551 26.6194 4.73003 27.3087 5.05931 27.9713L8.41217 28.9242C7.14217 27.1623 6.26074 25.1025 5.90289 22.8692ZM10.4474 34.2349C8.84173 33.1099 7.44578 31.7111 6.3222 30.103L9.53363 31.0156L10.4474 34.2349ZM10.4738 6.94402C8.86643 8.06569 7.46667 9.46355 6.34143 11.0683L9.56119 10.1535L10.4738 6.94402ZM29.4823 34.2538C31.089 33.1316 32.4894 31.7331 33.6152 30.129L30.3963 31.0438L29.4823 34.2538ZM34.8862 27.9945L31.5245 28.949C32.801 27.1914 33.686 25.1321 34.0483 22.8992L35.7419 25.9361C35.5019 26.6459 35.216 27.3328 34.8862 27.9945ZM11.6286 32.1456L12.5817 35.5063C13.2441 35.8356 13.9324 36.1215 14.6403 36.3625L17.6781 34.6684C15.445 34.3061 13.386 33.4204 11.6286 32.1456ZM25.2913 36.3708L22.2496 34.6744C24.4825 34.3156 26.5442 33.4351 28.3058 32.1637L27.3515 35.5182C26.688 35.8472 26.0001 36.132 25.2913 36.3708ZM36.3595 23.5411C36.5295 22.5856 36.625 21.6033 36.625 20.5987C36.625 19.6052 36.5316 18.6328 36.365 17.6864L34.7295 20.6176L36.3595 23.5411ZM19.978 37.245C18.9737 37.245 17.9918 37.1512 17.0342 36.9791L19.957 35.3491L22.8901 36.9846C21.9432 37.1527 20.9728 37.245 19.978 37.245ZM14.5016 19.1722C15.1966 19.5867 16.1087 19.7977 17.2104 19.7977H19.2006V18.0346H17.6432C17.0997 18.0346 16.6458 17.9722 16.2932 17.8489C15.9301 17.7203 15.5978 17.4996 15.3051 17.1903C14.8075 16.6667 14.5547 16.0308 14.5547 15.3029C14.5547 14.5298 14.8173 13.8693 15.3356 13.3412C15.6106 13.0612 15.9263 12.8555 16.2751 12.7308C16.6147 12.6101 17.0368 12.5489 17.5313 12.5489H19.2006V10.7848H17.3077C16.7242 10.7848 16.1937 10.8358 15.7361 10.9393C14.9713 11.1055 14.3049 11.4617 13.7525 11.997C13.372 12.3681 13.0599 12.8081 12.8289 13.3031C12.5201 13.9541 12.3635 14.6339 12.3635 15.3229C12.3635 15.8486 12.4578 16.3703 12.6416 16.8755C13.0004 17.8693 13.6268 18.6424 14.5016 19.1722ZM17.7524 21.5537C18.1033 21.6528 18.4171 21.8201 18.6845 22.0547C18.9707 22.303 19.1979 22.6149 19.3607 22.9851C19.5238 23.3571 19.6067 23.7444 19.6067 24.1332C19.6067 24.6587 19.4617 25.1516 19.1788 25.6013C18.9064 26.0387 18.5617 26.3551 18.1591 26.5435C17.7457 26.7347 17.1886 26.8325 16.5026 26.8325H14.8029V30.4128H12.7117V25.0687H16.0138C16.5198 25.0687 16.8443 25.0063 17.0443 24.8644C17.2883 24.6847 17.4183 24.4213 17.4183 24.1051C17.4183 23.6828 17.2076 23.4663 17.0324 23.3585C16.8162 23.2275 16.4895 23.1628 16.0357 23.1628H12.7117V21.3994H16.2933C16.8941 21.3994 17.3857 21.4509 17.7524 21.5537ZM20.9963 23.1629H27.4872V21.3996H20.9963V23.1629ZM27.4872 30.4129H20.9963V25.0688H27.4872V26.8326H23.0889V28.6486H27.4872V30.4129Z" fill="#1D9ADD"/>
<path fill-rule="evenodd" clip-rule="evenodd" d="M29.5085 6.96228C31.1147 8.08728 32.5109 9.48704 33.6318 11.0939L30.4232 10.1825L29.5085 6.96228ZM25.8736 18.0345L23.2869 10.785H25.1834L28.3677 19.7978H20.1167L21.8791 14.4561H23.7129L22.6924 18.0345H25.8736Z" fill="#F73449"/>
</svg>
