<svg width="40" height="41" viewBox="0 0 40 41" fill="none" xmlns="http://www.w3.org/2000/svg">
<path fill-rule="evenodd" clip-rule="evenodd" d="M4.90662 20.601C4.90662 28.9266 11.656 35.6764 19.9819 35.6764C28.307 35.6764 35.0572 28.9266 35.0572 20.601C35.0572 12.2751 28.307 5.52492 19.9819 5.52492C11.656 5.52492 4.90662 12.2751 4.90662 20.601ZM3.33301 20.6011C3.33301 11.4061 10.7869 3.95215 19.9816 3.95215C29.177 3.95215 36.6305 11.4061 36.6305 20.6011C36.6305 29.7954 29.177 37.2493 19.9816 37.2493C10.7869 37.2493 3.33301 29.7954 3.33301 20.6011ZM20.9333 13.7089V14.9723H23.0893V16.6369H20.9333V21.0472H18.9667V12.0443H23.3091V13.7089H20.9333ZM19.9818 27.1469C18.9761 27.1469 18.1617 26.3432 18.1617 25.3514C18.1617 24.3588 18.9761 23.5543 19.9818 23.5543C20.9868 23.5543 21.8024 24.3588 21.8024 25.3514C21.8024 26.3432 20.9868 27.1469 19.9818 27.1469ZM19.9817 21.916C18.0162 21.916 16.4236 23.4111 16.4236 25.3514C16.4236 27.2938 18.0162 28.7864 19.9817 28.7864C21.9471 28.7864 23.5401 27.2938 23.5401 25.3514C23.5401 23.4111 21.9471 21.916 19.9817 21.916Z" fill="#003993"/>
</svg>
