<svg width="56" height="56" viewBox="0 0 56 56" fill="none" xmlns="http://www.w3.org/2000/svg">
<rect width="56" height="56" fill="#F3F3F3"/>
<path fill-rule="evenodd" clip-rule="evenodd" d="M19 20C19 15.0294 23.0294 11 28 11C32.9706 11 37 15.0294 37 20C37 24.9706 32.9706 29 28 29C23.0294 29 19 24.9706 19 20Z" fill="#BFBFBF"/>
<path fill-rule="evenodd" clip-rule="evenodd" d="M11.5025 48.2107C11.6572 39.2311 18.984 32 28 32C37.0163 32 44.3432 39.2315 44.4975 48.2113C44.5078 48.8068 44.1647 49.352 43.6233 49.6004C38.8654 51.7836 33.573 53 28.0006 53C22.4277 53 17.1349 51.7834 12.3766 49.5998C11.8353 49.3514 11.4922 48.8062 11.5025 48.2107Z" fill="#BFBFBF"/>
</svg>
