<svg width="157" height="452" viewBox="0 0 157 452" fill="none" xmlns="http://www.w3.org/2000/svg">
<path d="M23.1699 408.364C22.7819 404.369 24.9644 396.655 28.3333 387.478C37.25 363.279 54.5498 328.888 55.5496 325.706C56.5495 322.543 62.2278 314.384 65.3393 310.072C66.6898 308.184 67.7643 306.132 68.5403 303.928L80.0685 270.757L80.6617 269.075C80.9564 268.205 82.2361 268.355 82.307 269.261C82.7696 274.017 83.4524 282.638 83.4374 291.554C83.4374 296.292 83.2322 301.119 82.6987 305.502C82.3107 308.777 81.5161 311.997 80.6281 315.179C74.7633 336.621 79.4268 361.484 82.2212 372.881C83.4225 377.82 84.3664 382.833 84.9783 387.884L84.9969 388.071L87.6234 409.995H97.1892C97.2638 404.981 97.7637 395.584 98.4838 384.094C100.946 345.391 105.979 282.802 105.979 282.802L106.218 279.326L108.605 243.805L50.472 249.262C50.472 249.262 50.3974 257.201 49.4721 267.541C48.1589 282.306 45.1407 301.988 38.2051 310.557C32.191 317.995 28.2326 325.43 25.8076 330.925C23.8452 335.383 22.5133 340.083 21.7559 344.891L15.3352 386.057V386.075L12.1901 406.186L23.1811 408.368L23.1699 408.364Z" fill="#343446"/>
<path d="M106.526 105.134C106.526 105.134 112.417 92.3131 129.075 80.4653C129.553 80.1258 130.672 80.1519 130.866 80.7078C131.347 82.0731 127.531 85.1693 127.531 85.1693C128.005 86.4041 135.123 80.4541 138.682 80.1034C139.593 80.0139 140.055 81.2039 139.369 81.8045C136.425 84.3897 129.389 89.131 129.456 91.3357C129.456 91.3357 140.544 89.1198 145.83 87.6799C146.868 87.3964 147.759 88.467 147.252 89.4145C146.297 91.1939 135.433 95.0102 135.78 95.7674C135.947 96.133 140.708 94.3946 143.924 93.3389C144.633 93.1039 145.252 93.9134 144.838 94.5364C144.077 95.6816 142.122 97.461 139.876 99.0875C138.466 100.11 137.533 101.225 135.977 102.478C134.104 103.989 133.187 104.381 131.989 105.425C129.079 107.962 121.341 111.51 111.962 111.454C99.0088 111.375 106.526 105.134 106.526 105.134Z" fill="#CE7A7A"/>
<path d="M121.125 87.1579V94.559L136.817 93.4138L156.005 72.2287C156.411 71.7848 156.523 71.229 156.43 70.7291C156.3 69.9345 155.635 69.2295 154.673 69.2295H139.869C139.186 69.2295 138.556 69.5055 138.075 69.9868L121.125 87.1541V87.1579Z" fill="#8878AF"/>
<path d="M115.912 106.697L125.03 113.696C126.519 114.837 127.261 116.695 126.993 118.553C125.698 127.423 120.367 152.663 101.343 155.349C78.2161 158.617 115.916 106.697 115.916 106.697H115.912Z" fill="#D19D9D"/>
<path d="M109.152 151.687C107.783 152.649 106.283 153.757 104.712 154.98L109.208 246.872L113.446 247.316L119.274 247.927C120.217 248.021 121.031 247.26 120.956 246.301C120.217 235.792 116.166 181.918 109.152 151.69V151.687Z" fill="#956374"/>
<path d="M86.9145 129.394L98.3308 130.744L99.5508 135.351L103.621 134.982C103.435 134.631 103.233 134.314 103.047 134.019C99.5694 128.618 96.7191 126.01 94.4619 125.029C89.097 122.698 86.9145 129.394 86.9145 129.394Z" fill="#956374"/>
<path d="M49.4645 267.538C67.003 265.187 76.4047 268.757 80.0683 270.757L80.6615 269.075C80.9562 268.205 82.2359 268.355 82.3068 269.261C82.7694 274.017 83.4522 282.638 83.4373 291.554C90.3952 286.854 99.3491 282.433 106.214 279.326L108.602 243.805L50.4681 249.262C50.4681 249.262 50.3934 257.201 49.4682 267.541L49.4645 267.538Z" fill="#232330"/>
<path d="M16.4907 247.689C16.4348 249.151 17.3787 250.464 18.7665 250.889C29.571 254.202 75.2548 266.486 112.574 250.595C113.186 250.319 113.574 249.688 113.537 249.02C113.518 248.576 113.481 248.002 113.443 247.319C112.723 234.778 109.612 183.436 104.71 154.984C103.359 147.195 101.878 141.126 100.27 138.037C99.8072 137.13 99.3632 136.261 98.9379 135.411C96.9942 131.453 95.5503 127.972 94.461 125.033C93.3492 122 92.6291 119.519 92.1479 117.613C91.8531 116.374 91.6479 115.375 91.536 114.636C91.3495 113.599 91.3122 113.062 91.3122 113.062L100.177 104.273C100.177 104.273 84.5594 84.8486 80.213 77.2983L70.2406 59.9071L70.2033 59.8325L69.1101 57.9449L32.8802 52.1553L19.3747 64.626C17.7667 66.107 17.0242 68.308 17.4682 70.4529C18.58 75.6158 22.225 83.8862 26.4222 86.7511C28.4741 88.1388 30.6604 88.2321 32.7496 86.0498C32.9735 85.826 33.2869 85.8819 33.4324 86.0871C33.507 86.1617 33.5443 86.2736 33.5443 86.3818L32.7683 122.477L31.7125 172.263L17.1325 229.839L16.6698 242.347L16.4833 247.692L16.4907 247.689Z" fill="#F3D5D5"/>
<path d="M99.5492 135.351L104.713 154.98C106.287 153.76 107.783 152.649 109.152 151.686C107.47 144.453 105.638 138.589 103.62 134.981L99.5492 135.351Z" fill="#754C5D"/>
<path d="M16.6791 242.339C31.9269 249.073 66.1011 254.198 76.0549 249.035C88.7099 241.489 90.0977 190.908 88.1017 178.124C87.4712 174.054 89.9895 169.484 93.7092 165.153C96.8915 161.453 100.962 157.901 104.719 154.977L99.5553 135.347L98.9435 135.403L88.2473 136.384L77.7562 137.328L32.7775 122.474L31.7217 172.26L17.1417 229.835L16.6791 242.343V242.339Z" fill="#C394A1"/>
<path d="M66.5015 61.8844C66.5015 61.8844 89.0729 91.004 90.8152 115.222L91.5352 114.629C91.3487 113.592 91.3114 113.054 91.3114 113.054L100.176 104.266C100.176 104.266 84.5586 84.8413 80.2122 77.291L70.2398 59.8998L70.2025 59.8252C68.7027 60.049 67.464 60.713 66.5015 61.8807V61.8844Z" fill="#956374"/>
<path d="M39.825 23.1286C39.8437 23.0913 39.8437 23.0727 39.8623 23.054C40.7876 21.8342 41.4703 20.5546 41.8247 19.1707C49.6893 -5.1964 72.6674 -0.402821 80.2185 2.20474C80.5692 2.3353 80.9386 2.48079 81.2743 2.63C94.0971 7.93838 96.1864 21.1478 96.2983 28.5116C96.317 29.7501 96.2797 30.8245 96.2423 31.6564C96.1491 32.9695 96.0372 33.7267 96.0372 33.7267C114.762 59.627 96.0372 66.8043 96.0372 66.8043C98.1637 69.3559 101.514 68.912 103.476 68.3785C103.939 68.2293 104.308 68.8038 103.976 69.1731C99.1859 74.5561 93.0413 72.8737 89.803 71.3741C89.7843 71.3554 89.7843 71.3368 89.7657 71.3368C89.3404 71.1689 88.971 70.9675 88.6539 70.7996C88.1353 70.5049 87.5085 70.4489 86.9713 70.6504C86.8594 70.6877 86.7325 70.7436 86.6206 70.8182C78.6292 75.7013 70.9661 68.912 68.1382 65.9165C67.489 65.2152 66.4369 65.1032 65.6049 65.5845C60.0721 68.8225 54.1886 65.2338 51.7077 63.3276C51.0063 62.7904 50.0437 62.9023 49.4319 63.5141C43.7685 69.285 36.2397 62.477 33.6879 59.8322C33.1693 59.2763 32.4119 59.0189 31.6508 59.1122C30.595 59.2428 29.5951 59.0935 28.6736 58.7802C24.7525 57.4111 22.2529 52.7854 22.2529 52.7854C6.95286 38.8561 31.9493 33.5626 39.8288 23.1286H39.825ZM96.9997 63.3649C98.5741 62.6822 99.4993 61.2572 99.4993 61.2572C107.457 50.7673 95.5783 42.0344 95.0037 41.6277C98.7234 47.7717 96.1864 56.9448 94.6903 61.1639C94.1717 62.5703 95.6156 63.958 97.0034 63.3649H96.9997ZM21.212 48.0851C21.212 48.0851 21.2307 48.0291 21.268 47.8986C21.2866 47.824 21.3239 47.7307 21.3612 47.6225C21.3612 47.6225 21.3612 47.6101 21.3612 47.5852C21.9544 45.8282 24.1929 39.8707 28.4274 35.7076C28.7035 35.4315 28.9833 35.1704 29.278 34.913C29.2221 34.9317 29.0728 35.0063 28.8527 35.0995C26.5583 36.0993 16.4739 41.0756 21.212 48.0888V48.0851Z" fill="#834654"/>
<path d="M81.269 2.62988C85.2833 6.88628 92.4988 15.5073 92.8159 22.7592C92.9651 25.9226 94.3903 27.6423 96.293 28.5115C96.181 21.1477 94.0918 7.93826 81.269 2.62988Z" fill="#4C2638"/>
<path d="M121.125 87.1579V89.4148L140.256 71.3223C140.659 70.9418 141.193 70.7291 141.749 70.7291H156.426C156.295 69.9345 155.631 69.2295 154.669 69.2295H139.865C139.182 69.2295 138.551 69.5055 138.07 69.9868L121.121 87.1541L121.125 87.1579Z" fill="#766A9B"/>
<path d="M77.6068 55.0239C77.8306 54.4308 78.1254 53.7295 78.4761 52.9349C78.4761 52.9162 78.4947 52.9162 78.4947 52.9162C82.0838 44.8511 91.4294 28.1426 91.4294 28.1426L96.2384 31.6566C96.1452 32.9697 96.0333 33.727 96.0333 33.727C114.758 59.6273 96.0333 66.8046 96.0333 66.8046C98.1598 69.3562 101.51 68.9123 103.472 68.3788C103.935 68.2296 104.304 68.8041 103.972 69.1734C99.182 74.5564 93.0374 72.874 89.7991 71.3743C89.7804 71.3557 89.7804 71.337 89.7618 71.337C89.3364 71.1692 88.9671 70.9677 88.65 70.7999C88.1314 70.5052 87.5046 70.4492 86.9674 70.6506C84.3409 69.1883 80.8973 65.7862 78.9387 62.2162C77.5135 59.6981 76.8121 57.0906 77.6068 55.0202V55.0239ZM96.9995 63.3651C98.5739 62.6825 99.4992 61.2575 99.4992 61.2575C107.457 50.7675 95.5781 42.0346 95.0036 41.628C98.7232 47.772 96.1862 56.9451 94.6901 61.1642C94.1716 62.5706 95.6154 63.9583 97.0033 63.3651H96.9995Z" fill="#68313F"/>
<path d="M78.9368 62.2197C88.8906 63.2754 88.5772 54.8186 89.2227 54.2478L82.5258 50.6592C82.5258 50.6592 80.6194 51.5843 78.4928 52.9161C78.4928 52.9161 78.4742 52.9161 78.4742 52.9347C78.1235 53.7293 77.825 54.4344 77.6049 55.0238C76.8102 57.0941 77.5116 59.7054 78.9368 62.2197Z" fill="#4C2638"/>
<path d="M51.9684 76.8652C51.9684 76.8652 90.0898 91.6265 84.5421 116.296C84.5421 116.296 85.3405 109.171 78.528 100.494C72.9019 93.3238 63.5152 83.4046 51.9684 76.8652Z" fill="#C394A1"/>
<path d="M76.8282 47.3428V54.908C76.8282 55.7026 77.2536 56.4263 77.9214 56.8143C82.861 59.7203 89.6511 56.4823 91.0949 52.6138C91.1135 52.5765 91.1135 52.5579 91.1322 52.5206C91.1881 52.3714 91.2441 52.2445 91.3187 52.114C91.4493 51.8193 91.5948 51.5208 91.7627 51.2448C91.8373 51.0956 91.9119 50.9687 92.0014 50.8382C93.3147 48.6186 95.2025 46.7869 96.5344 45.8058C97.053 45.4365 97.1649 44.7128 96.7918 44.198C95.6278 42.5716 94.2922 39.4417 95.6465 34.9653C99.3847 25.1431 92.8521 17.4435 90.4644 15.0784C90.1323 14.7278 89.5391 14.9479 89.5018 15.4477C89.3526 17.8165 88.6698 23.3487 85.618 28.769C81.4731 34.7452 78.3653 42.2172 77.2535 45.0299C76.9775 45.7685 76.8282 46.5482 76.8282 47.3428Z" fill="#F9BAB7"/>
<path d="M58.0677 167.633C58.8997 167.965 59.7503 168.264 60.6196 168.502C61.0635 168.652 61.5262 168.778 61.9888 168.89C66.4471 170.002 71.1666 169.148 75.0877 166.783C88.1492 158.9 120.492 137.682 123.193 119.254C123.525 116.978 122.637 114.702 120.992 113.113L111.258 103.586L107.908 100.31C106.688 99.1279 104.8 98.9601 103.412 99.9412L102.8 100.366L77.509 118.22L76.5464 118.888H76.5278C75.8786 119.351 75.0839 119.276 74.528 118.795C74.3602 118.664 74.2147 118.5 74.1214 118.295C74.1214 118.276 74.1027 118.258 74.0841 118.239C70.6965 111.468 58.0976 86.937 48.9198 76.1673C45.2934 71.9295 41.4992 72.0974 38.7235 76.9245C36.2798 81.125 31.12 88.8954 30.2508 101.956C28.1615 133.664 38.0221 159.9 58.0602 167.633H58.0677Z" fill="#F3D5D5"/>
<path d="M26.4271 86.751C28.479 88.1387 30.6653 88.232 32.7545 86.0497C32.9784 85.8259 33.2918 85.8818 33.4373 86.087L36.1197 79.2977L45.4803 75.1345L57.3965 82.6625C57.3965 82.6625 57.7472 73.9855 48.9612 71.5421C31.292 68.2109 27.315 80.607 26.4233 86.751H26.4271Z" fill="#C394A1"/>
<path d="M102.808 100.367C102.957 101.754 103.289 103.105 103.752 104.436C105.046 108.062 107.415 111.375 110.005 113.927C113.206 117.09 116.739 119.071 119.033 119.071C121.846 117.776 120.272 114.65 118.421 112.188C117.015 110.357 115.463 108.894 115.463 108.894L111.262 103.586L107.912 100.311C107.654 100.053 107.356 99.848 107.042 99.6988C105.912 99.1057 104.509 99.1616 103.416 99.9376L102.804 100.363L102.808 100.367Z" fill="#956374"/>
<path d="M105.008 105.586C106.138 108.048 107.709 110.342 109.466 112.282C110.149 113.021 111.13 113.427 112.148 113.338C113.312 113.245 114.35 113.133 115.349 112.95C116.387 112.782 117.386 112.543 118.42 112.193C122.453 110.805 125.505 108.917 127.135 107.492C128.336 106.455 128.892 105.81 130.78 104.292C132.336 103.035 133.261 101.923 134.664 100.904C136.921 99.278 139.559 98.8191 140.316 97.6926C140.723 97.0621 140.111 96.2489 139.409 96.4914C136.19 97.5471 131.351 98.7035 131.183 98.3342C130.832 97.5769 142.357 95.2081 143.301 93.4324C143.819 92.47 142.931 91.3956 141.894 91.6941C136.604 93.1377 124.852 93.9137 124.852 93.9137C124.777 91.7127 131.828 86.9564 134.768 84.3862C135.451 83.7744 134.992 82.5918 134.067 82.6665C130.515 83.0171 123.389 88.9746 122.927 87.7361C122.927 87.7361 126.74 84.6473 126.258 83.2782C126.053 82.7224 124.945 82.7038 124.464 83.0395C116.249 88.8851 110.66 94.9544 107.108 99.6175C107.089 99.6548 107.052 99.6734 107.033 99.7107C106.108 100.912 105.59 101.818 105.108 102.669C104.59 103.557 104.571 104.65 104.996 105.594L105.008 105.586Z" fill="#F0BCB9"/>
<path d="M84.9897 388.071L87.6162 409.995H97.182C97.2566 404.981 97.7565 395.584 98.4766 384.095C95.6262 386.038 91.2052 387.997 84.9897 388.071Z" fill="#DDA5A8"/>
<path d="M23.1686 408.364C22.7806 404.369 24.9631 396.654 28.332 387.478C24.8363 387.996 20.4861 387.81 15.3264 386.071L12.1814 406.182L23.1723 408.364H23.1686Z" fill="#DDA5A8"/>
<path d="M0.00625877 441.852C-0.0497034 442.501 0.356939 443.072 0.968792 443.259L13.3476 446.847C14.549 447.198 15.8286 447.034 16.9927 446.571C21.6748 444.702 28.0955 447.996 31.2406 449.921C32.5911 450.753 34.1656 451.197 35.7735 451.253L56.7183 451.921C57.6249 451.958 58.4009 451.309 58.5315 450.421C58.9381 447.996 58.7703 445.907 58.3077 444.15C58.2703 443.982 58.233 443.837 58.177 443.669C57.5838 441.67 56.4012 439.95 54.8454 438.655C53.7001 437.674 52.3645 436.917 50.9244 436.398C49.4059 435.861 47.9472 435.253 46.5593 434.567C43.8582 433.254 41.4332 431.68 39.2693 430.034C34.0499 426.058 30.3527 421.563 28.1851 418.526C26.7226 416.489 25.9093 414.05 25.7974 411.532L25.4839 403.336C25.428 402.023 24.4095 401.004 23.1708 400.892C22.947 400.855 22.7082 400.874 22.4695 400.911L11.5718 402.836C10.3518 403.06 9.46384 404.093 9.44518 405.317L9.24002 415.583C9.20271 417.396 8.51996 419.115 7.40818 420.54C4.44964 424.316 2.63275 429.068 1.54335 433.213C0.580802 436.969 0.174145 440.245 0.00625877 441.852Z" fill="#55323F"/>
<path d="M0.00625877 441.853C-0.0497034 442.502 0.356939 443.073 0.968792 443.259L13.3476 446.848C14.549 447.198 15.8286 447.034 16.9927 446.572C21.6748 444.703 28.0955 447.997 31.2406 449.922C32.5911 450.753 34.1656 451.197 35.7735 451.253L56.7183 451.921C57.6249 451.958 58.4009 451.309 58.5315 450.422C58.9381 447.997 58.7703 445.908 58.3077 444.151C49.9245 444.445 24.8721 444.225 1.54335 433.217C0.580802 436.973 0.174145 440.249 0.00625877 441.856V441.853Z" fill="#272939"/>
<path d="M24.2073 407.79C23.9723 410.326 24.5654 415.53 28.3335 421.208C31.4301 425.875 36.5003 430.922 46.5586 434.559C43.8575 433.246 41.4324 431.672 39.2686 430.027C33.5343 426.382 30.74 422.088 28.1844 418.518C26.7219 416.482 25.9085 414.042 25.7966 411.524L25.4832 403.328C25.4272 402.015 24.4087 400.997 23.1701 400.885C23.782 402.291 24.4834 404.716 24.2073 407.786V407.79Z" fill="#3F232E"/>
<path d="M25.3659 413.814C25.6457 413.684 32.294 410.58 36.5285 410.58C37.3008 410.58 37.9611 410.688 38.4909 410.893C39.1214 411.14 39.543 411.718 39.5877 412.397C39.6325 413.079 39.293 413.71 38.6961 414.042C37.5619 414.672 35.5137 415.586 33.3088 416.135C37.3269 417.515 39.1102 419.391 39.9011 420.805C40.2406 421.406 40.2555 422.141 39.9496 422.771C39.6511 423.383 39.1027 423.793 38.4461 423.894C37.991 423.965 37.5432 423.995 37.103 423.995C31.2605 423.995 26.8918 418.268 26.6941 418.007L27.4365 417.452C27.485 417.515 32.3537 423.864 38.3043 422.98C38.6588 422.924 38.9535 422.7 39.1176 422.364C39.2893 422.01 39.2818 421.596 39.0953 421.257C38.2857 419.813 36.2785 417.817 31.3389 416.504C30.88 416.56 30.4211 416.594 29.9734 416.594C27.7872 416.594 26.1755 415.892 25.1831 414.504L25.4815 413.896L25.3621 413.814H25.3659ZM29.9771 415.668C33.0513 415.668 36.6217 414.135 38.2484 413.232C38.5319 413.076 38.6886 412.785 38.6662 412.46C38.6438 412.136 38.4536 411.875 38.1551 411.755C37.7335 411.591 37.1851 411.505 36.5285 411.505C33.1782 411.505 27.9961 413.661 26.3098 414.404C27.138 415.243 28.3692 415.668 29.9771 415.668Z" fill="#3F232E"/>
<path d="M83.7691 444.711C83.8624 445.352 84.3885 445.818 85.0264 445.86L97.8977 446.531C99.1475 446.598 100.353 446.147 101.382 445.431C105.512 442.543 112.515 444.285 116.018 445.438C117.522 445.942 119.156 446.012 120.734 445.699L141.28 441.57C142.171 441.398 142.779 440.592 142.705 439.697C142.548 437.246 141.91 435.246 141.056 433.642C140.981 433.489 140.91 433.351 140.821 433.202C139.787 431.393 138.243 429.987 136.433 429.08C135.094 428.386 133.624 427.954 132.098 427.778C130.498 427.603 128.934 427.342 127.427 426.991C124.498 426.327 121.779 425.35 119.294 424.242C113.306 421.56 108.676 418.027 105.878 415.569C103.99 413.92 102.64 411.73 101.957 409.305L99.7818 401.397C99.4273 400.132 98.2037 399.371 96.9725 399.546C96.7486 399.561 96.5173 399.632 96.2935 399.726L86.1233 404.086C84.9854 404.583 84.3586 405.791 84.616 406.985L86.7612 417.027C87.138 418.799 86.8657 420.631 86.1083 422.272C84.0862 426.622 83.4072 431.665 83.2916 435.948C83.2132 439.824 83.5639 443.106 83.7691 444.711Z" fill="#55323F"/>
<path d="M83.7691 444.711C83.8624 445.352 84.3885 445.819 85.0264 445.86L97.8977 446.531C99.1475 446.598 100.353 446.147 101.382 445.431C105.512 442.543 112.515 444.285 116.018 445.438C117.522 445.942 119.156 446.013 120.734 445.699L141.28 441.57C142.171 441.398 142.779 440.592 142.705 439.697C142.548 437.246 141.91 435.247 141.056 433.643C132.964 435.844 108.519 441.346 83.2916 435.952C83.2132 439.828 83.5639 443.11 83.7691 444.714V444.711Z" fill="#272939"/>
<path d="M99.5568 406.026C99.9075 408.552 101.672 413.479 106.638 418.146C110.719 421.985 116.804 425.741 127.43 426.987C124.501 426.323 121.781 425.346 119.297 424.238C112.88 422 109.179 418.456 105.881 415.565C103.993 413.916 102.642 411.726 101.959 409.301L99.7844 401.393C99.43 400.128 98.2062 399.367 96.9751 399.543C97.8891 400.774 99.1278 402.971 99.5605 406.026H99.5568Z" fill="#3F232E"/>
<path d="M102.061 411.625C102.303 411.431 108.068 406.895 112.19 405.929C112.94 405.753 113.608 405.705 114.175 405.787C114.847 405.884 115.387 406.35 115.585 406.999C115.787 407.652 115.596 408.342 115.093 408.805C114.134 409.678 112.347 411.036 110.325 412.069C114.552 412.498 116.716 413.915 117.809 415.113C118.275 415.62 118.462 416.333 118.305 417.015C118.156 417.679 117.712 418.202 117.096 418.452C116.667 418.623 116.238 418.757 115.813 418.858C110.123 420.19 104.564 415.613 104.314 415.404L104.908 414.691C104.971 414.744 111.16 419.813 116.753 417.594C117.085 417.459 117.324 417.176 117.406 416.81C117.492 416.422 117.391 416.023 117.13 415.736C116.01 414.512 113.604 413.031 108.497 412.878C108.06 413.035 107.624 413.177 107.187 413.278C105.061 413.777 103.329 413.46 102.046 412.334L102.199 411.673L102.065 411.621L102.061 411.625ZM106.974 412.378C109.97 411.677 113.097 409.372 114.47 408.118C114.708 407.902 114.798 407.585 114.701 407.272C114.608 406.962 114.362 406.749 114.041 406.701C113.593 406.637 113.041 406.678 112.399 406.828C109.138 407.592 104.583 410.875 103.109 411.983C104.109 412.614 105.404 412.744 106.971 412.378H106.974Z" fill="#3F232E"/>
<path d="M2.81875 220.882C2.80009 222.788 3.44928 224.601 4.66926 226.026C5.09457 226.601 5.65047 227.1 6.26232 227.526C18.9732 236.371 59.6241 249.487 70.7792 243.179C71.2232 242.955 71.6298 242.66 71.9805 242.347C80.3637 234.707 86.2472 198.76 88.0417 186.402C88.079 186.144 88.0977 185.864 88.0977 185.607C88.079 183.481 86.7098 181.593 84.6392 180.907C82.2888 180.131 78.9945 179.075 75.1294 177.818C59.2361 172.748 33.4599 164.72 21.3236 162.314C19.9917 162.057 18.7531 162.109 17.5853 162.464C15.3841 163.113 13.515 164.795 11.9219 167.22C3.81861 179.504 2.89336 210.549 2.81875 220.889V220.882Z" fill="#7C5366"/>
<path d="M66.9609 203.494C66.9609 203.494 37.204 208.493 13.6103 191.997L12.6851 194.463C12.6851 194.463 30.5706 206.49 65.7261 208.646L66.9609 203.494Z" fill="#59394B"/>
<path d="M63.7653 220.826C67.9289 221.509 75.6815 194.575 78.3266 187.636C79.9197 183.511 84.5795 184.287 88.0977 185.6C88.079 183.473 86.7098 181.586 84.6392 180.899C82.2888 180.123 78.9945 179.068 75.1294 177.811L74.6294 180.698L63.7691 220.826H63.7653Z" fill="#59394B"/>
<path d="M50.8587 87.9033L69.0426 105.272L70.1992 109.185C70.1992 109.185 55.3207 94.9612 50.2916 88.045C50.1423 87.8399 50.6759 87.7279 50.8587 87.9033Z" fill="#D2AEB3"/>
<path d="M62.5817 222.676H63.6935C64.4881 222.676 65.1932 222.176 65.4507 221.438C66.5438 218.237 69.577 209.228 72.7594 198.813C72.9459 198.238 73.11 197.649 73.2966 197.056C75.5351 189.654 77.7736 181.683 79.4226 174.651C80.4784 170.137 81.2917 166.011 81.6797 162.661C79.18 164.288 76.9416 165.675 75.0911 166.787C73.7965 167.582 72.4087 168.193 70.9835 168.619C70.7261 170.857 70.4089 173.483 70.0209 176.426C69.2822 181.865 68.2637 188.416 66.9132 195.537C66.8012 196.056 66.708 196.593 66.5998 197.145C65.1373 204.546 63.3055 212.518 61.011 220.568C60.6976 221.624 61.4736 222.676 62.5854 222.676H62.5817Z" fill="#6D485B"/>
<path d="M31.0352 95.7787C31.0352 95.7787 31.0539 95.7228 31.0539 95.7041C36.7882 72.0981 47.4844 76.2053 55.293 84.8449C55.3116 84.8635 55.3303 84.8822 55.3303 84.9008C56.5876 86.3072 57.6247 88.0083 58.4567 89.8026C58.4753 89.8399 58.494 89.8959 58.5127 89.9332C58.7179 90.2652 58.9193 90.5823 59.1245 90.9143C60.9564 93.9471 62.7882 97.0918 64.4894 100.11V100.128C68.8731 107.955 72.5368 115.132 74.1298 118.295C74.3164 118.665 74.6298 118.945 74.9805 119.071C69.6715 87.6576 62.3815 78.0182 47.227 72.8553C31.5016 67.5097 31.039 95.7787 31.039 95.7787H31.0352Z" fill="#7C5366"/>
<path d="M11.9212 167.209C14.973 168.339 17.7301 170.059 17.7301 170.059L18.9688 163.232L17.5809 162.456C15.3797 163.105 13.5106 164.788 11.9175 167.212L11.9212 167.209Z" fill="#B07285"/>
<path d="M83.5745 35.4202C83.5745 35.4202 82.0636 41.0196 86.686 40.2884L89.2305 34.2451C89.2305 34.2451 84.0745 35.036 83.5745 35.4202Z" fill="white"/>
<path d="M83.215 36.1066C82.8531 36.2595 83.1367 35.3195 83.4687 35.1143C84.767 34.3085 87.8114 32.891 90.4379 33.2901C91.0721 33.3871 90.796 35.3008 89.8708 35.797C89.6731 35.9014 89.4454 35.6701 89.3261 35.8604C88.7963 36.7184 87.4868 38.8559 86.9645 39.9004C86.3713 41.0904 85.5579 40.0645 87.9755 35.2001C87.9755 35.2001 86.8041 34.5771 83.2113 36.1103L83.215 36.1066Z" fill="#373042"/>
<path d="M86.3849 28.7128C86.3849 28.7128 86.799 28.6158 87.4146 28.4703C88.0264 28.3248 88.8323 28.1196 89.6046 28.0189C89.9889 27.9965 90.3619 27.9257 90.679 27.9667C91.0036 27.9928 91.2498 28.045 91.4364 28.1346C91.552 28.1607 91.5856 28.2502 91.6752 28.2875C91.761 28.3248 91.802 28.3994 91.8468 28.4554C91.9326 28.5636 92.0035 28.627 92.0035 28.627L92.1229 28.7389C92.2908 28.8918 92.5482 28.8807 92.7011 28.7128C92.7907 28.6158 92.8243 28.4852 92.8019 28.3659C92.8019 28.3659 92.7795 28.2353 92.7011 28.0077C92.6601 27.8958 92.6265 27.7466 92.5146 27.6086C92.4101 27.4706 92.3057 27.2728 92.1192 27.1609C91.7797 26.8849 91.3021 26.6573 90.8208 26.6275C90.3358 26.5715 89.8471 26.5827 89.3844 26.6797C88.4592 26.8662 87.6347 27.2281 87.049 27.5564C86.4707 27.8884 86.1162 28.1831 86.1162 28.1831C85.9857 28.2912 85.9708 28.4815 86.079 28.6121C86.1536 28.7016 86.273 28.7389 86.3812 28.7128H86.3849Z" fill="#373042"/>
<path d="M9.25576 205.71C9.18114 206.377 9.71841 206.948 10.4011 206.948H13.1582C14.0088 206.948 14.7139 206.28 14.7662 205.411C15.3034 197.215 16.8554 189.445 18.5791 182.932C18.7096 182.451 18.8365 181.988 18.9671 181.544C20.4109 176.344 21.9293 172.035 23.0747 169.073C23.0934 168.999 23.1306 168.943 23.1493 168.868C23.9999 166.648 24.6678 164.354 25.0931 162.004C25.2423 161.284 25.3505 160.542 25.4438 159.803C26.9622 147.705 28.5142 139.767 29.9021 134.548C30.514 132.235 31.1034 130.46 31.6406 129.091C30.6967 124.096 30.1595 118.787 30.014 113.218C28.6634 116.012 27.3316 119.675 26.0743 123.764V123.782C22.2987 136.029 19.1723 151.958 17.915 158.803C17.7471 159.691 17.5643 160.56 17.3218 161.411C17.083 162.299 16.8032 163.149 16.4525 164C16.0085 165.112 15.5646 166.406 15.1579 167.85C14.0835 171.569 13.1582 176.195 12.3636 180.966C12.2889 181.372 12.2143 181.779 12.1583 182.186C10.5653 192.082 9.56914 202.24 9.25203 205.698L9.25576 205.71Z" fill="#6D485B"/>
<path d="M87.8924 49.8604C87.8924 49.8604 87.967 49.9723 88.0789 50.1551C88.1908 50.323 88.3737 50.543 88.6162 50.8042C89.1534 51.2854 89.9854 51.7666 90.8547 52.0054C91.0039 52.0427 91.168 52.0986 91.3173 52.1173C91.4479 51.8226 91.5933 51.5241 91.7612 51.2481C91.8358 51.0989 91.9105 50.972 92 50.8415C91.7426 50.8042 91.4441 50.7855 91.168 50.7296C90.4107 50.6177 89.7429 50.3043 89.3176 49.9723C88.8923 49.6962 88.6684 49.3792 88.6497 49.3792C88.5192 49.174 88.2431 49.1218 88.0193 49.2672C87.8141 49.3978 87.7618 49.6739 87.8886 49.8604H87.8924Z" fill="#861E25"/>
<path d="M82.6064 10.0462L85.6433 10.5796C86.9938 10.8146 87.7885 12.2359 87.2774 13.508C86.4006 15.6828 84.1286 18.5851 78.219 19.4356C77.4803 19.5438 76.9543 18.7156 77.3833 18.1039C78.5809 16.4028 80.3829 13.5639 81.0097 11.1056C81.1925 10.3856 81.8752 9.91933 82.6101 10.0462H82.6064Z" fill="#BA656B"/>
<path d="M77.3358 9.84856C73.5677 9.43822 64.9346 8.23702 61.6291 5.5847C61.1777 5.22285 60.5285 5.30119 60.189 5.77495L57.2976 9.80753C56.988 10.2403 57.3461 10.8297 57.8722 10.7551L61.7597 10.1955C62.2783 10.1209 62.6849 10.6245 62.5096 11.1206C61.6104 13.6722 60.2413 19.764 67.8073 19.4432C74.6086 19.1559 77.4701 14.5078 78.552 11.8481C78.9214 10.9453 78.3021 9.95301 77.3358 9.84856Z" fill="#BA656B"/>
<path d="M70.2142 47.13C69.7852 47.615 69.4494 48.1932 69.1435 48.7677C67.9832 50.9425 65.3119 56.5568 65.976 61.0519C66.0506 61.5667 65.5582 61.9845 65.0508 61.8652C62.4952 61.2683 56.2237 58.9927 52.4295 50.6515C47.5719 39.9826 49.7694 25.4116 51.3885 25.1803C52.7316 24.99 47.1019 42.1686 58.0779 56.6538C58.5853 57.3215 59.5926 57.3364 60.1335 56.6985C61.9281 54.5834 66.0879 49.8868 70.065 45.996C70.065 45.996 73.7063 42.1499 79.1048 34.1183C79.2913 33.8423 79.5524 33.943 79.4144 34.2452C78.8361 35.5359 77.1535 39.2514 70.2179 47.13H70.2142Z" fill="#4C2638"/>
<path d="M22.2485 52.782C22.2485 52.782 24.7482 57.4077 28.6693 58.7767C25.8376 56.2065 22.2747 51.8009 22.3045 48.9359C22.3717 42.6763 28.6879 35.5549 28.4305 35.7079C24.1923 39.871 21.9538 45.8285 21.3643 47.5855C21.3643 47.5855 21.3643 47.5979 21.3643 47.6228C21.327 47.7347 21.2897 47.828 21.2711 47.8988C21.2338 48.0294 21.2151 48.0854 21.2151 48.0854C16.477 41.0722 29.2811 34.9133 29.2811 34.9133C36.0339 29.0304 38.8469 25.0725 39.8281 23.1289C31.9449 33.5629 6.94849 38.8526 22.2523 52.7857L22.2485 52.782Z" fill="#68313F"/>
<path d="M105.01 105.586C106.14 108.048 107.711 110.342 109.468 112.282C110.151 113.02 111.132 113.427 112.151 113.337C113.315 113.244 114.352 113.132 115.352 112.949C110.931 109.379 108.431 103.698 107.118 99.6094C107.099 99.6467 107.062 99.6653 107.043 99.7026C106.118 100.904 105.599 101.81 105.118 102.661C104.599 103.549 104.581 104.642 105.006 105.586H105.01Z" fill="#DB9795"/>
<path d="M74.7163 118.922C67.3704 123.115 51.686 132.624 53.641 140.592C54.0215 142.147 55.581 142.987 57.0584 142.371C64.423 139.294 66.6167 127.968 76.1602 119.09L74.7163 118.922Z" fill="#C394A1"/>
<path d="M80.6106 144.677C80.4464 145.188 80.965 145.788 81.4463 145.55C88.6244 141.965 80.6031 122.988 77.514 118.221L76.5515 118.888H76.5328C83.7519 131.691 81.6254 141.525 80.6106 144.681V144.677Z" fill="#C394A1"/>
<path d="M39.6127 197.103C37.817 196.571 36.6522 195.158 37.0112 193.947C37.3701 192.736 39.1168 192.186 40.9126 192.718C42.7083 193.25 43.8731 194.663 43.5141 195.874C43.1552 197.085 41.4085 197.635 39.6127 197.103Z" fill="#59394B"/>
<path d="M60.6678 175.639C57.0974 174.236 47.7927 171.069 39.182 172.296C38.4545 172.401 38.2978 173.389 38.9619 173.699C43.9686 176.023 56.8474 181.443 61.1043 177.821C61.8355 177.198 61.5594 175.993 60.6678 175.643V175.639Z" fill="#B07285"/>
<path d="M70.0207 176.422C73.259 176.016 76.6616 175.292 79.4186 174.647C80.4744 170.133 81.2878 166.007 81.6758 162.657C79.1761 164.284 76.9376 165.671 75.0872 166.783C73.7926 167.578 72.4047 168.189 70.9795 168.615C70.7221 170.853 70.405 173.479 70.017 176.422H70.0207Z" fill="#59394B"/>
<path d="M26.0745 123.771V123.79C27.3317 127.584 28.701 131.561 29.906 134.556C30.5179 132.243 31.1073 130.468 31.6445 129.099C30.7006 124.103 30.1634 118.795 30.0179 113.226C28.6673 116.02 27.3355 119.683 26.0782 123.771H26.0745Z" fill="#59394B"/>
<path d="M66.5962 197.145L72.7558 198.809C72.9423 198.234 73.1064 197.645 73.293 197.051L66.9096 195.533C66.7976 196.052 66.7044 196.589 66.5962 197.141V197.145Z" fill="#59394B"/>
<path d="M12.1639 182.193C13.5145 182.417 16.3275 182.824 18.5846 182.932C18.7152 182.451 18.8421 181.988 18.9727 181.544C17.4169 181.544 14.8837 181.47 12.3654 180.97C12.2908 181.376 12.2162 181.783 12.1602 182.19L12.1639 182.193Z" fill="#59394B"/>
<path d="M15.1588 167.858C16.5392 168.025 18.0091 167.712 19.3559 167.925C20.8072 168.152 22.1205 168.906 23.0793 169.077C23.0979 169.003 23.1352 168.947 23.1539 168.872C24.0045 166.653 24.6723 164.358 25.0977 162.008L23.7023 161.661C21.9004 161.214 20.0312 161.094 18.1845 161.314L17.3263 161.415C17.0876 162.303 16.8078 163.154 16.4571 164.004C16.0131 165.116 15.5692 166.41 15.1625 167.854L15.1588 167.858Z" fill="#59394B"/>
<path d="M94.8502 171.712C94.7335 168.618 96.5017 166.039 98.7995 165.952C101.097 165.866 103.055 168.304 103.171 171.398C103.288 174.492 101.52 177.071 99.2222 177.158C96.9243 177.245 94.9669 174.806 94.8502 171.712Z" fill="#D38166"/>
<path d="M4.66739 226.022C5.0927 226.597 5.6486 227.097 6.26045 227.522C18.9713 236.367 59.6222 249.483 70.7773 243.175C68.0949 242.679 64.4275 241.798 60.5661 240.265C56.8987 238.81 52.9478 238.266 49.0193 238.609C41.5539 239.258 26.806 238.158 4.66739 226.026V226.022Z" fill="#59394B"/>
<path d="M58.0664 167.633C58.8984 167.965 59.749 168.264 60.6183 168.503C71.8107 166.801 75.8475 164.765 77.2876 163.601C77.7875 163.213 77.7502 162.138 77.1383 162.176C66.0728 162.825 60.4877 165.802 58.0627 167.633H58.0664Z" fill="#C394A1"/>
</svg>
