<svg width="141" height="472" viewBox="0 0 141 472" fill="none" xmlns="http://www.w3.org/2000/svg">
<path d="M139.947 411.589L96.5648 463.415C96.2253 463.84 95.6097 463.874 95.1695 463.553L94.5912 463.094C93.5876 462.311 92.9907 461.155 92.8862 459.979C92.8191 459.163 92.972 458.327 93.416 457.596C95.2031 454.41 97.9116 448.96 99.8218 441.928C101.762 434.844 102.87 426.174 101.422 416.707C101.404 416.401 101.355 416.061 101.303 415.737C101.098 414.136 100.434 412.025 99.6689 409.947C98.4601 406.594 96.9453 403.288 96.5685 402.147C96.3633 401.535 96.5163 400.905 96.9789 400.461L108.205 389.784C108.835 389.187 109.858 389.173 110.537 389.784C111.525 390.654 113.637 392.746 116.107 394.742C118.524 396.7 121.267 398.558 123.583 399.051C123.736 399.084 123.889 399.118 124.027 399.17C125.031 399.424 125.934 399.886 126.769 400.532C129.53 402.71 135.354 407.172 139.63 409.88C140.241 410.253 140.379 411.074 139.954 411.6L139.947 411.589Z" fill="#2D2E3B"/>
<path d="M104.771 421.94C104.543 422.578 104.521 423.279 104.636 423.962C106.256 433.389 102.626 439.063 99.8125 441.917C101.76 434.836 102.861 426.171 101.42 416.695C101.387 416.386 101.35 416.057 101.294 415.729C106.677 415.054 105.498 419.896 104.771 421.944V421.94Z" fill="#171B21"/>
<path d="M139.627 409.865C140.238 410.242 140.38 411.059 139.944 411.585L96.5692 463.419C96.2222 463.837 95.6029 463.878 95.1701 463.542L94.5956 463.095C93.5771 462.3 92.9802 461.151 92.8906 459.968L124.259 418.669C124.961 417.744 125.054 416.494 124.491 415.439C123.021 412.674 120.775 406.597 124.013 399.155C125.013 399.409 125.927 399.883 126.751 400.524C129.512 402.699 135.336 407.176 139.623 409.869L139.627 409.865Z" fill="#171B21"/>
<path d="M116.108 394.72L99.6701 409.929C99.6366 409.809 99.5843 409.709 99.5507 409.589C98.3569 406.355 96.928 403.236 96.5698 402.128C96.3646 401.517 96.5176 400.886 96.9802 400.442L108.206 389.766C108.837 389.169 109.859 389.154 110.538 389.766C111.15 390.31 112.206 391.314 113.5 392.489C114.284 393.205 115.168 393.97 116.108 394.72Z" fill="#E2B5B1"/>
<path d="M113.5 392.489L99.5507 409.589C98.3569 406.355 96.928 403.236 96.5698 402.128C96.3646 401.517 96.5176 400.886 96.9802 400.442L108.206 389.766C108.837 389.169 109.859 389.154 110.538 389.766C111.15 390.31 112.206 391.314 113.5 392.489Z" fill="#C69491"/>
<path d="M84.3576 421.971L83.7756 433.554L83.4025 441.029L63.9688 438.679L64.4463 433.569L64.5993 431.405L65.1962 422.601L84.3576 421.971Z" fill="#E2B5B1"/>
<path d="M111.847 388.199L94.1522 407.888V391.642C57.5306 383.126 50.2928 364.597 50.2928 364.597C25.8 350.768 15.3762 335.578 15.3762 335.578C14.6113 323.741 22.446 289.459 28.8145 264.014C28.9153 263.622 29.0197 263.23 29.1205 262.857C33.2094 246.559 36.6157 234.159 36.6157 234.159L60.8025 230.615L65.6227 311.938L54.0572 321.831C53.4789 322.324 53.5983 323.245 54.2773 323.585L67.8873 330.344L88.6157 360.337L111.762 384.077C112.87 385.218 112.918 387.005 111.847 388.199Z" fill="#94768A"/>
<path d="M35.812 187.048C25.2016 184.407 19.9561 170.545 18.4712 165.896C18.1653 164.942 17.9153 164.759 18.0272 164.382C18.3145 163.416 20.9559 161.607 20.9559 161.607L22.8288 154.795C26.388 149.822 30.6113 150.094 33.678 151.355C36.2 152.377 37.9348 154.064 37.9348 154.064C40.5576 143.268 51.6791 121.792 51.6791 121.792C61.5919 121.52 48.5788 190.237 35.8045 187.055L35.812 187.048Z" fill="#242230"/>
<path d="M139.985 150.43H135.318L135.284 151.896L134.281 206.174C134.161 212.732 130.654 218.913 124.793 221.875C122.271 223.169 119.137 224.139 115.254 224.43C114.623 224.483 113.978 224.497 113.314 224.516C96.9279 224.736 99.2634 196.281 99.2634 196.281L109.907 100.722L115.22 97.1113C115.22 97.1113 116.447 98.3051 118.455 101.01C123.208 107.377 132.438 122.146 140.698 149.445C140.836 149.938 140.478 150.434 139.981 150.434L139.985 150.43Z" fill="#F98459"/>
<path d="M57.5302 96.5697C57.5302 96.5697 50.1133 112.607 47.6995 127.92C47.11 131.669 46.0206 135.314 44.6552 138.854C40.0775 150.746 29.8699 181.358 21.0242 236.837C20.681 238.982 21.8525 241.093 23.8634 241.914C27.2286 243.283 32.5897 244.757 37.5144 243.041C45.4647 240.273 63.063 183.093 63.063 183.093L72.4833 91.9999L77.7848 80.6035L57.5265 96.5771L57.5302 96.5697Z" fill="#232228"/>
<path d="M92.67 59.1127C92.67 59.1127 82.2274 70.2517 74.5643 73.0794C73.3033 73.5382 71.8893 73.9299 70.4082 74.2544C68.3301 74.7133 66.0991 75.0565 63.9539 75.2915C60.7864 75.631 57.8391 75.7839 55.8618 75.8697C54.4665 75.9219 53.1868 75.0863 52.6608 73.7919C51.7243 71.4604 50.2767 69.3116 49.4261 68.1365C49.3254 67.9985 49.2396 67.8642 49.1538 67.7635C48.8814 67.4054 48.7285 67.2002 48.7285 67.2002L47.7585 65.7342L45.9714 63.0445C45.7326 62.7051 45.3931 62.4477 45.0014 62.347L41.6959 61.4778C40.793 61.239 40.3491 60.2505 40.7595 59.4186L44.9827 50.8162C45.0014 50.764 45.035 50.7155 45.0499 50.6633C45.3558 49.9135 45.3409 49.0629 44.9492 48.3467C44.9492 48.3131 44.9305 48.2945 44.9156 48.2609L38.8008 37.1741L39.3641 27.2438L54.2687 23.8379L79.8173 34.7531L88.4877 54.5616L92.6774 59.1089L92.67 59.1127Z" fill="#EEB5B0"/>
<path d="M51.4817 49.1002L61.9317 42.3556L61.0811 40.8672L50.4669 47.5595C49.329 45.9816 47.9934 44.5939 47.0047 44.5939C46.807 44.5939 46.6242 44.6424 46.4638 44.7394C45.5572 45.284 45.9079 46.862 46.5085 48.3504H44.9453C45.337 49.0666 45.3557 49.9172 45.0461 50.667C45.9899 50.6073 46.9264 50.5476 47.542 50.5066C47.7173 50.8274 47.8703 51.0885 47.9598 51.2377C49.2134 53.3268 51.1422 55.7665 52.448 55.7665C52.6457 55.7665 52.8285 55.718 52.9889 55.621C54.6678 54.6138 52.0339 50.0291 51.4892 49.1226C51.4892 49.1151 51.4817 49.1114 51.478 49.1039L51.4817 49.1002ZM49.0567 50.5775C47.6539 48.2422 47.1764 46.5449 47.1801 45.9331C47.7211 46.2166 48.9933 47.4402 50.396 49.7754C51.8884 52.2599 52.3361 54.0244 52.3398 54.4534C51.8399 54.2407 50.5192 53.0134 49.0567 50.5775Z" fill="#191616"/>
<path d="M54.0396 278.447C54.0396 278.447 51.1743 285.475 46.8802 296.021C44.7275 301.292 42.2167 307.439 39.5267 314.027C38.1613 317.314 36.7473 320.708 35.3146 324.155C35.1318 324.607 34.9528 324.991 34.8073 325.427C34.6953 325.774 34.6245 326.211 34.617 326.61C34.5983 327.427 34.8222 328.251 35.2512 328.956C35.4639 329.307 35.7362 329.624 36.0422 329.9L37.1055 330.818L39.2656 332.672C62.2399 352.525 85.2142 372.375 85.2142 372.375L84.6845 372.994C84.6845 372.994 61.5609 353.32 38.4373 333.642L36.2772 331.788L35.1915 330.848C34.7961 330.49 34.4454 330.079 34.1656 329.624C33.606 328.714 33.3187 327.647 33.3411 326.584C33.356 326.043 33.4269 325.543 33.606 324.998C33.7589 324.547 33.9716 324.081 34.1395 323.667C35.5758 320.216 36.9861 316.821 38.3515 313.539C41.1273 306.988 43.7202 300.87 45.94 295.629C50.3909 285.15 53.3569 278.163 53.3569 278.163L54.0433 278.447H54.0396Z" fill="#896A76"/>
<path d="M84.3599 421.971L83.7779 433.554L64.6016 431.405L65.1985 422.601L84.3599 421.971Z" fill="#C69491"/>
<path d="M105.969 263.872C104.656 265.729 103.652 267.789 103.175 270.019L102.358 273.731L93.0903 316.273C92.665 318.213 92.8179 320.242 93.5156 322.096L96.5972 330.374C96.7502 330.784 96.8696 331.209 96.9554 331.635C97.3285 333.302 97.2091 335.059 96.6159 336.674L94.5714 342.278C96.0189 345.239 97.1084 348.75 97.9105 352.633C103.175 377.925 96.3622 419.072 94.8624 427.551C94.6908 428.42 93.8924 429.017 93.0044 428.931L87.6209 428.368L86.8897 428.301L59.8599 425.507C58.9571 425.406 58.2743 424.604 58.3452 423.701L62.7737 353.193C60.4569 350.656 51.3611 295.882 45.8097 261.175C43.7503 248.417 42.1834 238.371 41.6013 234.625C41.4297 233.588 41.3477 233.025 41.3477 233.025C41.3477 233.025 46.0485 232.514 52.9132 232.189C69.8958 231.406 100.112 231.764 105.204 243.806C109.972 255.079 107.879 261.093 105.969 263.868V263.872Z" fill="#C5AAB3"/>
<path d="M97.5072 27.3337C97.5258 27.5053 97.3207 27.606 97.2162 27.4717C96.2798 26.2966 95.1381 24.3382 91.9371 22.141C91.799 22.0552 91.6647 22.3126 91.7505 22.4469C92.5004 23.5026 94.8508 26.942 95.6007 30.0271C96.0111 31.6461 95.9589 33.1793 95.0038 34.2014C91.8886 37.5401 88.1242 48.8806 88.4786 54.5695L77.9018 52.6632C77.6294 52.6296 77.4429 52.3722 77.4914 52.0999C77.9503 49.664 79.4836 38.9166 71.8691 37.4692C65.9744 36.5665 66.299 45.1166 63.5904 47.7055C63.4374 47.8584 63.1651 47.8062 63.0457 47.6197L59.8931 42.8186C59.673 42.4792 59.3634 42.2554 58.9903 42.136C57.7144 41.7965 54.5954 40.808 52.8568 39.1405C52.6031 38.9017 52.4987 38.5436 52.4987 38.2041L52.5994 35.6824C52.6181 35.2235 52.2412 34.8468 51.7824 34.8654L46.6562 35.037C46.3316 35.0557 46.0257 34.8318 45.925 34.5259L45.0408 31.7841C44.9885 31.411 44.4774 31.3402 44.3245 31.6983C43.1157 34.7983 40.3735 40.2297 36.8628 42.1882C36.5047 42.3747 36.0794 42.1024 36.1316 41.6958L36.4898 39.1069C36.542 38.648 36.2846 38.2041 35.8443 38.0512L31.6882 36.518C31.3487 36.3986 31.2293 35.9733 31.4681 35.6824L34.893 31.5938C35.1131 31.3215 34.9937 30.9112 34.6542 30.8104C33.0873 30.3665 29.4087 29.0907 28.1663 26.7406C27.9947 26.4347 28.0992 26.0579 28.3529 25.8192C29.8004 24.4576 34.9266 19.7386 41.6905 15.2434C41.6905 15.2434 41.6905 15.2248 41.7092 15.2248C52.3718 8.15565 67.0526 1.63488 77.7003 9.60305C77.8384 9.70377 78.0249 9.5844 77.9727 9.41653C77.4951 7.9169 75.6745 3.4031 70.4775 0.34043C70.3059 0.239709 70.3767 -0.0176895 70.5633 0.000962592C73.2532 0.374004 81.7184 2.31755 84.412 12.468C84.5128 12.8597 84.7702 13.1992 85.1433 13.3708C87.5273 14.4936 96.6566 19.2648 97.5072 27.3374V27.3337Z" fill="#443344"/>
<path d="M69.6027 74.2292C67.5247 74.688 65.2937 75.0312 63.1484 75.2662C63.6596 73.8934 64.5363 67.9994 66.5397 67.6039C74.3632 66.0484 75.6989 62.0717 80.3139 63.9966C81.1048 64.3249 79.426 66.4774 80.5713 66.3916C83.0225 66.205 75.6989 70.8531 69.6027 74.2254V74.2292Z" fill="#CB777B"/>
<path d="M58.9125 101.147C58.9125 101.147 48.0185 122.47 36.9492 191.446L45.3249 196.273L74.082 92.3025L71.5823 86.8486L58.9125 101.147Z" fill="#E2C9CD"/>
<path d="M78.6782 51.369C78.6782 51.369 76.8016 53.2454 73.8729 53.4543C72.8955 53.5251 72.1605 54.3719 72.2015 55.3493C72.2314 56.0282 72.2202 56.7743 72.1045 57.3898C72.0411 57.733 72.4291 57.9793 72.7164 57.7741C74.4811 56.5169 77.8015 53.8833 78.6782 51.3652V51.369Z" fill="#CB777B"/>
<path d="M97.8106 74.6279L91.3376 79.4476L89.5841 80.7607L61.7523 101.487C60.3234 102.543 58.2453 102.17 57.376 100.603C56.8836 99.7187 56.2531 98.7973 55.5703 97.9281C54.2795 96.2494 52.7797 94.6752 51.5746 93.4926C50.1159 92.0602 49.8211 89.8518 50.7538 88.0313C51.2239 87.1174 51.7462 86.2146 52.317 85.323C62.0395 70.1552 85.4877 58.8296 92.871 55.5394C94.5685 54.7821 96.598 55.4424 97.4337 57.1025C97.6949 57.6173 97.9076 58.1768 98.0829 58.77C99.9558 64.9028 97.8106 74.6242 97.8106 74.6242V74.6279Z" fill="#3D3A51"/>
<path d="M93.7068 73.076C92.513 75.0867 90.0282 77.3324 89.5843 80.7569L75.243 92.269L62.368 102.591C60.9876 103.613 58.9954 103.289 58.0776 101.841C58.044 101.808 58.0254 101.755 57.9918 101.703C57.4993 100.819 56.2532 98.7897 55.5742 97.9205C62.6777 90.206 85.5699 77.1272 93.7106 73.0723L93.7068 73.076Z" fill="#E2C9CD"/>
<path d="M139.985 150.43H135.318L135.284 151.896L134.28 206.174C134.161 212.732 130.654 218.913 124.793 221.875C122.271 223.17 119.137 224.14 115.253 224.431L101.949 208.763C101.949 208.763 116.716 128.428 119.935 118.789C121.708 113.477 120.189 106.355 118.454 101.01C123.207 107.378 132.437 122.146 140.697 149.445C140.835 149.938 140.477 150.434 139.981 150.434L139.985 150.43Z" fill="#CC5E40"/>
<path d="M105.969 263.872C104.656 265.73 103.653 267.789 103.175 270.02L102.358 273.731C97.6758 265.558 91.4752 260.839 84.7821 258.351L85.3268 243.825L84.4053 243.791L83.7413 257.978C69.9969 253.363 54.4096 257.825 45.8101 261.179C44.8736 255.389 43.1873 250.245 42.4897 245.902C41.6726 240.672 41.9263 236.673 41.6055 234.629L52.9136 232.193C69.8962 231.41 100.112 231.768 105.205 243.81C109.973 255.083 107.88 261.096 105.969 263.872Z" fill="#94768A"/>
<path d="M46.3487 264.532L45.2743 248.995C45.2519 248.513 44.6139 248.36 44.3826 248.782C42.8828 251.531 40.9838 255.597 44.4572 259.57C45.2855 260.518 45.5242 262.092 45.9682 263.267L46.3487 264.532Z" fill="#765467"/>
<path d="M85.328 243.829L84.7833 258.355C84.4438 258.217 84.1005 258.101 83.7461 257.982L84.4102 243.795L85.3317 243.829H85.328Z" fill="#896A76"/>
<path d="M89.4511 403.375C89.4175 405.266 89.3988 407.157 89.2794 409.03L88.9884 414.685L88.5109 420.307C88.3243 423.015 87.9662 425.69 87.6267 428.38L86.8954 428.312C87.1342 425.623 87.4066 422.93 87.5073 420.24L87.7983 414.618L87.9513 408.996C88.0371 407.124 88.0035 405.232 88.0035 403.36C88.0035 401.487 88.0222 399.614 87.9513 397.738C87.8655 393.993 87.6603 390.262 87.4588 386.513L86.9999 380.929L86.3881 375.344L85.6382 369.775C85.3322 367.936 85.0599 366.097 84.7017 364.258C84.0563 360.579 83.3064 356.916 82.4036 353.29C81.926 351.466 81.482 349.679 80.9373 347.892L80.5269 346.497C80.4076 345.952 80.3553 345.389 80.3889 344.83C80.4747 343.722 80.8814 342.651 81.5641 341.782C82.7393 340.282 83.4556 338.428 83.575 336.503C83.6422 335.533 83.5564 334.563 83.3363 333.623C83.0975 332.687 82.6908 331.717 82.3663 330.744C82.0267 329.774 81.6164 328.804 81.3627 327.729C81.109 326.692 80.9523 325.618 80.9038 324.544C80.9038 322.365 81.0903 320.369 81.1425 318.276L82.1461 293.447C82.4521 285.169 82.8438 276.891 83.2355 268.617L83.7466 257.989C84.1048 258.109 84.4443 258.228 84.7838 258.362L84.3921 268.666C84.0862 276.943 83.7616 285.221 83.3698 293.495L82.2804 318.325C82.2133 320.369 82.0417 322.514 82.0939 324.491C82.1461 325.48 82.314 326.468 82.5714 327.42C82.8102 328.375 83.2169 329.311 83.575 330.3C83.9332 331.27 84.3399 332.206 84.6495 333.262C84.9405 334.351 85.0748 335.44 85.0226 336.567C84.9554 338.783 84.1869 340.976 82.8587 342.767C82.3998 343.397 82.1275 344.162 82.0939 344.93C82.0752 345.322 82.1275 345.695 82.2133 346.072L82.6386 347.366C83.2169 349.153 83.7616 350.992 84.2242 352.835C85.1606 356.498 85.9627 360.191 86.6268 363.922C86.9663 365.78 87.2238 367.652 87.511 369.506L88.2273 375.128L88.772 380.765L89.1824 386.42L89.4361 392.075C89.5033 393.967 89.4884 395.839 89.5033 397.731C89.5555 399.622 89.4846 401.513 89.4511 403.386V403.375Z" fill="#A3828D"/>
<path d="M95.0035 34.1943C91.8883 37.533 88.1239 48.8735 88.4783 54.5623L77.9014 52.6561C77.6291 52.6225 77.4426 52.3651 77.4911 52.0928C77.9499 49.6569 79.4833 38.9095 71.8687 37.4621C65.9778 36.5594 66.2986 45.1058 63.5938 47.6947C63.4334 47.8476 63.1685 47.7954 63.0453 47.6126L59.8928 42.8115C59.6652 42.4683 59.3295 42.2221 58.9303 42.114C57.617 41.7596 54.5689 40.7747 52.8565 39.1334C52.6028 38.8946 52.4984 38.5365 52.4984 38.197L52.5991 35.6753C52.6177 35.2202 52.2446 34.8434 51.7858 34.8583L46.6522 35.0299C46.3276 35.0486 46.0217 34.8247 45.9209 34.5188L45.0367 31.777C44.9845 31.4039 44.4734 31.3331 44.3204 31.6912C43.1116 34.7912 40.3695 40.2226 36.8588 42.1811C36.5006 42.3676 36.0753 42.0953 36.1275 41.6887L36.4857 39.0998C36.5379 38.6409 36.2805 38.197 35.8403 38.0441L31.6841 36.5109C31.3409 36.384 31.229 35.955 31.4603 35.6753L34.8852 31.5867C35.1053 31.3144 34.9859 30.9041 34.6464 30.8033C33.0795 30.3594 29.4009 29.0836 28.1585 26.7335C27.9869 26.4276 28.0914 26.0508 28.3451 25.8121C29.7926 24.4505 34.9187 19.7315 41.6827 15.2363C40.1344 17.7096 38.1086 21.5258 37.8698 24.8608C37.7691 26.2709 38.8473 27.4982 40.2501 27.6698C42.1006 27.8974 44.7644 27.9757 46.7492 26.9759C47.2155 26.7409 47.7677 27.017 47.8348 27.5318C48.0475 29.2328 48.7862 32.0642 51.3418 31.5345C54.0242 30.9787 57.7513 27.8638 59.5123 26.2784C59.9227 25.909 60.5718 26.1478 60.6464 26.6924C60.9449 28.8785 61.8403 32.9633 64.3399 32.8103C67.1866 32.6238 72.4507 29.1321 74.0512 25.7747C74.4579 24.9242 75.4727 24.5586 76.2599 25.0772C79.5915 27.2744 87.2919 31.486 95.5929 30.0162C96.0033 31.6352 95.9511 33.1684 94.996 34.1906L95.0035 34.1943Z" fill="#3A2D3D"/>
<path d="M75.2436 92.2689L62.3686 102.591C60.9882 103.613 58.9959 103.289 58.0781 101.841C61.1449 99.4574 69.9832 92.8135 74.087 92.3025C74.531 92.2503 74.9041 92.2353 75.2436 92.2689Z" fill="#AD8491"/>
<path d="M115.579 206.666C115.646 206.819 115.698 206.99 115.75 207.143C116.161 208.251 116.534 209.322 116.892 210.396C116.944 210.534 116.978 210.668 117.03 210.806C122.26 226.918 121.664 239.299 120.947 244.802C120.708 246.626 119.242 248.036 117.422 248.155C67.9772 251.748 45.2714 245.193 38.0672 242.366C36.5003 241.754 35.5788 240.116 35.8698 238.449C38.6455 222.594 41.2534 208.423 43.7045 195.769C43.7045 195.769 54.979 142.189 65.4216 111.365C68.6748 101.826 71.8274 94.4697 74.5322 91.5413C86.0306 79.1787 95.8575 68.7895 101.29 66.4543C106.416 64.2422 115.597 74.8664 119.6 78.5819C121.033 79.895 121.66 81.8534 121.268 83.7597C120.604 86.8746 119.018 91.933 115.22 97.1108C114.575 97.9949 114.012 98.7298 113.534 99.3603C112.564 100.636 111.881 101.419 111.437 101.882C135.247 114.383 124.671 173.972 124.092 186.626C123.529 199.399 115.575 206.669 115.575 206.669L115.579 206.666Z" fill="#3C2E46"/>
<path d="M101.834 215.235L95.7859 220.361L97.267 224.617L95.7859 225.654C95.7859 225.654 87.8952 236.248 76.9863 236.834C76.3633 236.868 75.744 236.954 75.1471 237.136L56.2542 242.926C56.2542 242.926 55.1947 241.143 73.7517 235.465C73.9047 235.417 73.9756 235.238 73.8711 235.118C72.4086 233.421 63.8315 223.155 59.1344 210.475C59.071 210.303 58.8658 210.233 58.7128 210.326L47.4831 217.242C47.2779 216.85 59.1344 206.513 59.9515 203.089C60.8021 199.545 61.4997 179.043 74.6583 178.517C64.1076 179.647 60.0186 200.037 62.5071 207.909C65.0627 216 77.684 232.041 85.5001 228.056C89.7233 225.912 95.4315 220.238 101.834 215.231V215.235Z" fill="#1F202E"/>
<path d="M104.828 161.256C104.828 161.256 87.7928 174.674 74.082 178.52H83.9314C83.9314 178.52 107.559 165.553 104.828 161.256Z" fill="#1F202E"/>
<path d="M119.592 128.13C119.592 128.13 116.201 171.041 71.7074 178.983C70.327 179.229 69.3533 180.475 69.4988 181.87L69.551 182.366C69.6741 183.541 70.7411 184.377 71.9089 184.202C78.6206 183.198 99.1326 179.375 104.117 169.556C104.438 168.922 104.766 168.306 105.206 167.751C108.143 164.054 120.279 146.446 119.592 128.13Z" fill="#584055"/>
<path d="M121.268 83.7558C120.604 86.8707 119.019 91.9291 115.221 97.1069C114.575 97.991 114.012 98.7259 113.534 99.3564L105.938 92.526L88.9072 94.0928L82.9453 105.008C76.2187 103.542 70.0703 107.138 65.418 111.361C68.6712 101.822 71.8238 94.4658 74.5286 91.5374C86.027 79.1748 95.8539 68.7856 101.286 66.4504C106.412 64.2383 115.594 74.8625 119.597 78.578C121.029 79.8911 121.656 81.8495 121.265 83.7558H121.268Z" fill="#1F202E"/>
<path d="M101.953 92.8916C102.386 93.9436 107.396 99.9048 105.837 106.149C105.837 106.149 100.319 102.035 98.0879 105.582C95.8569 109.13 85.6382 120.217 78.3967 146.818L75.2031 116.367L85.0674 94.0853L101.953 92.8916Z" fill="#584055"/>
<path d="M98.0823 58.7697C85.8005 61.2914 61.0875 78.8654 52.3164 85.319C62.1732 69.9385 86.1399 58.5123 93.1688 55.4048C94.5828 54.7781 96.2989 55.2108 97.1123 56.5277C97.5189 57.188 97.8398 57.9452 98.0823 58.7697Z" fill="#E2C9CD"/>
<path d="M139.44 150.43H135.317L133.187 140.007C133.101 139.515 133.784 139.291 134.004 139.735L139.436 150.43H139.44Z" fill="#7A2725"/>
<path d="M115.49 97.3649L111.625 101.979C111.625 101.979 99.1421 94.2313 91.9528 98.4877C84.0845 104.143 81.0514 118.21 79.962 130.625C79.8613 131.886 79.7755 133.147 79.6896 134.356C79.5031 137.523 79.436 140.503 79.4173 143.111C79.4173 144.458 79.4173 145.7 79.436 146.823C79.4546 147.587 79.4695 148.304 79.4882 148.953C79.574 151.404 79.6747 152.851 79.6747 152.851L76.5595 165.505C76.4215 166.034 75.6753 166.068 75.5037 165.538C73.8845 160.804 72.7802 154.809 72.2691 148.218C72.2355 147.759 72.2019 147.282 72.1683 146.823C72.0825 145.595 72.0303 144.353 71.9818 143.111C71.896 140.302 71.9146 137.407 72.049 134.494V134.356C72.0825 133.113 72.1683 131.867 72.2541 130.625C73.1757 118.057 76.1044 105.419 81.3834 96.4621C92.5386 77.5228 115.502 97.3649 115.502 97.3649H115.49Z" fill="#F98459"/>
<path d="M79.9635 130.625C79.8628 131.886 79.7769 133.147 79.6911 134.355L72.043 134.493V134.355C72.0765 133.113 72.1624 131.867 72.2482 130.625H79.9635Z" fill="#3F2642"/>
<path d="M79.4344 146.819H72.1631C72.0773 145.592 72.0251 144.35 71.9766 143.107H79.4195C79.4195 144.454 79.4195 145.696 79.4382 146.819H79.4344Z" fill="#3F2642"/>
<path d="M102.225 214.925C102.14 214.992 102.039 215.063 101.953 215.13L102.225 214.91V214.929V214.925Z" fill="#F98459"/>
<path d="M110.876 243.809H105.205C104.283 243.809 103.466 243.212 103.179 242.343L98.1388 227.134L97.2695 224.613L104.578 219.502C104.918 220.2 105.224 220.916 105.515 221.632C108.428 228.888 111.185 237.964 112.327 241.866C112.618 242.836 111.883 243.806 110.88 243.806L110.876 243.809Z" fill="#F98459"/>
<path d="M86.9473 470.287C87.0331 471.018 86.4362 471.649 85.705 471.634L13.4168 469.231C12.8385 469.213 12.3945 468.739 12.3945 468.176V467.426C12.3945 466.098 12.9728 464.889 13.9092 464.072C14.5397 463.494 15.3568 463.102 16.2597 462.983C20.1248 462.438 26.5119 461.177 33.7012 458.283C40.9576 455.388 48.9975 450.807 56.0488 443.652C56.2875 443.432 56.5412 443.193 56.78 442.936C59.9661 439.836 62.6896 436.124 63.8499 434.453C64.223 433.908 64.8721 433.636 65.5362 433.722L81.9369 436.072C82.8584 436.21 83.5374 437.027 83.4702 437.963C83.2986 440.619 83.2837 446.036 85.5296 450.445C85.5968 450.583 85.6677 450.736 85.7162 450.87C86.1601 451.84 86.3616 452.881 86.3616 453.952C86.3429 457.563 86.3952 465.106 86.9399 470.283L86.9473 470.287Z" fill="#2D2E3B"/>
<path d="M53.8232 449.68C53.133 449.9 52.5286 450.322 52.0287 450.848C45.1379 458.115 37.9598 458.756 33.6992 458.282C40.9556 455.388 48.9955 450.807 56.0468 443.652C56.2855 443.432 56.5392 443.193 56.778 442.936C60.8894 446.871 56.0244 448.975 53.8195 449.676L53.8232 449.68Z" fill="#171B21"/>
<path d="M86.9473 470.287C87.0331 471.018 86.4362 471.649 85.705 471.634L13.4168 469.231C12.8385 469.213 12.3945 468.739 12.3945 468.176V467.426C12.3945 466.098 12.9728 464.889 13.9092 464.072L69.4051 463.401C70.6474 463.386 71.7629 462.673 72.2853 461.547C73.6507 458.607 77.3032 452.952 85.7162 450.874C86.1601 451.844 86.3616 452.885 86.3616 453.955C86.3429 457.566 86.3952 465.109 86.9399 470.287H86.9473Z" fill="#171B21"/>
<path d="M51.328 63.6081L49.1492 67.7638C48.8769 67.4056 48.7239 67.2005 48.7239 67.2005L47.7539 65.7344C48.709 65.5479 49.6454 64.5929 51.1079 63.4365C51.2459 63.3358 51.4138 63.4701 51.328 63.6081Z" fill="#A03D49"/>
<path d="M68.7933 43.2736L71.0169 49.6899C71.3004 50.5069 72.3637 50.6374 72.8338 49.9175C74.4642 47.4218 76.5087 42.7812 69.9723 41.8038C69.1739 41.6844 68.521 42.4902 68.7933 43.2736Z" fill="#E58091"/>
<path d="M44.3633 44.2286C44.3633 43.3781 45.7698 41.8188 48.2135 41.1249C50.2244 40.5542 44.3633 45.5305 44.3633 44.2286Z" fill="#44091D"/>
<path d="M79.6713 152.851L76.5561 165.505C76.418 166.034 75.6718 166.068 75.5002 165.538C73.8811 160.804 72.7767 154.809 72.2656 148.218L79.4885 148.949C79.5743 151.4 79.675 152.847 79.675 152.847L79.6713 152.851Z" fill="#CC5E40"/>
<path d="M104.575 219.51L97.2663 224.62L95.7852 220.364L101.833 215.239C101.866 215.205 101.919 215.171 101.952 215.138C102.038 215.071 102.139 215 102.225 214.933C102.922 216.193 103.791 217.794 104.575 219.514V219.51Z" fill="#CC5E40"/>
<path d="M116.892 210.396L104.577 219.506C103.793 217.786 102.924 216.186 102.227 214.925C106.502 211.605 110.912 208.128 115.579 206.666C115.646 206.819 115.699 206.991 115.751 207.143C116.161 208.251 116.534 209.322 116.892 210.396Z" fill="#1F202E"/>
<path d="M86.5936 112.536C86.5936 112.536 92.9807 95.1858 107.031 106.683C121.081 118.18 123.551 141.346 121.339 147.449C121.339 147.449 123.073 119.43 106.359 107C101.95 103.807 94.7864 98.9797 86.5898 112.536H86.5936Z" fill="#1F202E"/>
<path d="M97.9148 352.637C93.4527 349.198 87.3715 347.053 85.2076 343.016C82.9952 338.913 92.1059 333.922 96.9597 331.639C97.3328 333.306 97.2134 335.063 96.6202 336.678L94.5757 342.282C96.0232 345.244 97.1126 348.754 97.9148 352.637Z" fill="#94768A"/>
<path d="M44.7207 258.101C44.7207 258.101 43.6126 258.426 41.9599 258.985C40.3071 259.53 38.1283 260.313 35.9831 261.13C33.8193 261.966 31.674 262.816 30.0735 263.499C29.596 263.686 29.1707 263.857 28.8125 264.01C28.9132 263.619 29.0177 263.227 29.1184 262.854C29.305 262.768 29.5102 262.701 29.7303 262.615C31.3495 262.018 33.4947 261.168 35.6399 260.284C37.7851 259.414 39.8968 258.497 41.4637 257.747C43.0493 257.049 44.0864 256.52 44.0864 256.52L44.7169 258.105L44.7207 258.101Z" fill="#765467"/>
<path d="M65.3486 363.033C64.2928 362.847 63.6287 361.795 63.9272 360.769C64.7442 357.945 66.7066 352.719 69.7734 354.054C73.5713 355.711 71.5791 364.13 65.3486 363.033Z" fill="#94768A"/>
<path d="M1.88839 122.993C1.31384 122.952 0.123715 123.937 0.00059783 124.511C-0.122519 125.086 18.8113 147.017 18.8113 147.017L21.852 144.1C21.852 144.1 18.386 140.921 14.4575 136.624C9.01051 130.666 2.53382 123.038 1.88839 122.989V122.993Z" fill="#4F3857"/>
<path d="M29.0265 157.641C28.9257 157.913 28.7541 158.271 28.5526 158.696C28.5526 158.696 28.5191 158.749 28.4668 158.831C27.2245 161.36 24.5756 165.754 23.71 165.198C22.9788 164.736 20.1956 162.789 17.446 159.748C16.2783 158.458 15.1031 156.947 14.1181 155.283C10.7902 149.699 8.48088 145.636 6.29089 142.905C4.10091 140.171 4.15314 136.829 4.15314 136.829C4.15314 136.829 3.06747 134.825 2.18326 132.837C1.43337 131.121 0.825254 129.409 1.23191 128.984C2.09746 128.085 3.4704 128.984 3.4704 128.984C4.09718 129.405 5.74994 131.449 7.44746 133.531L7.5034 133.606C9.59266 136.165 11.7155 138.735 12.0102 138.336C12.0289 138.313 12.0401 138.283 12.0438 138.239C12.2117 136.81 12.637 136.288 14.7262 134.993C16.8155 133.721 19.2778 134.911 20.2068 136.116C21.1246 137.325 19.3749 138.645 18.2892 138.425C17.1849 138.205 16.0507 139.451 16.323 140.809C16.3342 140.861 16.3454 140.917 16.3566 140.969C16.3566 140.969 16.3566 140.981 16.3678 141.007C16.7222 142.398 17.9721 144.472 18.4421 142.853C18.4683 142.76 18.4981 142.674 18.5354 142.588C18.5354 142.588 18.5354 142.581 18.5354 142.577C19.1435 141.033 20.8896 140.007 21.5648 140.07C22.2774 140.123 23.9264 142.581 23.2623 143.961C23.2101 144.077 23.1616 144.178 23.1094 144.301C22.5647 145.539 22.4304 146.811 24.0272 148.613C24.1279 148.729 24.2324 148.852 24.348 148.986L24.4003 149.038C26.303 151.247 29.7353 155.846 29.019 157.644L29.0265 157.641Z" fill="#EDADA6"/>
<path d="M11.88 147.017C10.0295 145.592 4.15347 136.833 4.15347 136.833C4.15347 136.833 3.0678 134.829 2.18359 132.845C2.20225 132.863 2.21718 132.897 2.23583 132.931C4.78397 137.295 13.7454 148.445 11.88 147.02V147.017Z" fill="#CC6664"/>
<path d="M18.621 146.774C19.0388 146.789 18.9232 147.733 18.759 148.061C18.5949 148.389 18.0763 148.553 17.7181 148.061C17.36 147.569 17.9084 146.748 18.621 146.774Z" fill="#CC6664"/>
<path d="M24.3593 148.986C23.0685 147.882 22.2887 147.084 22.2365 146.285C22.1843 145.453 23.1207 144.301 23.1207 144.301C22.576 145.539 22.4417 146.811 24.0385 148.613C24.1392 148.733 24.2437 148.852 24.3593 148.986Z" fill="#CC6664"/>
<path d="M28.4663 158.831C27.2277 161.36 24.5788 165.758 23.7132 165.199C22.982 164.74 20.1988 162.789 17.4492 159.749C24.2729 164.315 27.8917 159.682 28.4663 158.831Z" fill="#CC6664"/>
<path d="M13.5071 142.862C12.4737 140.493 8.06015 134.367 7.51172 133.606C9.60097 136.166 11.7238 138.736 12.0185 138.337C12.1081 138.766 12.2648 139.221 12.5259 139.639C13.3989 141.026 14.0257 143.757 13.5071 142.862Z" fill="#CC6664"/>
<path d="M18.5428 142.592C18.3786 143.208 18.554 144.909 17.6063 144.208C16.7333 143.559 16.4386 141.294 16.3789 141.011C16.7333 142.402 17.9832 144.476 18.4532 142.857C18.4794 142.764 18.5092 142.678 18.5465 142.592H18.5428Z" fill="#CC6664"/>
<path d="M19.7527 162.505C20.6743 162.863 21.9502 163.613 23.4985 165.128C23.9089 165.519 24.5729 165.452 24.8938 164.99L29.423 158.67C29.8483 158.073 29.8819 157.256 29.5088 156.611L26.5092 151.433L27.8561 150.889C29.27 152.608 32.8143 157.156 32.4711 158.808C32.1651 160.256 29.2365 164.717 26.4085 166.661C25.0281 167.597 23.1552 167.377 21.98 166.183L18.9805 163.184L19.7453 162.501L19.7527 162.505Z" fill="#181921"/>
</svg>
