<svg width="20" height="16" viewBox="0 0 20 16" fill="none" xmlns="http://www.w3.org/2000/svg">
<path fill-rule="evenodd" clip-rule="evenodd" d="M14 1.5C14 1.22386 13.6866 1 13.3 1H7.7C7.3134 1 7 1.22386 7 1.5C7 1.77614 7.3134 2 7.7 2H13.3C13.6866 2 14 1.77614 14 1.5Z" fill="#666666"/>
<path d="M9.99996 3.5C11.3792 3.5 12.4974 2.38071 12.4974 1H13.3733C13.8213 1 14.2562 1.15069 14.6083 1.42789L18.6185 4.58473C19.0508 4.925 19.127 5.55098 18.7891 5.98526L17.5338 7.59865C17.191 8.03918 16.5543 8.11337 16.1196 7.76341L14.6745 6.6V12C14.6745 13.6569 13.3328 15 11.6776 15H8.42357C6.76842 15 5.42666 13.6569 5.42666 12V6.6L3.87573 7.79195C3.44044 8.12649 2.81706 8.04689 2.47961 7.61367L1.21123 5.98535C0.87296 5.55109 0.949079 4.92479 1.3815 4.58439L5.39124 1.42788C5.74336 1.15069 6.17832 1 6.62627 1H7.50253C7.50253 2.38071 8.62067 3.5 9.99996 3.5Z" fill="white" stroke="#666666" stroke-linecap="round" stroke-linejoin="round"/>
</svg>
