<svg width="70" height="70" viewBox="0 0 70 70" fill="none" xmlns="http://www.w3.org/2000/svg">
<rect width="70" height="70" rx="35" fill="#01DB5B"/>
<path fill-rule="evenodd" clip-rule="evenodd" d="M61 43.9952C61 48.4173 57.3233 52 52.7882 52H17.2118C12.6767 52 9 48.4173 9 43.9952V25.0048C9 20.5827 12.6767 17 17.2118 17H52.7841C57.3213 17 60.998 20.5827 60.998 25.0048L61 43.9952Z" fill="#FEFEFE"/>
<path fill-rule="evenodd" clip-rule="evenodd" d="M41 50.4413L36.0451 50.1306V50L35.0047 50.0653L33.9549 50V50.1306L29 50.4413L33.7328 58.157C33.7328 58.157 33.7746 58.2322 33.86 58.3371C33.9791 58.5403 34.1466 58.7081 34.3461 58.8242C34.5456 58.9404 34.7705 59.0009 34.9991 59C35.226 59.0011 35.4494 58.9416 35.6481 58.8273C35.8468 58.713 36.0142 58.5477 36.1343 58.347C36.1865 58.2893 36.2311 58.2248 36.2672 58.155L41 50.4413Z" fill="#FEFEFE"/>
<path fill-rule="evenodd" clip-rule="evenodd" d="M20.102 37.8453C18.9932 37.8453 18.0915 36.9489 18.0915 35.8444C18.0915 34.7399 18.9932 33.8456 20.102 33.8456C21.2128 33.8456 22.1126 34.7399 22.1126 35.8444C22.1126 36.9489 21.2128 37.8433 20.102 37.8433M20.7928 31.0018C20.7928 31.0018 19.3973 31.0018 18.1313 32.2259V27.2906H15V40.2584H18.1651V39.2425C18.1651 39.2425 18.9096 40.5819 20.7928 40.5819C20.7928 40.5819 25.204 40.4212 25.204 35.7434C25.204 35.7434 25.0408 31.0018 20.7928 31.0018ZM26.2093 27V30.0003C26.2093 30.0003 27.6366 29.9385 27.6366 32.5824V40.2584H30.6544V31.8714C30.6544 31.8714 30.7858 27 26.2093 27ZM38.0318 37.8453C36.921 37.8453 36.0212 36.9489 36.0212 35.8444C36.0212 34.7399 36.921 33.8456 38.0318 33.8456C39.1425 33.8456 40.0423 34.7399 40.0423 35.8444C40.0423 36.9489 39.1425 37.8433 38.0318 37.8433M38.0318 31.043C38.0318 31.043 32.8601 31.043 32.8601 35.8444C32.8601 35.8444 32.6928 40.5819 38.0318 40.5819C38.0318 40.5819 43.3229 40.5737 43.3229 35.8423C43.3229 35.8423 43.4941 31.041 38.0318 31.041M50.0871 37.8453C48.9763 37.8453 48.0765 36.9489 48.0765 35.8444C48.0765 34.7399 48.9763 33.8456 50.0871 33.8456C51.1979 33.8456 52.0976 34.7399 52.0976 35.8444C52.0976 36.9489 51.1979 37.8433 50.0871 37.8433V37.8453ZM51.9583 31.3542V32.2259C51.9583 32.2259 51.0585 31.041 49.3306 31.041C49.3306 31.041 44.9035 30.8555 44.9035 35.8114C44.9035 35.8114 44.8537 40.4273 49.2092 40.4273C49.2092 40.4273 50.9869 40.4995 51.9583 39.2425V39.9678C51.9583 39.9678 52.1773 42.2428 49.9637 42.2428H49.2092V45H50.4255C50.4255 45 55 45.0494 55 40.1368V31.3583H51.9583V31.3542Z" fill="url(#paint0_linear_802_1010)"/>
<defs>
<linearGradient id="paint0_linear_802_1010" x1="2015" y1="27" x2="2015" y2="1827" gradientUnits="userSpaceOnUse">
<stop stop-color="#F5AB59"/>
<stop offset="1" stop-color="#E8722D"/>
</linearGradient>
</defs>
</svg>
