<svg width="18" height="14" viewBox="0 0 18 14" fill="none" xmlns="http://www.w3.org/2000/svg">
<path d="M8.99996 2.5C10.3792 2.5 11.4974 1.38071 11.4974 0H12.3733C12.8213 0 13.2562 0.150694 13.6083 0.427885L17.6185 3.58473C18.0508 3.925 18.127 4.55098 17.7891 4.98526L16.5338 6.59865C16.191 7.03918 15.5543 7.11337 15.1196 6.76341L13.6745 5.6V11C13.6745 12.6569 12.3328 14 10.6776 14H7.42357C5.76842 14 4.42666 12.6569 4.42666 11V5.6L2.87573 6.79195C2.44044 7.12649 1.81706 7.04689 1.47961 6.61367L0.211229 4.98535C-0.12704 4.55109 -0.0509213 3.92479 0.381497 3.58439L4.39124 0.427885C4.74336 0.150694 5.17832 0 5.62627 0H6.50253C6.50253 1.38071 7.62067 2.5 8.99996 2.5Z" fill="#666666"/>
</svg>
