<svg width="70" height="70" viewBox="0 0 70 70" fill="none" xmlns="http://www.w3.org/2000/svg">
<rect width="70" height="70" rx="35" fill="#1877F2"/>
<g clip-path="url(#clip0_802_921)">
<path d="M59 35C59 21.7452 48.2548 11 35 11C21.7452 11 11 21.7452 11 35C11 46.9789 19.7764 56.908 31.25 58.7084V41.9375H25.1562V35H31.25V29.7125C31.25 23.6975 34.8331 20.375 40.3152 20.375C42.9402 20.375 45.6875 20.8438 45.6875 20.8438V26.75H42.6613C39.68 26.75 38.75 28.6002 38.75 30.5V35H45.4062L44.3422 41.9375H38.75V58.7084C50.2236 56.908 59 46.9789 59 35Z" fill="white"/>
</g>
<defs>
<clipPath id="clip0_802_921">
<rect width="48" height="48" fill="white" transform="translate(11 11)"/>
</clipPath>
</defs>
</svg>
