<svg width="32" height="26" viewBox="0 0 32 26" fill="none" xmlns="http://www.w3.org/2000/svg">
<path d="M30.6992 20.1767L18.3786 11.0171C18.0813 10.7947 17.7654 10.6127 17.4123 10.4914V8.38849C18.5459 7.88299 19.3821 6.81134 19.698 5.43639C20.0697 3.83902 19.6423 2.16077 18.583 1.08911C17.6725 0.13878 16.3345 -0.225177 15.108 0.13878C14.1417 0.421859 13.3055 1.10933 12.8223 2.03945C12.5436 2.56517 12.4321 3.09088 12.4692 3.59638C12.5621 4.52649 13.0081 4.78935 13.2683 4.87023C14.0488 5.11287 14.7921 4.22319 15.0708 3.83902C15.5168 3.2122 15.8885 2.9089 16.223 2.96956C16.4274 2.96956 16.6504 3.15154 16.7805 3.37396C16.9477 3.65704 17.0035 4.14232 16.9477 4.62759C16.892 5.01177 16.7247 5.37573 16.4832 5.55771C16.3717 5.63859 16.2416 5.71947 16.1115 5.78013C16 5.84079 15.8885 5.90144 15.7956 5.9621C15.108 6.38672 14.6992 7.15508 14.6992 8.06497V10.5116C14.3461 10.6531 14.0116 10.8351 13.6957 11.0575L1.3194 20.116C0.501742 20.7024 0 21.6932 0 22.7648C0 24.5442 1.33798 26 2.97329 26H29.0825C30.6992 26 32 24.5644 32 22.8255C32 21.7538 31.5168 20.7631 30.6992 20.1767ZM29.2683 22.8255C29.2683 22.9266 29.1754 23.0277 29.0825 23.0277H2.97329C2.84321 23.0277 2.73171 22.9064 2.73171 22.7648C2.73171 22.7042 2.76887 22.6233 2.82462 22.5828L15.2009 13.4637C15.4425 13.2817 15.7213 13.1806 16 13.1806C16.2787 13.1806 16.5575 13.2817 16.7991 13.4637L29.1382 22.6435C29.1382 22.6435 29.2311 22.7648 29.2311 22.8255H29.2683Z" fill="black"/>
</svg>
