<svg width="98" height="51" viewBox="0 0 98 51" fill="none" xmlns="http://www.w3.org/2000/svg">
<path d="M21.3438 32.8125L19.5938 39H0.4375V38.3438C1.08333 38.3021 1.60417 38.2292 2 38.125C2.41667 38.0208 2.72917 37.8542 2.9375 37.625C3.16667 37.3958 3.32292 37.0833 3.40625 36.6875C3.48958 36.2917 3.53125 35.7812 3.53125 35.1562V19.2812C3.53125 18.6562 3.48958 18.1458 3.40625 17.75C3.34375 17.3542 3.19792 17.0417 2.96875 16.8125C2.73958 16.5833 2.41667 16.4167 2 16.3125C1.60417 16.2083 1.08333 16.1354 0.4375 16.0938V15.375H10.4688V16.0938C9.76042 16.1354 9.1875 16.2083 8.75 16.3125C8.3125 16.3958 7.97917 16.5625 7.75 16.8125C7.52083 17.0417 7.36458 17.3542 7.28125 17.75C7.19792 18.1458 7.15625 18.6562 7.15625 19.2812V36.1562C7.15625 36.4688 7.1875 36.7292 7.25 36.9375C7.33333 37.125 7.48958 37.2708 7.71875 37.375C7.94792 37.4792 8.26042 37.5521 8.65625 37.5938C9.05208 37.6146 9.58333 37.625 10.25 37.625H12.625C14.1458 37.625 15.4062 37.4479 16.4062 37.0938C17.4271 36.7396 18.2604 36.1979 18.9062 35.4688C19.1562 35.1771 19.3958 34.8125 19.625 34.375C19.875 33.9375 20.1458 33.4167 20.4375 32.8125H21.3438Z" fill="black"/>
<path d="M31.0625 14.9062C32.75 14.9062 34.3542 15.2604 35.875 15.9688C37.4167 16.6771 38.7188 17.6562 39.7812 18.9062C40.6562 19.9688 41.3333 21.2083 41.8125 22.625C42.2917 24.0417 42.5312 25.5625 42.5312 27.1875C42.5312 29 42.2396 30.6667 41.6562 32.1875C41.0938 33.6875 40.2917 34.9792 39.25 36.0625C38.2292 37.1458 37 37.9896 35.5625 38.5938C34.1458 39.1979 32.5833 39.5 30.875 39.5C29.1458 39.5 27.5625 39.1979 26.125 38.5938C24.6875 37.9896 23.4583 37.1458 22.4375 36.0625C21.4167 34.9583 20.625 33.6458 20.0625 32.125C19.5 30.6042 19.2188 28.9271 19.2188 27.0938C19.2188 25.3021 19.5104 23.6562 20.0938 22.1562C20.6771 20.6562 21.4896 19.375 22.5312 18.3125C23.5729 17.2292 24.8125 16.3958 26.25 15.8125C27.7083 15.2083 29.3125 14.9062 31.0625 14.9062ZM30.75 16.1562C29.7708 16.1562 28.8333 16.3854 27.9375 16.8438C27.0417 17.2812 26.2604 17.8958 25.5938 18.6875C25.2396 19.1042 24.9167 19.625 24.625 20.25C24.3542 20.875 24.1146 21.5625 23.9062 22.3125C23.6979 23.0417 23.5417 23.8229 23.4375 24.6562C23.3333 25.4896 23.2812 26.3229 23.2812 27.1562C23.2812 29.3021 23.5625 31.2083 24.125 32.875C24.6875 34.5417 25.4688 35.7917 26.4688 36.625C27.7188 37.6875 29.1979 38.2188 30.9062 38.2188C31.8021 38.2188 32.6458 38.0521 33.4375 37.7188C34.25 37.3854 34.9583 36.9167 35.5625 36.3125C37.5 34.4167 38.4688 31.3125 38.4688 27C38.4688 24.9375 38.1771 23.1042 37.5938 21.5C37.0312 19.8958 36.2396 18.6562 35.2188 17.7812C33.9062 16.6979 32.4167 16.1562 30.75 16.1562ZM44.3325 14.9062C46.02 14.9062 47.6242 15.2604 49.145 15.9688C50.6867 16.6771 51.9888 17.6562 53.0513 18.9062C53.9263 19.9688 54.6033 21.2083 55.0825 22.625C55.5617 24.0417 55.8013 25.5625 55.8013 27.1875C55.8013 29 55.5096 30.6667 54.9263 32.1875C54.3638 33.6875 53.5617 34.9792 52.52 36.0625C51.4992 37.1458 50.27 37.9896 48.8325 38.5938C47.4158 39.1979 45.8533 39.5 44.145 39.5C42.4158 39.5 40.8325 39.1979 39.395 38.5938C37.9575 37.9896 36.7283 37.1458 35.7075 36.0625C34.6867 34.9583 33.895 33.6458 33.3325 32.125C32.77 30.6042 32.4888 28.9271 32.4888 27.0938C32.4888 25.3021 32.7804 23.6562 33.3638 22.1562C33.9471 20.6562 34.7596 19.375 35.8013 18.3125C36.8429 17.2292 38.0825 16.3958 39.52 15.8125C40.9783 15.2083 42.5825 14.9062 44.3325 14.9062ZM44.02 16.1562C43.0408 16.1562 42.1033 16.3854 41.2075 16.8438C40.3117 17.2812 39.5304 17.8958 38.8638 18.6875C38.5096 19.1042 38.1867 19.625 37.895 20.25C37.6242 20.875 37.3846 21.5625 37.1763 22.3125C36.9679 23.0417 36.8117 23.8229 36.7075 24.6562C36.6033 25.4896 36.5513 26.3229 36.5513 27.1562C36.5513 29.3021 36.8325 31.2083 37.395 32.875C37.9575 34.5417 38.7388 35.7917 39.7388 36.625C40.9888 37.6875 42.4679 38.2188 44.1763 38.2188C45.0721 38.2188 45.9158 38.0521 46.7075 37.7188C47.52 37.3854 48.2283 36.9167 48.8325 36.3125C50.77 34.4167 51.7388 31.3125 51.7388 27C51.7388 24.9375 51.4471 23.1042 50.8638 21.5C50.3013 19.8958 49.5096 18.6562 48.4888 17.7812C47.1763 16.6979 45.6867 16.1562 44.02 16.1562Z" fill="black"/>
<path d="M66.7188 15.375H76.0625V16.0938C75.4583 16.1354 74.9479 16.1979 74.5312 16.2812C74.1146 16.3438 73.7188 16.4688 73.3438 16.6562C72.9688 16.8438 72.5729 17.1146 72.1562 17.4688C71.7604 17.8021 71.2604 18.2604 70.6562 18.8438L63.9062 25.5625L72.1875 34.4688C73 35.3438 73.6562 36.0312 74.1562 36.5312C74.6771 37.0312 75.125 37.4167 75.5 37.6875C75.8958 37.9583 76.2604 38.1354 76.5938 38.2188C76.9271 38.2812 77.3229 38.3229 77.7812 38.3438V39H66.9375V38.3438L67.9062 38.2812C68.9062 38.2604 69.4062 38 69.4062 37.5C69.4062 37.2917 69.2917 36.9896 69.0625 36.5938C68.8333 36.1979 68.5104 35.7396 68.0938 35.2188C67.6979 34.6771 67.2083 34.0833 66.625 33.4375C66.0625 32.7917 65.4375 32.125 64.75 31.4375L60.9688 27.6875L60.0625 28.4375V35.1562C60.0625 35.8021 60.0938 36.3229 60.1562 36.7188C60.2396 37.1146 60.3854 37.4271 60.5938 37.6562C60.8229 37.8854 61.1458 38.0521 61.5625 38.1562C62 38.2396 62.5625 38.3021 63.25 38.3438V39H53.2188V38.3438C53.9271 38.3021 54.4896 38.2292 54.9062 38.125C55.3229 38.0208 55.6354 37.8438 55.8438 37.5938C56.0729 37.3229 56.2188 36.9688 56.2812 36.5312C56.3646 36.0729 56.4062 35.4688 56.4062 34.7188V19.2812C56.4062 18.6562 56.3646 18.1458 56.2812 17.75C56.2188 17.3542 56.0729 17.0417 55.8438 16.8125C55.6146 16.5833 55.2917 16.4167 54.875 16.3125C54.4583 16.2083 53.9062 16.1354 53.2188 16.0938V15.375H63.3438V16.0938C62.6146 16.1354 62.0312 16.2083 61.5938 16.3125C61.1771 16.3958 60.8542 16.5521 60.625 16.7812C60.3958 17.0104 60.2396 17.3229 60.1562 17.7188C60.0938 18.1146 60.0625 18.6354 60.0625 19.2812V26.5938L66.375 20.8438C67.375 19.9271 68.0833 19.1875 68.5 18.625C68.9375 18.0625 69.1562 17.5833 69.1562 17.1875C69.1562 16.8333 69.0417 16.5729 68.8125 16.4062C68.6042 16.2396 68.2188 16.1354 67.6562 16.0938H66.7188V15.375Z" fill="black"/>
<path d="M85.4375 26.7812C86.0417 26.5729 86.5625 26.375 87 26.1875C87.4583 26 87.8542 25.8125 88.1875 25.625C88.5417 25.4375 88.8542 25.2396 89.125 25.0312C89.3958 24.8229 89.6667 24.5833 89.9375 24.3125C90.375 23.8542 90.7188 23.3229 90.9688 22.7188C91.2188 22.0938 91.3438 21.4688 91.3438 20.8438C91.3438 19.6979 90.9792 18.7812 90.25 18.0938C89.5417 17.3854 88.5938 17.0312 87.4062 17.0312C86.2812 17.0312 85.3021 17.3333 84.4688 17.9375C83.6354 18.5208 82.8542 19.4792 82.125 20.8125L81.5625 20.6562C81.7708 20.1354 81.9583 19.6771 82.125 19.2812C82.3125 18.8854 82.4896 18.5312 82.6562 18.2188C82.8438 17.9062 83.0417 17.625 83.25 17.375C83.4583 17.125 83.6979 16.875 83.9688 16.625C85.2812 15.4792 86.8229 14.9062 88.5938 14.9062C90.2604 14.9062 91.5938 15.3542 92.5938 16.25C93.6146 17.125 94.125 18.3021 94.125 19.7812C94.125 20.2604 94.0625 20.7083 93.9375 21.125C93.8333 21.5417 93.6562 21.9479 93.4062 22.3438C93.1562 22.7188 92.8125 23.1042 92.375 23.5C91.9583 23.875 91.4375 24.2812 90.8125 24.7188C91.6042 25.0521 92.2083 25.3542 92.625 25.625C93.0417 25.875 93.4375 26.1979 93.8125 26.5938C94.3125 27.1354 94.6875 27.8125 94.9375 28.625C95.2083 29.4167 95.3438 30.2812 95.3438 31.2188C95.3438 32.4688 95.1042 33.6146 94.625 34.6562C94.1667 35.6979 93.4896 36.5833 92.5938 37.3125C91.7188 37.9792 90.6458 38.5104 89.375 38.9062C88.125 39.3021 86.8333 39.5 85.5 39.5C84.2708 39.5 83.3021 39.3229 82.5938 38.9688C81.8854 38.5938 81.5312 38.0938 81.5312 37.4688C81.5312 37.0938 81.6458 36.7917 81.875 36.5625C82.125 36.3333 82.4583 36.2188 82.875 36.2188C83.1875 36.2188 83.5104 36.2917 83.8438 36.4375C84.1771 36.5625 84.6042 36.7917 85.125 37.125C85.7917 37.5417 86.3333 37.8333 86.75 38C87.1875 38.1458 87.6562 38.2188 88.1562 38.2188C88.8229 38.2188 89.4375 38.0833 90 37.8125C90.5625 37.5417 91.0521 37.1771 91.4688 36.7188C91.8854 36.2396 92.2083 35.6771 92.4375 35.0312C92.6667 34.3646 92.7812 33.6562 92.7812 32.9062C92.7812 31.6562 92.4479 30.5521 91.7812 29.5938C91.1354 28.6354 90.2396 27.9688 89.0938 27.5938C88.6979 27.4479 88.2396 27.3542 87.7188 27.3125C87.2188 27.25 86.4583 27.2188 85.4375 27.2188V26.7812Z" fill="black"/>
</svg>
