<svg width="98" height="51" viewBox="0 0 98 51" fill="none" xmlns="http://www.w3.org/2000/svg">
<path d="M21.3438 32.8125L19.5938 39H0.4375V38.3438C1.08333 38.3021 1.60417 38.2292 2 38.125C2.41667 38.0208 2.72917 37.8542 2.9375 37.625C3.16667 37.3958 3.32292 37.0833 3.40625 36.6875C3.48958 36.2917 3.53125 35.7812 3.53125 35.1562V19.2812C3.53125 18.6562 3.48958 18.1458 3.40625 17.75C3.34375 17.3542 3.19792 17.0417 2.96875 16.8125C2.73958 16.5833 2.41667 16.4167 2 16.3125C1.60417 16.2083 1.08333 16.1354 0.4375 16.0938V15.375H10.4688V16.0938C9.76042 16.1354 9.1875 16.2083 8.75 16.3125C8.3125 16.3958 7.97917 16.5625 7.75 16.8125C7.52083 17.0417 7.36458 17.3542 7.28125 17.75C7.19792 18.1458 7.15625 18.6562 7.15625 19.2812V36.1562C7.15625 36.4688 7.1875 36.7292 7.25 36.9375C7.33333 37.125 7.48958 37.2708 7.71875 37.375C7.94792 37.4792 8.26042 37.5521 8.65625 37.5938C9.05208 37.6146 9.58333 37.625 10.25 37.625H12.625C14.1458 37.625 15.4062 37.4479 16.4062 37.0938C17.4271 36.7396 18.2604 36.1979 18.9062 35.4688C19.1562 35.1771 19.3958 34.8125 19.625 34.375C19.875 33.9375 20.1458 33.4167 20.4375 32.8125H21.3438Z" fill="black"/>
<path d="M31.0625 14.9062C32.75 14.9062 34.3542 15.2604 35.875 15.9688C37.4167 16.6771 38.7188 17.6562 39.7812 18.9062C40.6562 19.9688 41.3333 21.2083 41.8125 22.625C42.2917 24.0417 42.5312 25.5625 42.5312 27.1875C42.5312 29 42.2396 30.6667 41.6562 32.1875C41.0938 33.6875 40.2917 34.9792 39.25 36.0625C38.2292 37.1458 37 37.9896 35.5625 38.5938C34.1458 39.1979 32.5833 39.5 30.875 39.5C29.1458 39.5 27.5625 39.1979 26.125 38.5938C24.6875 37.9896 23.4583 37.1458 22.4375 36.0625C21.4167 34.9583 20.625 33.6458 20.0625 32.125C19.5 30.6042 19.2188 28.9271 19.2188 27.0938C19.2188 25.3021 19.5104 23.6562 20.0938 22.1562C20.6771 20.6562 21.4896 19.375 22.5312 18.3125C23.5729 17.2292 24.8125 16.3958 26.25 15.8125C27.7083 15.2083 29.3125 14.9062 31.0625 14.9062ZM30.75 16.1562C29.7708 16.1562 28.8333 16.3854 27.9375 16.8438C27.0417 17.2812 26.2604 17.8958 25.5938 18.6875C25.2396 19.1042 24.9167 19.625 24.625 20.25C24.3542 20.875 24.1146 21.5625 23.9062 22.3125C23.6979 23.0417 23.5417 23.8229 23.4375 24.6562C23.3333 25.4896 23.2812 26.3229 23.2812 27.1562C23.2812 29.3021 23.5625 31.2083 24.125 32.875C24.6875 34.5417 25.4688 35.7917 26.4688 36.625C27.7188 37.6875 29.1979 38.2188 30.9062 38.2188C31.8021 38.2188 32.6458 38.0521 33.4375 37.7188C34.25 37.3854 34.9583 36.9167 35.5625 36.3125C37.5 34.4167 38.4688 31.3125 38.4688 27C38.4688 24.9375 38.1771 23.1042 37.5938 21.5C37.0312 19.8958 36.2396 18.6562 35.2188 17.7812C33.9062 16.6979 32.4167 16.1562 30.75 16.1562ZM44.3325 14.9062C46.02 14.9062 47.6242 15.2604 49.145 15.9688C50.6867 16.6771 51.9888 17.6562 53.0513 18.9062C53.9263 19.9688 54.6033 21.2083 55.0825 22.625C55.5617 24.0417 55.8013 25.5625 55.8013 27.1875C55.8013 29 55.5096 30.6667 54.9263 32.1875C54.3638 33.6875 53.5617 34.9792 52.52 36.0625C51.4992 37.1458 50.27 37.9896 48.8325 38.5938C47.4158 39.1979 45.8533 39.5 44.145 39.5C42.4158 39.5 40.8325 39.1979 39.395 38.5938C37.9575 37.9896 36.7283 37.1458 35.7075 36.0625C34.6867 34.9583 33.895 33.6458 33.3325 32.125C32.77 30.6042 32.4888 28.9271 32.4888 27.0938C32.4888 25.3021 32.7804 23.6562 33.3638 22.1562C33.9471 20.6562 34.7596 19.375 35.8013 18.3125C36.8429 17.2292 38.0825 16.3958 39.52 15.8125C40.9783 15.2083 42.5825 14.9062 44.3325 14.9062ZM44.02 16.1562C43.0408 16.1562 42.1033 16.3854 41.2075 16.8438C40.3117 17.2812 39.5304 17.8958 38.8638 18.6875C38.5096 19.1042 38.1867 19.625 37.895 20.25C37.6242 20.875 37.3846 21.5625 37.1763 22.3125C36.9679 23.0417 36.8117 23.8229 36.7075 24.6562C36.6033 25.4896 36.5513 26.3229 36.5513 27.1562C36.5513 29.3021 36.8325 31.2083 37.395 32.875C37.9575 34.5417 38.7388 35.7917 39.7388 36.625C40.9888 37.6875 42.4679 38.2188 44.1763 38.2188C45.0721 38.2188 45.9158 38.0521 46.7075 37.7188C47.52 37.3854 48.2283 36.9167 48.8325 36.3125C50.77 34.4167 51.7388 31.3125 51.7388 27C51.7388 24.9375 51.4471 23.1042 50.8638 21.5C50.3013 19.8958 49.5096 18.6562 48.4888 17.7812C47.1763 16.6979 45.6867 16.1562 44.02 16.1562Z" fill="black"/>
<path d="M66.7188 15.375H76.0625V16.0938C75.4583 16.1354 74.9479 16.1979 74.5312 16.2812C74.1146 16.3438 73.7188 16.4688 73.3438 16.6562C72.9688 16.8438 72.5729 17.1146 72.1562 17.4688C71.7604 17.8021 71.2604 18.2604 70.6562 18.8438L63.9062 25.5625L72.1875 34.4688C73 35.3438 73.6562 36.0312 74.1562 36.5312C74.6771 37.0312 75.125 37.4167 75.5 37.6875C75.8958 37.9583 76.2604 38.1354 76.5938 38.2188C76.9271 38.2812 77.3229 38.3229 77.7812 38.3438V39H66.9375V38.3438L67.9062 38.2812C68.9062 38.2604 69.4062 38 69.4062 37.5C69.4062 37.2917 69.2917 36.9896 69.0625 36.5938C68.8333 36.1979 68.5104 35.7396 68.0938 35.2188C67.6979 34.6771 67.2083 34.0833 66.625 33.4375C66.0625 32.7917 65.4375 32.125 64.75 31.4375L60.9688 27.6875L60.0625 28.4375V35.1562C60.0625 35.8021 60.0938 36.3229 60.1562 36.7188C60.2396 37.1146 60.3854 37.4271 60.5938 37.6562C60.8229 37.8854 61.1458 38.0521 61.5625 38.1562C62 38.2396 62.5625 38.3021 63.25 38.3438V39H53.2188V38.3438C53.9271 38.3021 54.4896 38.2292 54.9062 38.125C55.3229 38.0208 55.6354 37.8438 55.8438 37.5938C56.0729 37.3229 56.2188 36.9688 56.2812 36.5312C56.3646 36.0729 56.4062 35.4688 56.4062 34.7188V19.2812C56.4062 18.6562 56.3646 18.1458 56.2812 17.75C56.2188 17.3542 56.0729 17.0417 55.8438 16.8125C55.6146 16.5833 55.2917 16.4167 54.875 16.3125C54.4583 16.2083 53.9062 16.1354 53.2188 16.0938V15.375H63.3438V16.0938C62.6146 16.1354 62.0312 16.2083 61.5938 16.3125C61.1771 16.3958 60.8542 16.5521 60.625 16.7812C60.3958 17.0104 60.2396 17.3229 60.1562 17.7188C60.0938 18.1146 60.0625 18.6354 60.0625 19.2812V26.5938L66.375 20.8438C67.375 19.9271 68.0833 19.1875 68.5 18.625C68.9375 18.0625 69.1562 17.5833 69.1562 17.1875C69.1562 16.8333 69.0417 16.5729 68.8125 16.4062C68.6042 16.2396 68.2188 16.1354 67.6562 16.0938H66.7188V15.375Z" fill="black"/>
<path d="M94.9688 39H81.0625V38.5625L87.4062 31.8438C88.9062 30.2396 90.0521 28.6458 90.8438 27.0625C91.6562 25.4792 92.0625 23.9896 92.0625 22.5938C92.0625 21.0729 91.6042 19.8542 90.6875 18.9375C89.7917 18 88.5625 17.5312 87 17.5312C86.375 17.5312 85.8229 17.6146 85.3438 17.7812C84.8646 17.9271 84.4271 18.1875 84.0312 18.5625C83.6354 18.9167 83.2604 19.3854 82.9062 19.9688C82.5521 20.5521 82.1979 21.2812 81.8438 22.1562L81.0938 22C81.2396 21.375 81.3854 20.8229 81.5312 20.3438C81.6979 19.8646 81.8646 19.4375 82.0312 19.0625C82.2188 18.6875 82.4167 18.3438 82.625 18.0312C82.8333 17.7188 83.0833 17.4062 83.375 17.0938C84.0417 16.3854 84.8125 15.8438 85.6875 15.4688C86.5833 15.0938 87.5208 14.9062 88.5 14.9062C89.4375 14.9062 90.3021 15.0729 91.0938 15.4062C91.9062 15.7188 92.6042 16.1562 93.1875 16.7188C93.7917 17.2812 94.2604 17.9479 94.5938 18.7188C94.9479 19.4688 95.125 20.2812 95.125 21.1562C95.125 22.5938 94.75 24.0104 94 25.4062C93.2708 26.8021 92.125 28.3438 90.5625 30.0312L84.5625 36.2812H93.0625C93.4583 36.2812 93.8021 36.2604 94.0938 36.2188C94.3854 36.1562 94.6458 36.0417 94.875 35.875C95.125 35.7083 95.3646 35.4688 95.5938 35.1562C95.8438 34.8438 96.1354 34.4271 96.4688 33.9062L96.9375 34.125L94.9688 39Z" fill="black"/>
</svg>
