<svg width="164" height="75" viewBox="0 0 164 75" fill="none" xmlns="http://www.w3.org/2000/svg">
<path d="M22.9302 74L13.8848 73.7217L9.19971 73.8608C7.99365 73.9536 6.61751 74 5.07129 74C2.10254 74 0.618164 72.8558 0.618164 70.5674C0.618164 69.4541 1.08203 68.5882 2.00977 67.9697C2.9375 67.3512 4.22087 67.042 5.85986 67.042H9.94189V36.7979C9.94189 34.9424 9.5708 34.0146 8.82861 34.0146C8.36475 34.0146 7.76172 34.1229 7.01953 34.3394C6.30827 34.5558 5.44238 34.6641 4.42188 34.6641C3.40137 34.6641 2.50456 34.3394 1.73145 33.6899C0.989258 33.0405 0.618164 32.1592 0.618164 31.0459C0.618164 28.6647 2.30355 27.3195 5.67432 27.0103C7.71533 26.8247 9.38525 26.5464 10.6841 26.1753C11.9829 25.8042 13.0498 25.6187 13.8848 25.6187C16.6989 25.6187 18.106 27.103 18.106 30.0718V35.3135C19.745 32.5303 22.0024 30.2882 24.8784 28.5874C27.7853 26.8556 30.6304 25.9897 33.4136 25.9897C41.7941 25.9897 47.0822 29.2987 49.2778 35.9165C50.8241 32.9787 53.097 30.5975 56.0967 28.7729C59.0964 26.9175 62.096 25.9897 65.0957 25.9897C70.7858 25.9897 75.007 27.4741 77.7593 30.4429C80.5425 33.3807 81.9341 37.339 81.9341 42.3179V67.2739L85.042 67.3203C88.9385 67.3203 90.8867 68.5418 90.8867 70.9849C90.8867 71.8507 90.5156 72.6239 89.7734 73.3042C89.0312 73.9536 88.0571 74.2783 86.8511 74.2783C83.8514 74.2783 81.8413 74.1855 80.8208 74C79.8003 73.8145 78.7643 73.7217 77.7129 73.7217C76.6615 73.7217 75.7956 73.7371 75.1152 73.7681L73.0742 73.8608C71.9609 73.9536 70.5384 74 68.8066 74C65.807 74 64.3071 72.8558 64.3071 70.5674C64.3071 69.4541 64.771 68.5882 65.6987 67.9697C66.6574 67.3512 67.9253 67.042 69.5024 67.042L73.9092 67.1348V45.333C73.9092 37.3854 70.8322 33.4116 64.6782 33.4116C61.8641 33.4116 58.9881 34.8032 56.0503 37.5864C53.1434 40.3696 51.1951 43.7868 50.2056 47.8379V67.042H53.3135C57.21 67.042 59.1582 68.2635 59.1582 70.7065C59.1582 71.5724 58.7871 72.3455 58.0449 73.0259C57.3027 73.6753 56.3286 74 55.1226 74L46.3091 73.7217C45.0103 73.7217 44.0361 73.7371 43.3867 73.7681L41.3457 73.8608C39.8613 73.9536 38.4543 74 37.1245 74C35.8257 74 34.7433 73.7062 33.8774 73.1187C33.0425 72.5311 32.625 71.6807 32.625 70.5674C32.625 69.4541 33.1198 68.5882 34.1094 67.9697C35.099 67.3512 36.4132 67.042 38.0522 67.042H42.1807V45.333C42.1807 37.3854 39.0573 33.4116 32.8105 33.4116C29.9655 33.4116 27.0431 34.8032 24.0435 37.5864C21.0747 40.3696 19.0955 43.7868 18.106 47.8379V67.042H21.1211C25.0176 67.042 26.9658 68.2635 26.9658 70.7065C26.9658 71.5724 26.5947 72.3455 25.8525 73.0259C25.1104 73.6753 24.1362 74 22.9302 74ZM112.256 74L102.19 73.7217C101.077 73.7217 100.196 73.7371 99.5462 73.7681L97.5052 73.8608C95.928 73.9536 94.5055 74 93.2376 74C91.9697 74 90.9183 73.7062 90.0833 73.1187C89.2793 72.5311 88.8772 71.6807 88.8772 70.5674C88.8772 69.4541 89.3566 68.5882 90.3152 67.9697C91.2739 67.3512 92.5418 67.042 94.1189 67.042H97.7835V32.8086C97.5979 32.8395 97.4279 32.855 97.2732 32.855H96.763C95.1858 32.9478 93.7633 32.9941 92.4954 32.9941C91.2275 32.9941 90.1761 32.7004 89.3411 32.1128C88.5371 31.4943 88.1351 30.6439 88.1351 29.5615C88.1351 28.4482 88.5371 27.5824 89.3411 26.9639C90.1761 26.3454 91.2275 26.0361 92.4954 26.0361C93.7633 26.0361 95.1858 26.0825 96.763 26.1753L97.7835 26.2681V16.4341C97.7835 11.4243 99.0669 7.45052 101.634 4.5127C104.2 1.54395 107.463 0.0595703 111.421 0.0595703C115.41 0.0595703 118.426 0.879069 120.467 2.51807C122.508 4.12614 123.528 6.38363 123.528 9.29053C123.528 10.6512 123.188 11.7336 122.508 12.5376C121.827 13.3107 120.946 13.6973 119.864 13.6973C117.853 13.6973 116.555 12.6613 115.967 10.5894C115.41 8.51742 113.864 7.48145 111.328 7.48145C107.679 7.48145 105.855 11.0223 105.855 18.104V26.3145L107.757 26.1753C110.014 26.0825 112.148 26.0361 114.158 26.0361C116.199 26.0361 117.591 26.3763 118.333 27.0566C119.075 27.7061 119.446 28.3555 119.446 29.0049C119.446 31.6644 117.606 32.9941 113.926 32.9941C110.246 32.9941 107.556 32.9168 105.855 32.7622V67.042H111.421C115.287 67.042 117.22 68.2635 117.22 70.7065C117.22 71.5724 116.833 72.3455 116.06 73.0259C115.318 73.6753 114.05 74 112.256 74ZM159.092 58.9243C161.844 58.9243 163.22 60.1458 163.22 62.5889C163.22 63.7021 162.772 64.9701 161.875 66.3926C161.009 67.8151 159.726 69.1449 158.025 70.3818C154.067 73.2578 148.995 74.6958 142.81 74.6958C136.656 74.6958 131.368 72.6393 126.946 68.5264C124.781 66.4854 123.034 63.9495 121.704 60.9189C120.405 57.8574 119.756 54.4867 119.756 50.8066C119.756 43.7249 122.122 37.8184 126.853 33.0869C131.585 28.3555 137.522 25.9897 144.666 25.9897C146.614 25.9897 148.578 26.299 150.557 26.9175C150.495 26.7629 150.464 26.6237 150.464 26.5V25.4795C150.464 24.8919 150.742 24.2734 151.299 23.624C151.886 22.9437 152.629 22.6035 153.525 22.6035C155.134 22.6035 156.2 23.4076 156.726 25.0156L157.283 26.6392C158.025 28.5874 159.324 30.7057 161.179 32.9941C163.066 35.2516 164.009 36.9525 164.009 38.0967C164.009 39.2409 163.715 40.1377 163.128 40.7871C162.54 41.4365 161.767 41.7612 160.808 41.7612C158.984 41.7612 157.082 40.4779 155.103 37.9111C152.598 34.8496 148.933 33.3188 144.109 33.3188C139.285 33.3188 135.357 34.9578 132.327 38.2358C129.327 41.5138 127.827 45.6886 127.827 50.7603C127.827 55.8009 129.343 59.8366 132.373 62.8672C135.435 65.8669 139.223 67.3667 143.738 67.3667C149.83 67.3667 153.726 65.5422 155.427 61.8931C156.51 59.9139 157.731 58.9243 159.092 58.9243Z" fill="black"/>
</svg>
