<svg width="129" height="69" viewBox="0 0 129 69" fill="none" xmlns="http://www.w3.org/2000/svg">
<path d="M53.6175 26.8625C56.5625 26.8625 59.1592 27.48 61.4075 28.715C63.6558 29.9183 65.4133 31.7867 66.68 34.32C67.9783 36.8533 68.6275 40.115 68.6275 44.105V67H54.425V46.29C54.425 43.5667 54.0133 41.3658 53.19 39.6875C52.3667 38.0092 50.7358 37.17 48.2975 37.17C46.8408 37.17 45.5583 37.55 44.45 38.31C43.3417 39.07 42.4867 40.1308 41.885 41.4925C41.2833 42.8225 40.9825 44.4217 40.9825 46.29V67H27.73V46.29C27.73 43.5667 27.2708 41.3658 26.3525 39.6875C25.4658 38.0092 23.8825 37.17 21.6025 37.17C20.1458 37.17 18.8633 37.55 17.755 38.31C16.6467 39.0383 15.7917 40.0833 15.19 41.445C14.62 42.775 14.335 44.39 14.335 46.29V67H-0.0099997V28.0025H14.335V33.56C14.715 32.5783 15.5383 31.5808 16.805 30.5675C18.1033 29.5225 19.7025 28.6517 21.6025 27.955C23.5025 27.2267 25.5133 26.8625 27.635 26.8625C29.9467 26.8625 31.8783 27.2108 33.43 27.9075C34.9817 28.5725 36.2483 29.475 37.23 30.615C38.2433 31.755 39.0508 32.99 39.6525 34.32C40.0958 33.18 40.9667 32.04 42.265 30.9C43.595 29.7283 45.2417 28.7625 47.205 28.0025C49.2 27.2425 51.3375 26.8625 53.6175 26.8625ZM65.4495 28.0025H71.9095V17.695C71.9095 13.895 72.717 10.7283 74.332 8.195C75.947 5.66166 78.037 3.74583 80.602 2.4475C83.167 1.14916 85.827 0.499995 88.582 0.499995C92.002 0.499995 94.5986 0.959163 96.372 1.8775C98.177 2.79583 99.317 3.47667 99.792 3.92L94.282 14.5125C94.1236 14.2592 93.7278 13.895 93.0945 13.42C92.4611 12.945 91.622 12.7075 90.577 12.7075C89.912 12.7075 89.247 12.8817 88.582 13.23C87.917 13.5783 87.3628 14.1958 86.9195 15.0825C86.5078 15.9692 86.302 17.2675 86.302 18.9775V28.0025H95.9445V39.8775H86.302V67H71.9095V39.8775H65.4495V28.0025ZM114.521 56.7875C116.326 56.7875 117.814 56.4867 118.986 55.885C120.157 55.2517 120.949 54.745 121.361 54.365L127.963 64.15C127.457 64.5617 126.586 65.1 125.351 65.765C124.116 66.3983 122.564 66.9525 120.696 67.4275C118.859 67.9025 116.753 68.14 114.378 68.14C109.913 68.14 105.986 67.3008 102.598 65.6225C99.2098 63.9125 96.5657 61.5058 94.6657 58.4025C92.7973 55.2992 91.8632 51.6575 91.8632 47.4775C91.8632 43.2658 92.7973 39.6242 94.6657 36.5525C96.5657 33.4808 99.2098 31.1058 102.598 29.4275C105.986 27.7175 109.913 26.8625 114.378 26.8625C116.722 26.8625 118.812 27.1158 120.648 27.6225C122.516 28.0975 124.084 28.6517 125.351 29.285C126.617 29.8867 127.504 30.4092 128.011 30.8525L121.266 40.7325C121.044 40.5108 120.632 40.1942 120.031 39.7825C119.461 39.3708 118.717 39.0067 117.798 38.69C116.88 38.3733 115.787 38.215 114.521 38.215C112.969 38.215 111.512 38.6108 110.151 39.4025C108.821 40.1942 107.744 41.2867 106.921 42.68C106.097 44.0733 105.686 45.6725 105.686 47.4775C105.686 49.2825 106.097 50.8975 106.921 52.3225C107.744 53.7158 108.821 54.8083 110.151 55.6C111.512 56.3917 112.969 56.7875 114.521 56.7875Z" fill="black"/>
</svg>
