<svg width="26" height="26" viewBox="0 0 26 26" fill="none" xmlns="http://www.w3.org/2000/svg">
<path fill-rule="evenodd" clip-rule="evenodd" d="M11.7867 9.78C11.3818 9.78 10.97 10.1468 10.97 10.69C10.97 11.1013 11.0583 11.2497 11.1025 11.306C11.1551 11.3729 11.2601 11.4562 11.541 11.5565L15.0551 12.7823C15.4662 12.9286 15.936 13.1583 16.2869 13.6077C16.6456 14.067 16.7917 14.6399 16.7917 15.2983C16.7917 16.7306 15.6831 17.9583 14.225 17.9583H12.0317C10.4389 17.9583 9.20834 16.6195 9.20834 15.0417C9.20834 14.5584 9.60009 14.1667 10.0833 14.1667C10.5666 14.1667 10.9583 14.5584 10.9583 15.0417C10.9583 15.7271 11.4778 16.2083 12.0317 16.2083H14.225C14.6335 16.2083 15.0417 15.8494 15.0417 15.2983C15.0417 14.895 14.9544 14.7446 14.9077 14.6848C14.8533 14.6152 14.7461 14.5302 14.4708 14.4319L10.9566 13.206C10.551 13.0616 10.079 12.8361 9.72622 12.3869C9.36507 11.927 9.22001 11.352 9.22001 10.69C9.22001 9.27321 10.3249 8.03 11.7867 8.03H13.98C15.5728 8.03 16.8033 9.3688 16.8033 10.9467C16.8033 11.4299 16.4116 11.8217 15.9283 11.8217C15.4451 11.8217 15.0533 11.4299 15.0533 10.9467C15.0533 10.2612 14.5338 9.78 13.98 9.78H11.7867Z" fill="#939393"/>
<path fill-rule="evenodd" clip-rule="evenodd" d="M13 6.875C13.4832 6.875 13.875 7.26675 13.875 7.75V18.25C13.875 18.7332 13.4832 19.125 13 19.125C12.5168 19.125 12.125 18.7332 12.125 18.25V7.75C12.125 7.26675 12.5168 6.875 13 6.875Z" fill="#939393"/>
<path fill-rule="evenodd" clip-rule="evenodd" d="M13 2.20834C7.04325 2.20834 2.20834 7.04326 2.20834 13C2.20834 18.9568 7.04325 23.7917 13 23.7917C18.9568 23.7917 23.7917 18.9568 23.7917 13C23.7917 12.5168 24.1834 12.125 24.6667 12.125C25.1499 12.125 25.5417 12.5168 25.5417 13C25.5417 19.9233 19.9233 25.5417 13 25.5417C6.07675 25.5417 0.458336 19.9233 0.458336 13C0.458336 6.07676 6.07675 0.458344 13 0.458344C13.4833 0.458344 13.875 0.850094 13.875 1.33334C13.875 1.81659 13.4833 2.20834 13 2.20834Z" fill="#939393"/>
<path fill-rule="evenodd" clip-rule="evenodd" d="M19.125 1.33334C19.125 0.850094 19.5168 0.458344 20 0.458344H24.6667C25.1499 0.458344 25.5417 0.850094 25.5417 1.33334V6.00001C25.5417 6.48326 25.1499 6.87501 24.6667 6.87501C24.1834 6.87501 23.7917 6.48326 23.7917 6.00001V2.20834H20C19.5168 2.20834 19.125 1.81659 19.125 1.33334Z" fill="#939393"/>
<path fill-rule="evenodd" clip-rule="evenodd" d="M25.2854 0.714625C25.6271 1.05633 25.6271 1.61035 25.2854 1.95206L19.4521 7.7854C19.1103 8.1271 18.5563 8.1271 18.2146 7.7854C17.8729 7.44369 17.8729 6.88967 18.2146 6.54796L24.048 0.714625C24.3897 0.372916 24.9437 0.372916 25.2854 0.714625Z" fill="#939393"/>
</svg>
