<svg width="40" height="40" viewBox="0 0 40 40" fill="none" xmlns="http://www.w3.org/2000/svg">
<rect width="40" height="40" rx="4" fill="#212121"/>
<path d="M30.1057 24.2146L21.6353 17.7616C21.4309 17.6049 21.2137 17.4767 20.971 17.3912V15.9097C21.7503 15.5536 22.3252 14.7986 22.5424 13.83C22.7979 12.7046 22.5041 11.5223 21.7758 10.7673C21.1498 10.0978 20.23 9.84136 19.3868 10.0978C18.7224 10.2972 18.1475 10.7815 17.8153 11.4368C17.6237 11.8072 17.547 12.1775 17.5726 12.5337C17.6365 13.1889 17.9431 13.3741 18.122 13.4311C18.6585 13.602 19.1696 12.9753 19.3612 12.7046C19.6678 12.263 19.9233 12.0493 20.1533 12.0921C20.2938 12.0921 20.4472 12.2203 20.5366 12.377C20.6516 12.5764 20.6899 12.9183 20.6516 13.2602C20.6132 13.5308 20.4983 13.7872 20.3322 13.9154C20.2555 13.9724 20.1661 14.0294 20.0767 14.0721C20 14.1149 19.9233 14.1576 19.8595 14.2003C19.3868 14.4995 19.1057 15.0408 19.1057 15.6818V17.4055C18.863 17.5052 18.633 17.6334 18.4158 17.7901L9.90708 24.1718C9.34495 24.585 9 25.283 9 26.0379C9 27.2915 9.91986 28.3171 11.0441 28.3171H28.9942C30.1057 28.3171 31 27.3058 31 26.0807C31 25.3257 30.6678 24.6277 30.1057 24.2146ZM29.122 26.0807C29.122 26.1519 29.0581 26.2231 28.9942 26.2231H11.0441C10.9547 26.2231 10.878 26.1377 10.878 26.0379C10.878 25.9952 10.9036 25.9382 10.9419 25.9097L19.4506 19.4852C19.6167 19.357 19.8084 19.2858 20 19.2858C20.1916 19.2858 20.3833 19.357 20.5494 19.4852L29.0325 25.9525C29.0325 25.9525 29.0964 26.0379 29.0964 26.0807H29.122Z" fill="white"/>
</svg>
