<svg width="70" height="70" viewBox="0 0 70 70" fill="none" xmlns="http://www.w3.org/2000/svg">
<rect width="70" height="70" rx="35" fill="black"/>
<path d="M45.1451 11H37.0556V43.6956C37.0556 47.5913 33.9444 50.7913 30.0725 50.7913C26.2007 50.7913 23.0894 47.5913 23.0894 43.6956C23.0894 39.8696 26.1315 36.7391 29.8651 36.6V28.3913C21.6374 28.5304 15 35.2783 15 43.6956C15 52.1827 21.7757 59 30.1417 59C38.5075 59 45.2833 52.1131 45.2833 43.6956V26.9304C48.3255 29.1565 52.059 30.4783 56 30.5479V22.3391C49.9157 22.1304 45.1451 17.1217 45.1451 11Z" fill="white"/>
</svg>
