<svg width="70" height="70" viewBox="0 0 70 70" fill="none" xmlns="http://www.w3.org/2000/svg">
<rect width="70" height="70" rx="35" fill="#FF0302"/>
<path d="M58.5219 25.4001C58.5219 25.4001 58.0531 22.0907 56.6094 20.6376C54.7812 18.7251 52.7375 18.7157 51.8 18.6032C45.0875 18.1157 35.0094 18.1157 35.0094 18.1157H34.9906C34.9906 18.1157 24.9125 18.1157 18.2 18.6032C17.2625 18.7157 15.2188 18.7251 13.3906 20.6376C11.9469 22.0907 11.4875 25.4001 11.4875 25.4001C11.4875 25.4001 11 29.2907 11 33.172V36.8095C11 40.6907 11.4781 44.5813 11.4781 44.5813C11.4781 44.5813 11.9469 47.8907 13.3812 49.3438C15.2094 51.2563 17.6094 51.1907 18.6781 51.397C22.5219 51.7626 35 51.8751 35 51.8751C35 51.8751 45.0875 51.8563 51.8 51.3782C52.7375 51.2657 54.7812 51.2563 56.6094 49.3438C58.0531 47.8907 58.5219 44.5813 58.5219 44.5813C58.5219 44.5813 59 40.7001 59 36.8095V33.172C59 29.2907 58.5219 25.4001 58.5219 25.4001ZM30.0406 41.2251V27.7345L43.0062 34.5032L30.0406 41.2251Z" fill="white"/>
</svg>
