<svg width="393" height="852" viewBox="0 0 393 852" fill="none" xmlns="http://www.w3.org/2000/svg">
<g clip-path="url(#clip0_6_10447)">
<rect width="393" height="852" fill="white"/>
<path d="M110.301 653.218L-101.7 489.448L-212 540.684L-55.868 974.303L58.4162 921.217L-25.1642 689.093L180.401 847.906L229.105 570.983L312.685 803.108L426.969 750.022L270.837 316.403L160.537 367.638L110.301 653.218Z" fill="#EEEEEE"/>
<path d="M525.703 715.076L617.482 625.047L496.851 503.471L674.042 329.677L601.267 256.345L424.076 430.14L371.766 377.414L567.634 185.271L494.886 111.927L207.211 394.112L525.703 715.076Z" fill="#EEEEEE"/>
<path d="M198.04 679.518V718.446H197.347V663H198.04V679.518Z" fill="#1C1C1C"/>
<path d="M195.96 679.518V718.446H194.574V663H195.96V679.518Z" fill="#1C1C1C"/>
<path d="M186.95 679.518V718.446H186.257V663H186.95V679.518Z" fill="#1C1C1C"/>
<path d="M184.871 679.518V718.446H183.485V663H184.871V679.518Z" fill="#1C1C1C"/>
<path d="M202.891 679.518V718.446H202.198V663H202.891V679.518Z" fill="#1C1C1C"/>
<path d="M200.812 679.518V718.446H199.426V663H200.812V679.518Z" fill="#1C1C1C"/>
<path d="M205.663 679.518V718.446H204.277V663H205.663V679.518Z" fill="#1C1C1C"/>
<path d="M193.188 679.518V718.446H192.495V663H193.188V679.518Z" fill="#1C1C1C"/>
<path d="M189.723 679.518V718.446H188.336V663H189.723V679.518Z" fill="#1C1C1C"/>
<path d="M207.049 679.518V718.446H207.742V663H207.049V679.518Z" fill="#1C1C1C"/>
<path d="M162 662.999V721.91H164.079V662.999H162Z" fill="#1C1C1C"/>
<path d="M168.931 679.518V718.446H168.238V663H168.931V679.518Z" fill="#1C1C1C"/>
<path d="M167.544 679.518V718.446H166.158V663H167.544V679.518Z" fill="#1C1C1C"/>
<path d="M173.089 679.518V718.446H172.396V663H173.089V679.518Z" fill="#1C1C1C"/>
<path d="M171.703 679.518V718.446H170.317V663H171.703V679.518Z" fill="#1C1C1C"/>
<path d="M178.633 679.518V718.446H177.94V663H178.633V679.518Z" fill="#1C1C1C"/>
<path d="M175.862 679.518V718.446H175.168V663H175.862V679.518Z" fill="#1C1C1C"/>
<path d="M180.713 679.518V718.446H182.792V663H180.713V679.518Z" fill="#1C1C1C"/>
<path d="M217.445 679.518V718.446H218.138V663H217.445V679.518Z" fill="#1C1C1C"/>
<path d="M219.525 679.518V718.446H220.911V663H219.525V679.518Z" fill="#1C1C1C"/>
<path d="M213.287 679.518V718.446H214.673V663H213.287V679.518Z" fill="#1C1C1C"/>
<path d="M215.366 679.518V718.446H216.752V663H215.366V679.518Z" fill="#1C1C1C"/>
<path d="M229.228 679.518V718.446H229.921V663H229.228V679.518Z" fill="#1C1C1C"/>
<path d="M222.297 679.518V718.446H222.99V663H222.297V679.518Z" fill="#1C1C1C"/>
<path d="M227.148 679.518V718.446H227.842V663H227.148V679.518Z" fill="#1C1C1C"/>
<path d="M209.822 679.518V718.446H211.901V663H209.822V679.518Z" fill="#1C1C1C"/>
<path d="M231.327 680.55V721.911H232V663H231.327V680.55Z" fill="#1C1C1C"/>
<path d="M225.762 679.518V718.446H223.683V663H225.762V679.518Z" fill="#1C1C1C"/>
<rect x="164.772" y="685.18" width="63.7624" height="17.3267" fill="white"/>
<path d="M168.024 686.68L170.3 690.693L172.577 686.68H174.152V693.784H172.577V689.357L170.3 693.37L168.024 689.357V693.784H166.449V686.68H168.024Z" fill="#1C1C1C"/>
<path d="M176.324 686.68L178.153 689.792L180.061 686.68H181.823L178.954 691.221V693.789H177.358V691.221L174.479 686.68H176.329H176.324Z" fill="#1C1C1C"/>
<path d="M182.104 686.68H187.763V688.062H183.689V689.595H187.374V690.978H183.689V693.789H182.104V686.685V686.68Z" fill="#1C1C1C"/>
<path d="M187.192 693.792L190.185 686.688H191.958L194.951 693.792H193.174L192.706 692.674H189.427L188.959 693.792H187.187H187.192ZM192.16 691.384L191.069 688.79L189.972 691.384H192.16Z" fill="#1C1C1C"/>
<path d="M195.803 691.694C196.495 692.269 197.29 692.626 198.215 692.626C199.01 692.626 199.421 692.269 199.421 691.829C199.421 691.321 198.995 691.171 197.867 690.917C196.318 690.57 195.211 690.156 195.211 688.774C195.211 687.469 196.328 686.562 197.934 686.562C199.13 686.562 200.065 686.93 200.814 687.552L199.987 688.644C199.338 688.137 198.594 687.862 197.888 687.862C197.217 687.862 196.806 688.199 196.806 688.623C196.806 689.141 197.243 689.307 198.381 689.556C199.966 689.892 201.016 690.353 201.016 691.663C201.016 692.973 199.956 693.921 198.158 693.921C196.884 693.921 195.746 693.507 194.889 692.745L195.803 691.704V691.694Z" fill="#1C1C1C"/>
<path d="M201.723 693.792V686.688H203.298V689.479H206.645V686.688H208.22V693.792H206.645V690.861H203.298V693.792H201.723Z" fill="#1C1C1C"/>
<path d="M209.301 686.68H210.886V693.784H209.301V686.68Z" fill="#1C1C1C"/>
<path d="M215.507 686.562C217.637 686.562 219.404 688.235 219.404 690.239C219.404 692.243 217.632 693.916 215.507 693.916C213.381 693.916 211.598 692.233 211.598 690.239C211.598 688.245 213.396 686.562 215.507 686.562ZM215.507 692.528C216.743 692.528 217.793 691.477 217.793 690.234C217.793 688.991 216.743 687.94 215.507 687.94C214.27 687.94 213.22 689.001 213.22 690.234C213.22 691.466 214.27 692.528 215.507 692.528Z" fill="#1C1C1C"/>
<path d="M221.728 686.68L225.267 691.278V686.68H226.852V693.784H225.267L221.728 689.196V693.784H220.153V686.68H221.728Z" fill="#1C1C1C"/>
<path d="M166.158 697.901C166.158 696.229 167.613 694.836 169.323 694.836C170.222 694.836 171.054 695.214 171.631 695.83L170.711 696.653C170.363 696.26 169.869 695.986 169.323 695.986C168.325 695.986 167.473 696.871 167.473 697.901C167.473 698.932 168.325 699.817 169.323 699.817C169.869 699.817 170.363 699.553 170.711 699.149L171.631 699.983C171.054 700.589 170.222 700.972 169.323 700.972C167.613 700.972 166.158 699.569 166.158 697.907V697.901Z" fill="#1C1C1C"/>
<path d="M174.755 694.836C176.48 694.836 177.914 696.234 177.914 697.901C177.914 699.569 176.48 700.967 174.755 700.967C173.029 700.967 171.589 699.564 171.589 697.901C171.589 696.239 173.045 694.836 174.755 694.836ZM174.755 699.817C175.752 699.817 176.605 698.937 176.605 697.901C176.605 696.866 175.752 695.986 174.755 695.986C173.757 695.986 172.904 696.871 172.904 697.901C172.904 698.932 173.757 699.817 174.755 699.817Z" fill="#1C1C1C"/>
<path d="M181.381 694.836C183.106 694.836 184.541 696.234 184.541 697.901C184.541 699.569 183.106 700.967 181.381 700.967C179.655 700.967 178.216 699.564 178.216 697.901C178.216 696.239 179.671 694.836 181.381 694.836ZM181.381 699.817C182.379 699.817 183.231 698.937 183.231 697.901C183.231 696.866 182.379 695.986 181.381 695.986C180.383 695.986 179.531 696.871 179.531 697.901C179.531 698.932 180.383 699.817 181.381 699.817Z" fill="#1C1C1C"/>
<path d="M187.8 694.939C189.089 694.939 190.045 695.772 190.045 696.938C190.045 697.823 189.499 698.512 188.689 698.797L190.154 700.868H188.699L187.337 698.947H186.402V700.868H185.128V694.934H187.805L187.8 694.939ZM186.397 696.104V697.776H187.654C188.283 697.776 188.72 697.445 188.72 696.938C188.72 696.43 188.288 696.104 187.654 696.104H186.397Z" fill="#1C1C1C"/>
<path d="M190.668 694.941H192.805C194.805 694.941 196.23 696.163 196.23 697.909C196.23 699.654 194.805 700.876 192.805 700.876H190.668V694.941ZM191.947 699.716H192.971C194.104 699.716 194.909 698.965 194.909 697.903C194.909 696.842 194.104 696.101 192.971 696.101H191.947V699.716Z" fill="#1C1C1C"/>
<path d="M196.848 694.941H198.132V700.876H196.848V694.941Z" fill="#1C1C1C"/>
<path d="M200.284 694.941L203.152 698.778V694.941H204.436V700.876H203.152L200.284 697.049V700.876H199.01V694.941H200.284Z" fill="#1C1C1C"/>
<path d="M204.758 700.868L207.185 694.934H208.62L211.047 700.868H209.607L209.228 699.936H206.572L206.193 700.868H204.758ZM208.781 698.859L207.897 696.694L207.009 698.859H208.781Z" fill="#1C1C1C"/>
<path d="M210.242 694.941H215.236V696.096H213.375V700.876H212.097V696.096H210.236V694.941H210.242Z" fill="#1C1C1C"/>
<path d="M218.375 694.836C220.101 694.836 221.535 696.234 221.535 697.901C221.535 699.569 220.101 700.967 218.375 700.967C216.65 700.967 215.21 699.564 215.21 697.901C215.21 696.239 216.665 694.836 218.375 694.836ZM218.375 699.817C219.373 699.817 220.225 698.937 220.225 697.901C220.225 696.866 219.373 695.986 218.375 695.986C217.377 695.986 216.525 696.871 216.525 697.901C216.525 698.932 217.377 699.817 218.375 699.817Z" fill="#1C1C1C"/>
<path d="M224.794 694.939C226.083 694.939 227.039 695.772 227.039 696.938C227.039 697.823 226.493 698.512 225.683 698.797L227.148 700.868H225.693L224.331 698.947H223.396V700.868H222.123V694.934H224.799L224.794 694.939ZM223.391 696.104V697.776H224.648C225.277 697.776 225.714 697.445 225.714 696.938C225.714 696.43 225.283 696.104 224.648 696.104H223.391Z" fill="#1C1C1C"/>
<path d="M110.431 766.364C110.431 765.982 110.524 765.634 110.712 765.32C110.899 765.005 111.148 764.755 111.461 764.57C111.776 764.383 112.124 764.29 112.505 764.29C112.836 764.29 113.143 764.362 113.425 764.506C113.706 764.648 113.94 764.844 114.124 765.092C114.309 765.341 114.421 765.62 114.462 765.93H113.538C113.496 765.71 113.375 765.53 113.176 765.391C112.98 765.249 112.756 765.178 112.505 765.178C112.287 765.178 112.088 765.231 111.908 765.337C111.728 765.444 111.585 765.587 111.479 765.767C111.372 765.945 111.319 766.143 111.319 766.364C111.319 766.581 111.372 766.78 111.479 766.96C111.585 767.14 111.728 767.283 111.908 767.39C112.088 767.496 112.287 767.55 112.505 767.55C112.756 767.55 112.97 767.48 113.148 767.34C113.325 767.198 113.436 767.017 113.481 766.797H114.405C114.364 767.107 114.257 767.386 114.082 767.635C113.906 767.884 113.683 768.08 113.41 768.224C113.138 768.366 112.836 768.438 112.505 768.438C112.124 768.438 111.776 768.345 111.461 768.161C111.148 767.973 110.899 767.723 110.712 767.408C110.524 767.093 110.431 766.745 110.431 766.364ZM112.473 770.114C111.957 770.114 111.471 770.017 111.017 769.822C110.565 769.628 110.166 769.36 109.82 769.016C109.477 768.671 109.207 768.272 109.011 767.82C108.816 767.367 108.721 766.882 108.723 766.364C108.725 765.845 108.824 765.36 109.018 764.908C109.214 764.455 109.484 764.058 109.827 763.714C110.171 763.369 110.568 763.099 111.02 762.905C111.473 762.711 111.957 762.614 112.473 762.614C112.991 762.614 113.477 762.711 113.929 762.905C114.383 763.099 114.781 763.369 115.122 763.714C115.465 764.058 115.734 764.455 115.928 764.908C116.122 765.36 116.221 765.845 116.223 766.364C116.225 766.882 116.129 767.367 115.935 767.82C115.741 768.272 115.472 768.671 115.129 769.016C114.786 769.36 114.387 769.628 113.932 769.822C113.478 770.017 112.991 770.114 112.473 770.114ZM112.473 769.169C112.861 769.169 113.226 769.097 113.567 768.952C113.908 768.808 114.206 768.608 114.462 768.352C114.72 768.094 114.921 767.796 115.065 767.457C115.21 767.116 115.281 766.753 115.278 766.367C115.278 765.979 115.205 765.614 115.058 765.273C114.914 764.933 114.712 764.634 114.454 764.379C114.199 764.121 113.902 763.919 113.563 763.775C113.225 763.63 112.861 763.558 112.473 763.558C112.087 763.558 111.725 763.63 111.386 763.775C111.048 763.919 110.749 764.121 110.491 764.379C110.236 764.637 110.034 764.936 109.888 765.277C109.741 765.616 109.667 765.979 109.667 766.367C109.665 766.751 109.736 767.113 109.881 767.454C110.027 767.792 110.229 768.091 110.484 768.349C110.742 768.604 111.041 768.806 111.379 768.952C111.72 769.097 112.085 769.169 112.473 769.169ZM117.949 770V769.205L120.41 766.655C120.673 766.378 120.889 766.135 121.06 765.927C121.233 765.716 121.362 765.516 121.447 765.327C121.532 765.137 121.575 764.936 121.575 764.723C121.575 764.482 121.518 764.273 121.404 764.098C121.291 763.92 121.136 763.784 120.939 763.69C120.743 763.593 120.521 763.544 120.275 763.544C120.015 763.544 119.787 763.597 119.593 763.704C119.399 763.81 119.25 763.961 119.146 764.155C119.042 764.349 118.989 764.576 118.989 764.837H117.942C117.942 764.394 118.044 764.007 118.247 763.675C118.451 763.344 118.73 763.087 119.085 762.905C119.44 762.72 119.844 762.628 120.296 762.628C120.753 762.628 121.156 762.719 121.504 762.901C121.854 763.081 122.127 763.327 122.324 763.64C122.52 763.95 122.619 764.3 122.619 764.691C122.619 764.961 122.568 765.225 122.466 765.483C122.367 765.741 122.193 766.029 121.944 766.346C121.695 766.661 121.35 767.043 120.907 767.493L119.462 769.006V769.059H122.736V770H117.949ZM126.814 770.121C126.253 770.118 125.773 769.97 125.376 769.677C124.978 769.383 124.674 768.956 124.463 768.395C124.252 767.834 124.147 767.158 124.147 766.367C124.147 765.579 124.252 764.905 124.463 764.347C124.676 763.788 124.981 763.362 125.379 763.068C125.779 762.775 126.257 762.628 126.814 762.628C127.37 762.628 127.847 762.776 128.245 763.072C128.643 763.365 128.947 763.791 129.158 764.35C129.371 764.906 129.477 765.579 129.477 766.367C129.477 767.16 129.372 767.837 129.161 768.398C128.95 768.957 128.646 769.384 128.248 769.68C127.851 769.974 127.372 770.121 126.814 770.121ZM126.814 769.173C127.306 769.173 127.691 768.932 127.968 768.452C128.247 767.971 128.387 767.276 128.387 766.367C128.387 765.763 128.323 765.253 128.195 764.837C128.07 764.418 127.889 764.1 127.652 763.885C127.417 763.667 127.138 763.558 126.814 763.558C126.324 763.558 125.939 763.8 125.66 764.283C125.38 764.766 125.239 765.46 125.237 766.367C125.237 766.973 125.3 767.486 125.425 767.905C125.553 768.321 125.734 768.638 125.969 768.853C126.203 769.066 126.485 769.173 126.814 769.173ZM130.937 770V769.205L133.398 766.655C133.661 766.378 133.877 766.135 134.048 765.927C134.22 765.716 134.35 765.516 134.435 765.327C134.52 765.137 134.563 764.936 134.563 764.723C134.563 764.482 134.506 764.273 134.392 764.098C134.278 763.92 134.123 763.784 133.927 763.69C133.73 763.593 133.509 763.544 133.263 763.544C133.002 763.544 132.775 763.597 132.581 763.704C132.387 763.81 132.238 763.961 132.134 764.155C132.029 764.349 131.977 764.576 131.977 764.837H130.93C130.93 764.394 131.032 764.007 131.235 763.675C131.439 763.344 131.718 763.087 132.073 762.905C132.428 762.72 132.832 762.628 133.284 762.628C133.741 762.628 134.144 762.719 134.492 762.901C134.842 763.081 135.115 763.327 135.312 763.64C135.508 763.95 135.607 764.3 135.607 764.691C135.607 764.961 135.556 765.225 135.454 765.483C135.354 765.741 135.18 766.029 134.932 766.346C134.683 766.661 134.338 767.043 133.895 767.493L132.45 769.006V769.059H135.724V770H130.937ZM136.961 768.58V767.692L140.103 762.727H140.803V764.034H140.359L138.111 767.592V767.649H142.419V768.58H136.961ZM140.409 770V768.31L140.416 767.905V762.727H141.456V770H140.409ZM146.802 762.727H148.134L150.449 768.381H150.535L152.85 762.727H154.182V770H153.138V764.737H153.07L150.925 769.989H150.059L147.914 764.734H147.846V770H146.802V762.727ZM155.416 762.727H156.662L158.562 766.033H158.64L160.54 762.727H161.787L159.148 767.145V770H158.054V767.145L155.416 762.727ZM163.023 770V762.727H167.533V763.672H164.12V765.888H167.209V766.829H164.12V770H163.023ZM168.788 770H167.623L170.241 762.727H171.508L174.126 770H172.961L170.905 764.048H170.848L168.788 770ZM168.983 767.152H172.762V768.075H168.983V767.152ZM179.284 764.638C179.246 764.302 179.09 764.041 178.815 763.857C178.54 763.67 178.195 763.576 177.778 763.576C177.48 763.576 177.222 763.623 177.004 763.718C176.786 763.81 176.617 763.938 176.496 764.102C176.378 764.263 176.319 764.446 176.319 764.652C176.319 764.825 176.359 764.974 176.439 765.099C176.522 765.225 176.63 765.33 176.762 765.415C176.897 765.498 177.042 765.568 177.196 765.625C177.35 765.679 177.498 765.724 177.64 765.76L178.35 765.945C178.582 766.001 178.82 766.078 179.064 766.175C179.307 766.272 179.534 766.4 179.742 766.559C179.95 766.718 180.118 766.914 180.246 767.148C180.376 767.383 180.441 767.663 180.441 767.99C180.441 768.402 180.335 768.768 180.122 769.087C179.911 769.407 179.605 769.659 179.202 769.844C178.802 770.028 178.318 770.121 177.75 770.121C177.205 770.121 176.734 770.034 176.336 769.862C175.939 769.689 175.627 769.444 175.402 769.126C175.177 768.807 175.053 768.428 175.03 767.99H176.13C176.152 768.253 176.237 768.472 176.386 768.647C176.538 768.82 176.731 768.949 176.965 769.034C177.202 769.117 177.461 769.158 177.743 769.158C178.053 769.158 178.329 769.11 178.57 769.013C178.814 768.913 179.006 768.776 179.145 768.601C179.285 768.423 179.355 768.216 179.355 767.979C179.355 767.764 179.293 767.588 179.17 767.45C179.049 767.313 178.885 767.199 178.677 767.109C178.471 767.019 178.237 766.94 177.977 766.871L177.118 766.637C176.535 766.478 176.074 766.245 175.733 765.938C175.394 765.63 175.225 765.223 175.225 764.716C175.225 764.297 175.338 763.931 175.566 763.619C175.793 763.306 176.101 763.063 176.489 762.891C176.877 762.715 177.315 762.628 177.803 762.628C178.295 762.628 178.73 762.714 179.106 762.887C179.485 763.06 179.783 763.298 180.001 763.601C180.219 763.902 180.333 764.247 180.342 764.638H179.284ZM181.953 770V762.727H183.05V765.888H186.676V762.727H187.777V770H186.676V766.829H183.05V770H181.953ZM190.672 762.727V770H189.575V762.727H190.672ZM198.787 766.364C198.787 767.14 198.645 767.808 198.361 768.366C198.077 768.923 197.688 769.351 197.193 769.652C196.7 769.95 196.141 770.099 195.513 770.099C194.883 770.099 194.321 769.95 193.826 769.652C193.334 769.351 192.946 768.922 192.662 768.363C192.378 767.804 192.236 767.138 192.236 766.364C192.236 765.587 192.378 764.921 192.662 764.364C192.946 763.806 193.334 763.377 193.826 763.079C194.321 762.778 194.883 762.628 195.513 762.628C196.141 762.628 196.7 762.778 197.193 763.079C197.688 763.377 198.077 763.806 198.361 764.364C198.645 764.921 198.787 765.587 198.787 766.364ZM197.701 766.364C197.701 765.772 197.605 765.273 197.413 764.869C197.224 764.461 196.963 764.154 196.632 763.945C196.303 763.735 195.93 763.629 195.513 763.629C195.094 763.629 194.72 763.735 194.391 763.945C194.062 764.154 193.802 764.461 193.61 764.869C193.42 765.273 193.326 765.772 193.326 766.364C193.326 766.955 193.42 767.455 193.61 767.862C193.802 768.267 194.062 768.575 194.391 768.786C194.72 768.994 195.094 769.098 195.513 769.098C195.93 769.098 196.303 768.994 196.632 768.786C196.963 768.575 197.224 768.267 197.413 767.862C197.605 767.455 197.701 766.955 197.701 766.364ZM206.225 762.727V770H205.217L201.52 764.666H201.453V770H200.355V762.727H201.371L205.071 768.068H205.139V762.727H206.225ZM216.913 765.092H215.805C215.763 764.856 215.683 764.647 215.567 764.467C215.451 764.287 215.309 764.135 215.141 764.009C214.973 763.884 214.785 763.789 214.576 763.725C214.371 763.661 214.152 763.629 213.92 763.629C213.5 763.629 213.125 763.735 212.794 763.945C212.465 764.156 212.204 764.465 212.013 764.872C211.823 765.279 211.728 765.777 211.728 766.364C211.728 766.955 211.823 767.455 212.013 767.862C212.204 768.269 212.466 768.577 212.797 768.786C213.129 768.994 213.502 769.098 213.916 769.098C214.146 769.098 214.363 769.067 214.569 769.006C214.778 768.942 214.966 768.848 215.134 768.725C215.302 768.602 215.444 768.452 215.56 768.274C215.679 768.094 215.76 767.888 215.805 767.656L216.913 767.66C216.854 768.017 216.739 768.346 216.569 768.647C216.401 768.945 216.184 769.203 215.919 769.421C215.656 769.637 215.355 769.804 215.017 769.922C214.678 770.04 214.309 770.099 213.909 770.099C213.279 770.099 212.718 769.95 212.226 769.652C211.733 769.351 211.345 768.922 211.061 768.363C210.779 767.804 210.638 767.138 210.638 766.364C210.638 765.587 210.78 764.921 211.064 764.364C211.348 763.806 211.737 763.377 212.229 763.079C212.722 762.778 213.281 762.628 213.909 762.628C214.295 762.628 214.655 762.683 214.988 762.795C215.325 762.904 215.626 763.065 215.894 763.278C216.161 763.488 216.383 763.746 216.558 764.052C216.733 764.355 216.852 764.702 216.913 765.092ZM224.744 766.364C224.744 767.14 224.602 767.808 224.317 768.366C224.033 768.923 223.644 769.351 223.149 769.652C222.657 769.95 222.097 770.099 221.469 770.099C220.84 770.099 220.277 769.95 219.783 769.652C219.29 769.351 218.902 768.922 218.618 768.363C218.334 767.804 218.192 767.138 218.192 766.364C218.192 765.587 218.334 764.921 218.618 764.364C218.902 763.806 219.29 763.377 219.783 763.079C220.277 762.778 220.84 762.628 221.469 762.628C222.097 762.628 222.657 762.778 223.149 763.079C223.644 763.377 224.033 763.806 224.317 764.364C224.602 764.921 224.744 765.587 224.744 766.364ZM223.657 766.364C223.657 765.772 223.561 765.273 223.369 764.869C223.18 764.461 222.92 764.154 222.588 763.945C222.259 763.735 221.886 763.629 221.469 763.629C221.05 763.629 220.676 763.735 220.347 763.945C220.018 764.154 219.758 764.461 219.566 764.869C219.377 765.273 219.282 765.772 219.282 766.364C219.282 766.955 219.377 767.455 219.566 767.862C219.758 768.267 220.018 768.575 220.347 768.786C220.676 768.994 221.05 769.098 221.469 769.098C221.886 769.098 222.259 768.994 222.588 768.786C222.92 768.575 223.18 768.267 223.369 767.862C223.561 767.455 223.657 766.955 223.657 766.364ZM232.629 766.364C232.629 767.14 232.487 767.808 232.203 768.366C231.919 768.923 231.53 769.351 231.035 769.652C230.542 769.95 229.982 770.099 229.355 770.099C228.725 770.099 228.163 769.95 227.668 769.652C227.176 769.351 226.788 768.922 226.503 768.363C226.219 767.804 226.077 767.138 226.077 766.364C226.077 765.587 226.219 764.921 226.503 764.364C226.788 763.806 227.176 763.377 227.668 763.079C228.163 762.778 228.725 762.628 229.355 762.628C229.982 762.628 230.542 762.778 231.035 763.079C231.53 763.377 231.919 763.806 232.203 764.364C232.487 764.921 232.629 765.587 232.629 766.364ZM231.543 766.364C231.543 765.772 231.447 765.273 231.255 764.869C231.065 764.461 230.805 764.154 230.474 763.945C230.145 763.735 229.772 763.629 229.355 763.629C228.936 763.629 228.562 763.735 228.233 763.945C227.904 764.154 227.643 764.461 227.452 764.869C227.262 765.273 227.168 765.772 227.168 766.364C227.168 766.955 227.262 767.455 227.452 767.862C227.643 768.267 227.904 768.575 228.233 768.786C228.562 768.994 228.936 769.098 229.355 769.098C229.772 769.098 230.145 768.994 230.474 768.786C230.805 768.575 231.065 768.267 231.255 767.862C231.447 767.455 231.543 766.955 231.543 766.364ZM234.197 770V762.727H236.79C237.353 762.727 237.821 762.824 238.192 763.018C238.566 763.213 238.846 763.481 239.03 763.825C239.215 764.165 239.307 764.56 239.307 765.007C239.307 765.452 239.214 765.844 239.027 766.183C238.842 766.519 238.563 766.78 238.189 766.967C237.817 767.154 237.349 767.248 236.786 767.248H234.822V766.303H236.687C237.042 766.303 237.331 766.252 237.553 766.151C237.778 766.049 237.943 765.901 238.047 765.707C238.151 765.513 238.203 765.279 238.203 765.007C238.203 764.732 238.15 764.495 238.043 764.293C237.939 764.092 237.774 763.938 237.55 763.832C237.327 763.723 237.035 763.668 236.672 763.668H235.295V770H234.197ZM237.787 766.719L239.584 770H238.334L236.573 766.719H237.787ZM243.197 770H240.843V762.727H243.272C243.984 762.727 244.596 762.873 245.107 763.164C245.619 763.453 246.011 763.868 246.283 764.411C246.558 764.95 246.695 765.598 246.695 766.353C246.695 767.111 246.556 767.762 246.279 768.306C246.005 768.851 245.607 769.27 245.086 769.563C244.565 769.854 243.936 770 243.197 770ZM241.94 769.041H243.137C243.691 769.041 244.151 768.937 244.518 768.729C244.885 768.518 245.16 768.214 245.342 767.816C245.524 767.416 245.615 766.928 245.615 766.353C245.615 765.782 245.524 765.298 245.342 764.901C245.162 764.503 244.893 764.201 244.536 763.995C244.178 763.789 243.734 763.686 243.204 763.686H241.94V769.041ZM249.357 762.727V770H248.259V762.727H249.357ZM257.025 762.727V770H256.016L252.319 764.666H252.252V770H251.155V762.727H252.17L255.871 768.068H255.938V762.727H257.025ZM259.44 770H258.275L260.892 762.727H262.16L264.777 770H263.612L261.556 764.048H261.499L259.44 770ZM259.635 767.152H263.413V768.075H259.635V767.152ZM264.809 763.672V762.727H270.438V763.672H268.169V770H267.075V763.672H264.809ZM277.887 766.364C277.887 767.14 277.745 767.808 277.46 768.366C277.176 768.923 276.787 769.351 276.292 769.652C275.8 769.95 275.24 770.099 274.612 770.099C273.983 770.099 273.42 769.95 272.926 769.652C272.433 769.351 272.045 768.922 271.761 768.363C271.477 767.804 271.335 767.138 271.335 766.364C271.335 765.587 271.477 764.921 271.761 764.364C272.045 763.806 272.433 763.377 272.926 763.079C273.42 762.778 273.983 762.628 274.612 762.628C275.24 762.628 275.8 762.778 276.292 763.079C276.787 763.377 277.176 763.806 277.46 764.364C277.745 764.921 277.887 765.587 277.887 766.364ZM276.8 766.364C276.8 765.772 276.704 765.273 276.512 764.869C276.323 764.461 276.062 764.154 275.731 763.945C275.402 763.735 275.029 763.629 274.612 763.629C274.193 763.629 273.819 763.735 273.49 763.945C273.161 764.154 272.901 764.461 272.709 764.869C272.52 765.273 272.425 765.772 272.425 766.364C272.425 766.955 272.52 767.455 272.709 767.862C272.901 768.267 273.161 768.575 273.49 768.786C273.819 768.994 274.193 769.098 274.612 769.098C275.029 769.098 275.402 768.994 275.731 768.786C276.062 768.575 276.323 768.267 276.512 767.862C276.704 767.455 276.8 766.955 276.8 766.364ZM279.455 770V762.727H282.047C282.61 762.727 283.078 762.824 283.45 763.018C283.824 763.213 284.103 763.481 284.288 763.825C284.472 764.165 284.565 764.56 284.565 765.007C284.565 765.452 284.471 765.844 284.284 766.183C284.1 766.519 283.82 766.78 283.446 766.967C283.074 767.154 282.607 767.248 282.043 767.248H280.08V766.303H281.944C282.299 766.303 282.588 766.252 282.81 766.151C283.035 766.049 283.2 765.901 283.304 765.707C283.408 765.513 283.46 765.279 283.46 765.007C283.46 764.732 283.407 764.495 283.301 764.293C283.196 764.092 283.032 763.938 282.807 763.832C282.584 763.723 282.292 763.668 281.93 763.668H280.552V770H279.455ZM283.045 766.719L284.842 770H283.592L281.83 766.719H283.045ZM138.811 782H137.646L140.264 774.727H141.531L144.149 782H142.984L140.928 776.048H140.871L138.811 782ZM139.007 779.152H142.785V780.075H139.007V779.152ZM145.399 782V774.727H146.496V781.055H149.792V782H145.399ZM151.243 782V774.727H152.341V781.055H155.636V782H151.243ZM159.934 782V774.727H162.527C163.09 774.727 163.558 774.824 163.929 775.018C164.303 775.213 164.583 775.481 164.767 775.825C164.952 776.165 165.044 776.56 165.044 777.007C165.044 777.452 164.951 777.844 164.764 778.183C164.579 778.519 164.3 778.78 163.926 778.967C163.554 779.154 163.087 779.248 162.523 779.248H160.559V778.303H162.424C162.779 778.303 163.068 778.252 163.29 778.151C163.515 778.049 163.68 777.901 163.784 777.707C163.888 777.513 163.94 777.279 163.94 777.007C163.94 776.732 163.887 776.495 163.78 776.293C163.676 776.092 163.512 775.938 163.287 775.832C163.064 775.723 162.772 775.668 162.41 775.668H161.032V782H159.934ZM163.525 778.719L165.321 782H164.071L162.31 778.719H163.525ZM167.677 774.727V782H166.58V774.727H167.677ZM174.397 777.025C174.328 776.809 174.236 776.616 174.12 776.446C174.006 776.273 173.87 776.126 173.711 776.006C173.553 775.883 173.372 775.789 173.168 775.725C172.967 775.661 172.746 775.629 172.504 775.629C172.095 775.629 171.725 775.735 171.396 775.945C171.067 776.156 170.807 776.465 170.615 776.872C170.426 777.277 170.331 777.773 170.331 778.36C170.331 778.95 170.427 779.448 170.618 779.855C170.81 780.262 171.073 780.571 171.407 780.782C171.741 780.993 172.121 781.098 172.547 781.098C172.942 781.098 173.287 781.018 173.58 780.857C173.876 780.696 174.104 780.468 174.265 780.175C174.429 779.879 174.51 779.531 174.51 779.131L174.795 779.184H172.714V778.278H175.572V779.106C175.572 779.717 175.442 780.247 175.182 780.697C174.924 781.144 174.566 781.49 174.109 781.734C173.655 781.978 173.134 782.099 172.547 782.099C171.889 782.099 171.311 781.948 170.814 781.645C170.319 781.342 169.933 780.912 169.656 780.356C169.379 779.797 169.241 779.134 169.241 778.367C169.241 777.787 169.321 777.266 169.482 776.805C169.643 776.343 169.869 775.951 170.16 775.629C170.454 775.305 170.798 775.058 171.194 774.887C171.591 774.714 172.026 774.628 172.497 774.628C172.89 774.628 173.256 774.686 173.594 774.802C173.935 774.918 174.238 775.082 174.503 775.295C174.771 775.509 174.992 775.762 175.167 776.055C175.343 776.347 175.461 776.67 175.523 777.025H174.397ZM177.165 782V774.727H178.263V777.888H181.888V774.727H182.989V782H181.888V778.829H178.263V782H177.165ZM184.428 775.672V774.727H190.057V775.672H187.788V782H186.694V775.672H184.428ZM195.467 776.638C195.43 776.302 195.273 776.041 194.999 775.857C194.724 775.67 194.378 775.576 193.962 775.576C193.663 775.576 193.405 775.623 193.188 775.718C192.97 775.81 192.8 775.938 192.68 776.102C192.561 776.263 192.502 776.446 192.502 776.652C192.502 776.825 192.542 776.974 192.623 777.099C192.706 777.225 192.814 777.33 192.946 777.415C193.081 777.498 193.225 777.568 193.379 777.625C193.533 777.679 193.681 777.724 193.823 777.76L194.533 777.945C194.765 778.001 195.003 778.078 195.247 778.175C195.491 778.272 195.717 778.4 195.925 778.559C196.134 778.718 196.302 778.914 196.43 779.148C196.56 779.383 196.625 779.663 196.625 779.99C196.625 780.402 196.519 780.768 196.305 781.087C196.095 781.407 195.788 781.659 195.386 781.844C194.986 782.028 194.501 782.121 193.933 782.121C193.389 782.121 192.918 782.034 192.52 781.862C192.122 781.689 191.811 781.444 191.586 781.126C191.361 780.807 191.237 780.428 191.213 779.99H192.314C192.335 780.253 192.421 780.472 192.57 780.647C192.721 780.82 192.914 780.949 193.148 781.034C193.385 781.117 193.644 781.158 193.926 781.158C194.236 781.158 194.512 781.11 194.754 781.013C194.997 780.913 195.189 780.776 195.329 780.601C195.469 780.423 195.538 780.216 195.538 779.979C195.538 779.764 195.477 779.588 195.354 779.45C195.233 779.313 195.068 779.199 194.86 779.109C194.654 779.019 194.421 778.94 194.161 778.871L193.301 778.637C192.719 778.478 192.257 778.245 191.916 777.938C191.578 777.63 191.408 777.223 191.408 776.716C191.408 776.297 191.522 775.931 191.749 775.619C191.977 775.306 192.284 775.063 192.673 774.891C193.061 774.715 193.499 774.628 193.987 774.628C194.479 774.628 194.913 774.714 195.29 774.887C195.669 775.06 195.967 775.298 196.185 775.601C196.403 775.902 196.516 776.247 196.526 776.638H195.467ZM200.983 782V774.727H203.575C204.139 774.727 204.606 774.824 204.978 775.018C205.352 775.213 205.631 775.481 205.816 775.825C206.001 776.165 206.093 776.56 206.093 777.007C206.093 777.452 205.999 777.844 205.812 778.183C205.628 778.519 205.348 778.78 204.974 778.967C204.603 779.154 204.135 779.248 203.572 779.248H201.608V778.303H203.472C203.827 778.303 204.116 778.252 204.339 778.151C204.564 778.049 204.728 777.901 204.832 777.707C204.936 777.513 204.988 777.279 204.988 777.007C204.988 776.732 204.935 776.495 204.829 776.293C204.725 776.092 204.56 775.938 204.335 775.832C204.113 775.723 203.82 775.668 203.458 775.668H202.08V782H200.983ZM204.573 778.719L206.37 782H205.12L203.359 778.719H204.573ZM207.628 782V774.727H212.188V775.672H208.725V777.888H211.95V778.829H208.725V781.055H212.23V782H207.628ZM217.82 776.638C217.782 776.302 217.626 776.041 217.351 775.857C217.077 775.67 216.731 775.576 216.314 775.576C216.016 775.576 215.758 775.623 215.54 775.718C215.322 775.81 215.153 775.938 215.032 776.102C214.914 776.263 214.855 776.446 214.855 776.652C214.855 776.825 214.895 776.974 214.976 777.099C215.059 777.225 215.166 777.33 215.299 777.415C215.434 777.498 215.578 777.568 215.732 777.625C215.886 777.679 216.034 777.724 216.176 777.76L216.886 777.945C217.118 778.001 217.356 778.078 217.6 778.175C217.844 778.272 218.07 778.4 218.278 778.559C218.487 778.718 218.655 778.914 218.782 779.148C218.913 779.383 218.978 779.663 218.978 779.99C218.978 780.402 218.871 780.768 218.658 781.087C218.447 781.407 218.141 781.659 217.738 781.844C217.338 782.028 216.854 782.121 216.286 782.121C215.742 782.121 215.27 782.034 214.873 781.862C214.475 781.689 214.164 781.444 213.939 781.126C213.714 780.807 213.59 780.428 213.566 779.99H214.667C214.688 780.253 214.773 780.472 214.922 780.647C215.074 780.82 215.267 780.949 215.501 781.034C215.738 781.117 215.997 781.158 216.279 781.158C216.589 781.158 216.865 781.11 217.106 781.013C217.35 780.913 217.542 780.776 217.682 780.601C217.821 780.423 217.891 780.216 217.891 779.979C217.891 779.764 217.83 779.588 217.706 779.45C217.586 779.313 217.421 779.199 217.213 779.109C217.007 779.019 216.774 778.94 216.513 778.871L215.654 778.637C215.072 778.478 214.61 778.245 214.269 777.938C213.93 777.63 213.761 777.223 213.761 776.716C213.761 776.297 213.875 775.931 214.102 775.619C214.329 775.306 214.637 775.063 215.025 774.891C215.414 774.715 215.852 774.628 216.339 774.628C216.832 774.628 217.266 774.714 217.643 774.887C218.021 775.06 218.32 775.298 218.537 775.601C218.755 775.902 218.869 776.247 218.878 776.638H217.82ZM220.489 782V774.727H225.049V775.672H221.586V777.888H224.811V778.829H221.586V781.055H225.091V782H220.489ZM226.714 782V774.727H229.307C229.87 774.727 230.338 774.824 230.709 775.018C231.084 775.213 231.363 775.481 231.548 775.825C231.732 776.165 231.825 776.56 231.825 777.007C231.825 777.452 231.731 777.844 231.544 778.183C231.359 778.519 231.08 778.78 230.706 778.967C230.334 779.154 229.867 779.248 229.303 779.248H227.339V778.303H229.204C229.559 778.303 229.848 778.252 230.07 778.151C230.295 778.049 230.46 777.901 230.564 777.707C230.668 777.513 230.72 777.279 230.72 777.007C230.72 776.732 230.667 776.495 230.56 776.293C230.456 776.092 230.292 775.938 230.067 775.832C229.844 775.723 229.552 775.668 229.19 775.668H227.812V782H226.714ZM230.305 778.719L232.102 782H230.852L229.09 778.719H230.305ZM233.82 774.727L235.844 780.651H235.925L237.95 774.727H239.136L236.518 782H235.251L232.634 774.727H233.82ZM240.386 782V774.727H244.946V775.672H241.483V777.888H244.708V778.829H241.483V781.055H244.988V782H240.386ZM248.966 782H246.611V774.727H249.04C249.753 774.727 250.365 774.873 250.876 775.164C251.388 775.453 251.779 775.868 252.052 776.411C252.326 776.95 252.464 777.598 252.464 778.353C252.464 779.111 252.325 779.762 252.048 780.306C251.773 780.851 251.376 781.27 250.855 781.563C250.334 781.854 249.704 782 248.966 782ZM247.709 781.041H248.905C249.459 781.041 249.92 780.937 250.287 780.729C250.654 780.518 250.928 780.214 251.111 779.816C251.293 779.416 251.384 778.928 251.384 778.353C251.384 777.782 251.293 777.298 251.111 776.901C250.931 776.503 250.662 776.201 250.305 775.995C249.947 775.789 249.503 775.686 248.973 775.686H247.709V781.041ZM254.183 782.067C253.989 782.067 253.822 781.999 253.683 781.862C253.543 781.722 253.473 781.554 253.473 781.357C253.473 781.163 253.543 780.997 253.683 780.86C253.822 780.72 253.989 780.651 254.183 780.651C254.378 780.651 254.545 780.72 254.684 780.86C254.824 780.997 254.894 781.163 254.894 781.357C254.894 781.487 254.861 781.607 254.794 781.716C254.73 781.822 254.645 781.908 254.539 781.972C254.432 782.036 254.314 782.067 254.183 782.067Z" fill="#8E9195"/>
<path d="M-198.837 295.573L-375.227 159.312L-467 201.941L-337.094 562.724L-242.006 518.556L-311.547 325.422L-140.511 457.559L-99.9886 227.152L-30.4474 420.286L64.6401 376.117L-65.266 15.3338L-157.039 57.9629L-198.837 295.573Z" fill="#EEEEEE"/>
<path d="M146.789 347.042L223.152 272.136L122.783 170.981L270.211 26.3795L209.66 -34.634L62.2322 109.968L18.7088 66.0988L181.677 -93.7702L121.149 -154.794L-118.205 79.9916L146.789 347.042Z" fill="#EEEEEE"/>
<path d="M535.035 3.30124L532.681 13.4778C523.98 50.9499 501.473 83.5821 470.897 102.982C411.064 140.893 332.639 124.035 299.917 66.065C267.907 9.02654 291.516 -73.7467 350.437 -111.057C380.569 -130.124 418.371 -135.649 454.193 -126.301L463.622 -123.843L502.308 -229.666L493.557 -231.732C431.733 -246.285 362.35 -233.181 302.976 -195.635C247.16 -160.298 205.279 -106.48 185.071 -44.1083C164.825 18.3815 169.302 80.5136 197.647 130.878C253.979 230.991 392.613 258.662 506.013 194.911C510.193 192.565 514.349 190.08 518.458 187.464C576.912 150.498 620.887 92.124 639.094 27.327L641.667 18.1333L535.035 3.30124Z" fill="#EEEEEE"/>
</g>
<defs>
<clipPath id="clip0_6_10447">
<rect width="393" height="852" fill="white"/>
</clipPath>
</defs>
</svg>
